<?xml version="1.0" encoding="UTF-8" standalone="no"?>
<!-- Created with Inkscape (http://www.inkscape.org/) -->
<svg height="128" width="128" xmlns="http://www.w3.org/2000/svg" xmlns:xlink="http://www.w3.org/1999/xlink">
  <defs>
    <linearGradient id="linearGradient5218">
      <stop offset="0" stop-color="#fff"/>
      <stop offset="1" stop-color="#fff" stop-opacity="0"/>
    </linearGradient>
    <filter id="filter5756" height="1.467486" width="1.082784" x="-.041392" y="-.233743">
      <feGaussianBlur stdDeviation=".20695971"/>
    </filter>
    <filter id="filter5305">
      <feGaussianBlur stdDeviation=".24175824"/>
    </filter>
    <filter id="filter5227">
      <feGaussianBlur stdDeviation=".48597756"/>
    </filter>
    <clipPath id="clipPath5191">
      <rect height="15" rx="1.238895" ry="1.400925" width="61" x="-61" y="12.5"/>
    </clipPath>
    <linearGradient id="linearGradient6039">
      <stop offset="0" stop-color="#d4d4d4"/>
      <stop offset="1" stop-color="#ebebeb"/>
    </linearGradient>
    <linearGradient id="linearGradient5727">
      <stop offset="0" stop-color="#1f1f1f"/>
      <stop offset=".81531531" stop-color="#3d3d3d"/>
      <stop offset="1" stop-color="#6b6b6b"/>
    </linearGradient>
    <filter id="filter4499" height="1.179937" width="1.259733" x="-.129867" y="-.089968">
      <feGaussianBlur stdDeviation="1.1363322"/>
    </filter>
    <clipPath id="clipPath4875">
      <rect height="68" rx="2.845482" width="52" x="246.93251" y="52"/>
    </clipPath>
    <linearGradient gradientUnits="userSpaceOnUse" x1="278.036894" x2="278.036894" xlink:href="#linearGradient6039" y1="120.07389" y2="54.822113"/>
    <filter id="filter4913">
      <feGaussianBlur stdDeviation=".58252427"/>
    </filter>
    <filter id="filter6142">
      <feGaussianBlur stdDeviation=".30028629"/>
    </filter>
    <linearGradient id="linearGradient3678" gradientTransform="matrix(1.634615 0 0 1.6911764 -280.76914 -79.941176)" gradientUnits="userSpaceOnUse" x1="215.10439" x2="215.10439" xlink:href="#linearGradient6039" y1="120.07389" y2="41.959984"/>
    <radialGradient id="radialGradient3680" cx="116.26598" cy="83.206123" gradientTransform="matrix(3.1273435 0 0 3.3798433 -299.55509 -206.64472)" gradientUnits="userSpaceOnUse" r="26" xlink:href="#linearGradient5218"/>
    <linearGradient id="linearGradient3682" gradientTransform="matrix(.68973358 0 0 .16807061 21.33045 13.152856)" gradientUnits="userSpaceOnUse" x1="59.698204" x2="59.698204" y1="16.749821" y2="137.3455">
      <stop offset="0" stop-color="#4e7bc0"/>
      <stop offset=".5" stop-color="#92b2e2"/>
      <stop offset="1" stop-color="#c9d9f0"/>
    </linearGradient>
    <radialGradient id="radialGradient3684" cx="65.21875" cy="-7.328125" gradientTransform="matrix(4.8211492 0 0 .36001703 -251.92934 22.645595)" gradientUnits="userSpaceOnUse" r="28.78125" xlink:href="#linearGradient5218"/>
    <linearGradient id="linearGradient3758" gradientUnits="userSpaceOnUse" x1="-227.57732" x2="-227.57732" y1="38.335606" y2="19.411484">
      <stop offset="0"/>
      <stop offset="1" stop-opacity="0"/>
    </linearGradient>
    <linearGradient id="linearGradient3760" gradientUnits="userSpaceOnUse" x1="-223.18062" x2="-223.18062" xlink:href="#linearGradient5727" y1="40.004862" y2="9.684457"/>
    <linearGradient id="linearGradient3764" gradientUnits="userSpaceOnUse" x1="298.9325" x2="298.9325" y1="121.26746" y2="63.986359">
      <stop offset="0" stop-color="#1b1b1b"/>
      <stop offset="1" stop-color="#1b1b1b" stop-opacity="0"/>
    </linearGradient>
    <filter id="filter3934">
      <feGaussianBlur stdDeviation="1.0904668"/>
    </filter>
    <linearGradient id="linearGradient4208" gradientUnits="userSpaceOnUse" x1="-223.18062" x2="-223.18062" xlink:href="#linearGradient5727" y1="40.004862" y2="27.999807"/>
    <filter id="filter4328">
      <feGaussianBlur stdDeviation=".30072377"/>
    </filter>
  </defs>
  <g>
    <g transform="matrix(.6433923 0 0 .6433923 122.76455 84.170545)"/>
    <g transform="matrix(.6433923 0 0 .6433923 122.76455 84.170545)"/>
    <rect filter="url(#filter6142)" height="67.105255" opacity=".608911" rx="2.845482" stroke="#000" stroke-linecap="square" stroke-width=".504632" transform="matrix(1.634615 0 0 1.6911764 -135.13239 -69.160241)" width="51.999996" x="94.904549" y="46.519924"/>
    <rect filter="url(#filter3934)" height="67.105255" opacity=".604651" rx="2.845482" stroke="#000" stroke-linecap="square" stroke-width=".504632" transform="matrix(1.634615 0 0 1.6911764 -135.13239 -69.160241)" width="51.999996" x="94.904549" y="46.519924"/>
    <rect fill="url(#linearGradient3678)" height="114.99999" rx="4.651267" ry="4.812212" width="84.999977" x="19.999996" y="8"/>
    <rect fill="url(#radialGradient3680)" height="111.65285" rx="4.651267" ry="4.812212" width="84.999977" x="19.999996" y="11.347148"/>
    <rect fill="#080808" height="23.466248" rx="3.29497" ry="3.548273" width="73" x="26" y="16.144691"/>
    <rect fill="#525252" height="24.038597" rx="3.289475" ry="3.455958" width="73" x="26" y="15"/>
    <rect fill="#2c2c2c" height="17" rx="1.360753" ry="1.587715" width="67" x="29" y="19"/>
    <rect fill="url(#linearGradient3682)" height="14" rx=".312248" ry=".319085" width="63" x="31" y="20"/>
    <path d="m32.303122 20.00735c-.708836 0-1.299521.56866-1.299521 1.29303v9.924901c17.086245-1.122597 33.061029-5.652358 48.698029-11.217931zm61.693272 1.6425-16.415045 6.535055c6.865751-.521462 11.695768-.349489 16.415045-.139794v-6.395268z" fill="url(#radialGradient3684)" opacity=".395604"/>
    <path d="m84.303745 21 .778589.733629h3.838002l.778589-.733629z" opacity=".600733"/>
    <path d="m90 21.283986-.778588.733629v3.616377l.778588.733629z" opacity=".600733"/>
    <path d="m84.000001 21.279252.778589.73363v3.616377l-.778589.733629z" fill-opacity=".217742" opacity=".600733"/>
    <path d="m84.303745 31.999999.778589-.733629h3.838002l.778589.733629z" opacity=".600733"/>
    <path d="m90 31.716014-.778588-.733629v-3.616378l.778588-.733629z" opacity=".600733"/>
    <path d="m84.000001 31.720747.778589-.733629v-3.616377l-.778589-.73363z" fill-opacity=".217742" opacity=".600733"/>
    <path d="m84.303745 26.533279.778589-.733629h3.838002l.778589.733629z" opacity=".600733"/>
    <path d="m76.30269 21.000001.775886.733629h3.824675l.775886-.733629z" opacity=".600733"/>
    <path d="m81.979166 21.283987-.775886.733629v3.616377l.775886.733629z" opacity=".600733"/>
    <path d="m76.000001 21.279253.775886.73363v3.616377l-.775886.733629z" opacity=".600733"/>
    <path d="m76.30269 32 .775886-.733629h3.824675l.775886.733629z" opacity=".600733"/>
    <path d="m81.979166 31.716015-.775886-.733629v-3.616378l.775886-.733629z" opacity=".600733"/>
    <path d="m76.000001 31.720748.775886-.733629v-3.616377l-.775886-.73363z" opacity=".600733"/>
    <path d="m76.30269 26.53328.775886-.733629h3.824675l.775886.733629z" fill-opacity=".217742" opacity=".600733"/>
    <path d="m68.303745 21 .778588.733629h3.838004l.778588-.733629z" fill-opacity=".217742" opacity=".600733"/>
    <path d="m74.000001 21.283986-.778589.733629v3.616377l.778589.733629z" opacity=".600733"/>
    <path d="m68.000001 21.279252.778588.73363v3.616377l-.778588.733629z" opacity=".600733"/>
    <path d="m68.303745 32 .778588-.733629h3.838004l.778588.733629z" fill-opacity=".217742" opacity=".600733"/>
    <path d="m74.000001 31.716015-.778589-.733629v-3.616378l.778589-.733629z" opacity=".600733"/>
    <path d="m68.000001 31.720748.778588-.733629v-3.616377l-.778588-.73363z" fill-opacity=".217742" opacity=".600733"/>
    <path d="m68.303745 26.53328.778588-.73363h3.838004l.778588.73363z" opacity=".600733"/>
    <g fill-opacity=".217742">
      <path d="m60.303745 21 .778589.733629h3.838003l.778589-.733629z" opacity=".600733"/>
      <path d="m66.000001 21.283986-.778588.733629v3.616377l.778588.733629z" opacity=".600733"/>
      <path d="m60.000001 21.279252.778589.73363v3.616377l-.778589.733629z" opacity=".600733"/>
      <path d="m60.303745 32 .778589-.733629h3.838003l.778589.733629z" opacity=".600733"/>
      <path d="m66.000001 31.716015-.778588-.733629v-3.616378l.778588-.733629z" opacity=".600733"/>
      <path d="m60.000001 31.720748.778589-.733629v-3.616377l-.778589-.73363z" opacity=".600733"/>
      <path d="m60.303745 26.53328.778589-.73363h3.838003l.778589.73363z" opacity=".600733"/>
      <path d="m52.303745 21 .778589.733629h3.838003l.778589-.733629z" opacity=".600733"/>
      <path d="m58.000001 21.283986-.778588.733629v3.616377l.778588.733629z" opacity=".600733"/>
      <path d="m52.000001 21.279252.778589.73363v3.616377l-.778589.733629z" opacity=".600733"/>
      <path d="m52.303745 32 .778589-.733629h3.838003l.778589.733629z" opacity=".600733"/>
      <path d="m58.000001 31.716015-.778588-.733629v-3.616378l.778588-.733629z" opacity=".600733"/>
      <path d="m52.000001 31.720748.778589-.733629v-3.616377l-.778589-.73363z" opacity=".600733"/>
      <path d="m52.303745 26.53328.778589-.73363h3.838003l.778589.73363z" opacity=".600733"/>
      <path d="m44.303746 21 .778589.733629h3.838002l.778589-.733629z" opacity=".600733"/>
      <path d="m50.000001 21.283986-.778588.733629v3.616377l.778588.733629z" opacity=".600733"/>
      <path d="m44.000001 21.279252.778588.73363v3.616377l-.778588.733629z" opacity=".600733"/>
      <path d="m44.303746 31.999999.778589-.733629h3.838002l.778589.733629z" opacity=".600733"/>
      <path d="m50.000001 31.716014-.778588-.733629v-3.616378l.778588-.733629z" opacity=".600733"/>
      <path d="m44.000001 31.720747.778588-.733629v-3.616377l-.778588-.73363z" opacity=".600733"/>
      <path d="m44.303746 26.533279.778589-.733629h3.838002l.778589.733629z" opacity=".600733"/>
      <path d="m36.303746 21 .778589.733629h3.838005l.778588-.733629z" opacity=".600733"/>
      <path d="m42.000001 21.283986-.778588.733629v3.616377l.778588.733629z" opacity=".600733"/>
      <path d="m36.000001 21.279252.778589.73363v3.616377l-.778589.733629z" opacity=".600733"/>
      <path d="m36.303746 32 .778589-.733629h3.838005l.778588.733629z" opacity=".600733"/>
      <path d="m42.000001 31.716015-.778588-.733629v-3.616378l.778588-.733629z" opacity=".600733"/>
      <path d="m36.000001 31.720748.778589-.733629v-3.616377l-.778589-.73363z" opacity=".600733"/>
      <path d="m36.303746 26.53328.778589-.73363h3.838005l.778588.73363z" opacity=".600733"/>
    </g>
    <path clip-path="url(#clipPath5191)" d="m-.65625 12.65625-1.34375 1.34375 1.90625-.6875c-.11480907-.291677-.31237995-.511104-.5625-.65625zm-1.8125 11.84375.96875 3h.25c.60997062 0 1.11406778-.501641 1.21875-1.15625-1.2147135-.935748-2.4375-1.84375-2.4375-1.84375zm-54.96875.5-3.5625.96875v.125c0 .776113.563652 1.40625 1.25 1.40625h.1875z" fill="#fff" fill-rule="evenodd" filter="url(#filter5227)" transform="matrix(1.0983607 0 0 1.1333333 96 4.833334)"/>
    <g transform="matrix(.64217054 0 0 .75564204 178.0907 11.702984)"/>
    <g transform="matrix(.64217054 0 0 .75564204 196.07145 11.702984)"/>
    <g transform="matrix(.64217054 0 0 .75564204 214.03799 11.702984)"/>
    <g transform="matrix(.64217054 0 0 .75564204 236.52817 11.702984)"/>
    <g transform="matrix(.66781107 0 0 .75564204 183.60341 25.855188)">
      <rect fill="url(#linearGradient3758)" filter="url(#filter5305)" height="12" opacity=".461538" rx="2.827777" transform="matrix(1 0 0 1.0257799 0 -.721838)" width="21" x="-236" y="28"/>
      <rect fill="url(#linearGradient4208)" height="12" rx="2.818512" width="21" x="-236" y="28"/>
      <path d="m-108 47.1875v.28125c0 1.014809.73274 1.843751 1.625 1.84375h8.75c.892261 0 1.625-.828942 1.625-1.84375v-.28125c0 1.014807-.732739 1.8125-1.625 1.8125h-8.75c-.89226 0-1.625-.797691-1.625-1.8125z" fill="#919191" filter="url(#filter5756)" transform="matrix(1.749999 0 0 1.5386701 -47.00011 -36.624146)"/>
    </g>
    <g transform="matrix(.66689441 0 0 .75564204 201.38708 25.855188)">
      <rect fill="url(#linearGradient3758)" filter="url(#filter5305)" height="12" opacity=".461538" rx="2.827777" transform="matrix(1 0 0 1.0257799 0 -.721838)" width="21" x="-236" y="28"/>
      <rect fill="url(#linearGradient4208)" height="12" rx="2.818512" width="21" x="-236" y="28"/>
      <path d="m-108 47.1875v.28125c0 1.014809.73274 1.843751 1.625 1.84375h8.75c.892261 0 1.625-.828942 1.625-1.84375v-.28125c0 1.014807-.732739 1.8125-1.625 1.8125h-8.75c-.89226 0-1.625-.797691-1.625-1.8125z" fill="#919191" filter="url(#filter5756)" transform="matrix(1.749999 0 0 1.5386701 -47.00011 -36.624146)"/>
    </g>
    <g transform="matrix(.66530107 0 0 .75564204 219.01105 25.855188)">
      <rect fill="url(#linearGradient3758)" filter="url(#filter5305)" height="12" opacity=".461538" rx="2.827777" transform="matrix(1 0 0 1.0257799 0 -.721838)" width="21" x="-236" y="28"/>
      <rect fill="url(#linearGradient4208)" height="12" rx="2.818512" width="21" x="-236" y="28"/>
      <path d="m-108 47.1875v.28125c0 1.014809.73274 1.843751 1.625 1.84375h8.75c.892261 0 1.625-.828942 1.625-1.84375v-.28125c0 1.014807-.732739 1.8125-1.625 1.8125h-8.75c-.89226 0-1.625-.797691-1.625-1.8125z" fill="#919191" filter="url(#filter5756)" transform="matrix(1.749999 0 0 1.5386701 -47.00011 -36.624146)"/>
    </g>
    <g transform="matrix(.66781365 0 0 .75564204 242.57995 25.855188)">
      <rect fill="url(#linearGradient3758)" filter="url(#filter5305)" height="12" opacity=".461538" rx="2.827777" transform="matrix(1 0 0 1.0257799 0 -.721838)" width="21" x="-236" y="28"/>
      <rect fill="url(#linearGradient4208)" height="12" rx="2.818512" width="21" x="-236" y="28"/>
      <path d="m-108 47.1875v.28125c0 1.014809.73274 1.843751 1.625 1.84375h8.75c.892261 0 1.625-.828942 1.625-1.84375v-.28125c0 1.014807-.732739 1.8125-1.625 1.8125h-8.75c-.89226 0-1.625-.797691-1.625-1.8125z" fill="#919191" filter="url(#filter5756)" transform="matrix(1.749999 0 0 1.5386701 -47.00011 -36.624146)"/>
    </g>
    <g transform="matrix(.66781107 0 0 .75564204 183.60341 43.858129)">
      <rect fill="url(#linearGradient3758)" filter="url(#filter5305)" height="12" opacity=".461538" rx="2.827777" transform="matrix(1 0 0 1.0257799 0 -.721838)" width="21" x="-236" y="28"/>
      <rect fill="url(#linearGradient4208)" height="12" rx="2.818512" width="21" x="-236" y="28"/>
      <path d="m-108 47.1875v.28125c0 1.014809.73274 1.843751 1.625 1.84375h8.75c.892261 0 1.625-.828942 1.625-1.84375v-.28125c0 1.014807-.732739 1.8125-1.625 1.8125h-8.75c-.89226 0-1.625-.797691-1.625-1.8125z" fill="#919191" filter="url(#filter5756)" transform="matrix(1.749999 0 0 1.5386701 -47.00011 -36.624146)"/>
    </g>
    <g transform="matrix(.66541523 0 0 .7496876 201.06906 44.024854)">
      <rect fill="url(#linearGradient3758)" filter="url(#filter5305)" height="12" opacity=".461538" rx="2.827777" transform="matrix(1 0 0 1.0257799 0 -.721838)" width="21" x="-236" y="28"/>
      <rect fill="url(#linearGradient4208)" height="12" rx="2.818512" width="21" x="-236" y="28"/>
      <path d="m-108 47.1875v.28125c0 1.014809.73274 1.843751 1.625 1.84375h8.75c.892261 0 1.625-.828942 1.625-1.84375v-.28125c0 1.014807-.732739 1.8125-1.625 1.8125h-8.75c-.89226 0-1.625-.797691-1.625-1.8125z" fill="#919191" filter="url(#filter5756)" transform="matrix(1.749999 0 0 1.5386701 -47.00011 -36.624146)"/>
    </g>
    <g transform="matrix(.66619887 0 0 .74999996 219.23277 44.000002)">
      <rect fill="url(#linearGradient3758)" filter="url(#filter5305)" height="12" opacity=".461538" rx="2.827777" transform="matrix(1 0 0 1.0257799 0 -.721838)" width="21" x="-236" y="28"/>
      <rect fill="url(#linearGradient4208)" height="12" rx="2.818512" width="21" x="-236" y="28"/>
      <path d="m-108 47.1875v.28125c0 1.014809.73274 1.843751 1.625 1.84375h8.75c.892261 0 1.625-.828942 1.625-1.84375v-.28125c0 1.014807-.732739 1.8125-1.625 1.8125h-8.75c-.89226 0-1.625-.797691-1.625-1.8125z" fill="#919191" filter="url(#filter5756)" transform="matrix(1.749999 0 0 1.5386701 -47.00011 -36.624146)"/>
    </g>
    <g transform="matrix(.66781292 0 0 .74865782 242.57978 44.053687)">
      <rect fill="url(#linearGradient3758)" filter="url(#filter5305)" height="12" opacity=".461538" rx="2.827777" transform="matrix(1 0 0 1.0257799 0 -.721838)" width="21" x="-236" y="28"/>
      <rect fill="url(#linearGradient4208)" height="12" rx="2.818512" width="21" x="-236" y="28"/>
      <path d="m-108 47.1875v.28125c0 1.014809.73274 1.843751 1.625 1.84375h8.75c.892261 0 1.625-.828942 1.625-1.84375v-.28125c0 1.014807-.732739 1.8125-1.625 1.8125h-8.75c-.89226 0-1.625-.797691-1.625-1.8125z" fill="#919191" filter="url(#filter5756)" transform="matrix(1.749999 0 0 1.5386701 -47.00011 -36.624146)"/>
    </g>
    <g transform="matrix(.66781089 0 0 .74314716 183.57935 58.260191)">
      <rect fill="url(#linearGradient3758)" filter="url(#filter5305)" height="12" opacity=".461538" rx="2.827777" transform="matrix(1 0 0 1.0257799 0 -.721838)" width="21" x="-236" y="28"/>
      <rect fill="url(#linearGradient4208)" height="12" rx="2.818512" width="21" x="-236" y="28"/>
      <path d="m-108 47.1875v.28125c0 1.014809.73274 1.843751 1.625 1.84375h8.75c.892261 0 1.625-.828942 1.625-1.84375v-.28125c0 1.014807-.732739 1.8125-1.625 1.8125h-8.75c-.89226 0-1.625-.797691-1.625-1.8125z" fill="#919191" filter="url(#filter5756)" transform="matrix(1.749999 0 0 1.5386701 -47.00011 -36.624146)"/>
    </g>
    <g transform="matrix(.66232517 0 0 .73115105 200.39991 58.527771)">
      <rect fill="url(#linearGradient3758)" filter="url(#filter5305)" height="12" opacity=".461538" rx="2.827777" transform="matrix(1 0 0 1.0257799 0 -.721838)" width="21" x="-236" y="28"/>
      <rect fill="url(#linearGradient4208)" height="12" rx="2.818512" width="21" x="-236" y="28"/>
      <path d="m-108 47.1875v.28125c0 1.014809.73274 1.843751 1.625 1.84375h8.75c.892261 0 1.625-.828942 1.625-1.84375v-.28125c0 1.014807-.732739 1.8125-1.625 1.8125h-8.75c-.89226 0-1.625-.797691-1.625-1.8125z" fill="#919191" filter="url(#filter5756)" transform="matrix(1.749999 0 0 1.5386701 -47.00011 -36.624146)"/>
    </g>
    <g transform="matrix(.66607508 0 0 .75170548 219.20615 57.952247)">
      <rect fill="url(#linearGradient3758)" filter="url(#filter5305)" height="12" opacity=".461538" rx="2.827777" transform="matrix(1 0 0 1.0257799 0 -.721838)" width="21" x="-236" y="28"/>
      <rect fill="url(#linearGradient4208)" height="12" rx="2.818512" width="21" x="-236" y="28"/>
      <path d="m-108 47.1875v.28125c0 1.014809.73274 1.843751 1.625 1.84375h8.75c.892261 0 1.625-.828942 1.625-1.84375v-.28125c0 1.014807-.732739 1.8125-1.625 1.8125h-8.75c-.89226 0-1.625-.797691-1.625-1.8125z" fill="#919191" filter="url(#filter5756)" transform="matrix(1.749999 0 0 1.5386701 -47.00011 -36.624146)"/>
    </g>
    <g transform="matrix(.66666654 0 0 .74999991 242.33331 58.000004)">
      <rect fill="url(#linearGradient3758)" filter="url(#filter5305)" height="12" opacity=".461538" rx="2.827777" transform="matrix(1 0 0 1.0257799 0 -.721838)" width="21" x="-236" y="28"/>
      <rect fill="url(#linearGradient4208)" height="12" rx="2.818512" width="21" x="-236" y="28"/>
      <path d="m-108 47.1875v.28125c0 1.014809.73274 1.843751 1.625 1.84375h8.75c.892261 0 1.625-.828942 1.625-1.84375v-.28125c0 1.014807-.732739 1.8125-1.625 1.8125h-8.75c-.89226 0-1.625-.797691-1.625-1.8125z" fill="#919191" filter="url(#filter5756)" transform="matrix(1.749999 0 0 1.5386701 -47.00011 -36.624146)"/>
    </g>
    <g transform="matrix(.66666685 0 0 .73115105 183.33338 72.527771)">
      <rect fill="url(#linearGradient3758)" filter="url(#filter5305)" height="12" opacity=".461538" rx="2.827777" transform="matrix(1 0 0 1.0257799 0 -.721838)" width="21" x="-236" y="28"/>
      <rect fill="url(#linearGradient4208)" height="12" rx="2.818512" width="21" x="-236" y="28"/>
      <path d="m-108 47.1875v.28125c0 1.014809.73274 1.843751 1.625 1.84375h8.75c.892261 0 1.625-.828942 1.625-1.84375v-.28125c0 1.014807-.732739 1.8125-1.625 1.8125h-8.75c-.89226 0-1.625-.797691-1.625-1.8125z" fill="#919191" filter="url(#filter5756)" transform="matrix(1.749999 0 0 1.5386701 -47.00011 -36.624146)"/>
    </g>
    <g transform="matrix(.66513242 0 0 .74999991 201.00347 72.000004)">
      <rect fill="url(#linearGradient3758)" filter="url(#filter5305)" height="12" opacity=".461538" rx="2.827777" transform="matrix(1 0 0 1.0257799 0 -.721838)" width="21" x="-236" y="28"/>
      <rect fill="url(#linearGradient4208)" height="12" rx="2.818512" width="21" x="-236" y="28"/>
      <path d="m-108 47.1875v.28125c0 1.014809.73274 1.843751 1.625 1.84375h8.75c.892261 0 1.625-.828942 1.625-1.84375v-.28125c0 1.014807-.732739 1.8125-1.625 1.8125h-8.75c-.89226 0-1.625-.797691-1.625-1.8125z" fill="#919191" filter="url(#filter5756)" transform="matrix(1.749999 0 0 1.5386701 -47.00011 -36.624146)"/>
    </g>
    <g transform="matrix(.6645261 0 0 .74999999 218.87312 72)">
      <rect fill="url(#linearGradient3758)" filter="url(#filter5305)" height="12" opacity=".461538" rx="2.827777" transform="matrix(1 0 0 1.0257799 0 -.721838)" width="21" x="-236" y="28"/>
      <rect fill="url(#linearGradient4208)" height="12" rx="2.818512" width="21" x="-236" y="28"/>
      <path d="m-108 47.1875v.28125c0 1.014809.73274 1.843751 1.625 1.84375h8.75c.892261 0 1.625-.828942 1.625-1.84375v-.28125c0 1.014807-.732739 1.8125-1.625 1.8125h-8.75c-.89226 0-1.625-.797691-1.625-1.8125z" fill="#919191" filter="url(#filter5756)" transform="matrix(1.749999 0 0 1.5386701 -47.00011 -36.624146)"/>
    </g>
    <g transform="matrix(.64217054 0 0 .75564204 236.52817 72.16254)"/>
    <g transform="matrix(.66666679 0 0 .75170548 183.33336 85.952247)">
      <rect fill="url(#linearGradient3758)" filter="url(#filter5305)" height="12" opacity=".461538" rx="2.827777" transform="matrix(1 0 0 1.0257799 0 -.721838)" width="21" x="-236" y="28"/>
      <rect fill="url(#linearGradient4208)" height="12" rx="2.818512" width="21" x="-236" y="28"/>
      <path d="m-108 47.1875v.28125c0 1.014809.73274 1.843751 1.625 1.84375h8.75c.892261 0 1.625-.828942 1.625-1.84375v-.28125c0 1.014807-.732739 1.8125-1.625 1.8125h-8.75c-.89226 0-1.625-.797691-1.625-1.8125z" fill="#919191" filter="url(#filter5756)" transform="matrix(1.749999 0 0 1.5386701 -47.00011 -36.624146)"/>
    </g>
    <g transform="matrix(.66666685 0 0 .74999999 201.33338 86)">
      <rect fill="url(#linearGradient3758)" filter="url(#filter5305)" height="12" opacity=".461538" rx="2.827777" transform="matrix(1 0 0 1.0257799 0 -.721838)" width="21" x="-236" y="28"/>
      <rect fill="url(#linearGradient4208)" height="12" rx="2.818512" width="21" x="-236" y="28"/>
      <path d="m-108 47.1875v.28125c0 1.014809.73274 1.843751 1.625 1.84375h8.75c.892261 0 1.625-.828942 1.625-1.84375v-.28125c0 1.014807-.732739 1.8125-1.625 1.8125h-8.75c-.89226 0-1.625-.797691-1.625-1.8125z" fill="#919191" filter="url(#filter5756)" transform="matrix(1.749999 0 0 1.5386701 -47.00011 -36.624146)"/>
    </g>
    <g transform="matrix(.66666685 0 0 .74999991 219.33338 86.000004)">
      <rect fill="url(#linearGradient3758)" filter="url(#filter5305)" height="12" opacity=".461538" rx="2.827777" transform="matrix(1 0 0 1.0257799 0 -.721838)" width="21" x="-236" y="28"/>
      <rect fill="url(#linearGradient4208)" height="12" rx="2.818512" width="21" x="-236" y="28"/>
      <path d="m-108 47.1875v.28125c0 1.014809.73274 1.843751 1.625 1.84375h8.75c.892261 0 1.625-.828942 1.625-1.84375v-.28125c0 1.014807-.732739 1.8125-1.625 1.8125h-8.75c-.89226 0-1.625-.797691-1.625-1.8125z" fill="#919191" filter="url(#filter5756)" transform="matrix(1.749999 0 0 1.5386701 -47.00011 -36.624146)"/>
    </g>
    <g transform="matrix(.64217054 0 0 .75564204 236.52817 86.114746)">
      <rect fill="url(#linearGradient3758)" filter="url(#filter5305)" height="29.852545" opacity=".461538" rx="2.827777" transform="matrix(1 0 0 1.0257799 0 -.721838)" width="21" x="-236" y="10.147465"/>
      <rect filter="url(#filter4499)" height="30.312811" opacity=".594059" rx="2.818512" width="21" x="-236" y="9.687229"/>
      <rect fill="url(#linearGradient3760)" height="30.437693" rx="2.818512" width="21.801065" x="-235.96251" y="9.111794"/>
      <path d="m-108 47.1875v.28125c0 1.014809.73274 1.843751 1.625 1.84375h9.016952c.892261 0 1.625-.828942 1.625-1.84375v-.28125c0 1.014807-.732739 1.8125-1.625 1.8125h-9.016952c-.89226 0-1.625-.797691-1.625-1.8125z" fill="#fff" filter="url(#filter5756)" transform="matrix(1.749999 0 0 1.5386701 -47.00011 -36.624146)"/>
    </g>
    <text fill="#d6d6d6" font-family="Bitstream Vera Sans Mono" font-size="10.120169" transform="scale(1.0063887 .99365184)" x="29.793386" y="73.973328"><tspan x="29.793386" y="73.973328">7</tspan></text>
    <text fill="#d6d6d6" font-family="Bitstream Vera Sans Mono" font-size="9.993574" transform="scale(1.0154809 .98475508)" x="47.268242" y="74.471458"><tspan x="47.268242" y="74.471458">8</tspan></text>
    <text fill="#d6d6d6" font-family="Bitstream Vera Sans Mono" font-size="9.889358" transform="scale(1.0114338 .98869546)" x="65.262009" y="74.111053"><tspan x="65.262009" y="74.111053">9</tspan></text>
    <path d="m33.014915 81.234556-2.342311 3.810023h2.342311zm-.164111-.888522h1.163694v4.698545h.989639v.791943h-.989639v1.719091h-.999583v-1.719091h-3.147945v-.922324z" fill="#d6d6d6"/>
    <path d="m49.117555 80.058671h3.625697v.785345h-2.743252v1.695423c.137482-.04927.274962-.08468.412447-.106251.140675-.02463.281354-.03695.422038-.03695.741761.000004 1.330057.210969 1.76489.632896.434823.421933.652237.993232.652242 1.713901-.000005.726823-.22861 1.299668-.685813 1.718508-.454016.418854-1.075884.628266-1.865604.628266-.380476 0-.728978-.0246-1.045505-.07394-.313331-.04934-.594692-.123131-.844077-.221755v-.947032c.294147.153994.589895.269484.887241.346481.297342.07393.601083.110834.91122.110834.533938 0 .944788-.135577 1.232544-.406542.290947-.271015.436422-.655985.436426-1.15491-.000004-.492764-.150271-.876197-.450813-1.1503-.29735-.274099-.712992-.411148-1.246932-.411153-.258982.000005-.511565.02927-.757752.08777-.24619.05543-.481188.14013-.704997.254081v-3.464756" fill="#d6d6d6"/>
    <text fill="#d6d6d6" font-family="Bitstream Vera Sans Mono" font-size="10.011974" transform="scale(1.0146197 .98559095)" x="65.049004" y="88.608261"><tspan x="65.049004" y="88.608261">6</tspan></text>
    <path d="m31.448229 100h1.558864v-5.420857l-1.678015.361081v-.874194l1.668086-.351564h1.002836v6.285534h1v.80766h-3.551771z" fill="#d6d6d6"/>
    <text fill="#d6d6d6" font-family="Bitstream Vera Sans Mono" font-size="10.062075" transform="scale(1.0081391 .99192661)" x="47.612476" y="101.62286"><tspan x="47.612476" y="101.62286">2</tspan></text>
    <path d="m69.847017 97.488232c.475082.124204.838666.345338 1.090759.663627.25208.315105.378124.709764.378127 1.183991-.000003.655665-.224619 1.17127-.673845 1.54684-.446002.3724-1.064905.5586-1.856711.5586-.332886 0-.672232-.0302-1.018041-.0907-.345811-.0605-.685159-.14794-1.018039-.2626v-.95961c.329649.1687.654451.29442.974408.37717.319955.0828.638294.12405.95502.12405.536487 0 .948551-.1194 1.236192-.35805.287633-.23871.43145-.582457.431455-1.031223-.000005-.413763-.143828-.741588-.431455-.983493-.287641-.245073-.677081-.36761-1.168324-.36761h-.746563v-.792516h.746563c.449229 0 .799888-.09702 1.051976-.291226.252083-.194161.378125-.464691.37813-.81162-.000005-.366004-.117975-.6461-.35389-.840261-.2327-.197328-.56558-.295986-.99865-.296001-.28764.000015-.584971.03184-.891997.09552-.30703.06368-.628601.159152-.964714.286449v-.888003c.391054-.101826.738482-.178227 1.042278-.229154.307026-.05092.578504-.07645.814433-.07645.704546 0 1.26689.175057 1.687039.525155.42337.34693.635057.808436.635062 1.38452-.000005.39149-.111504.717738-.334496.978701-.219774.260994-.541345.445602-.964717.553811" fill="#d6d6d6"/>
    <text fill="#d6d6d6" font-family="Bitstream Vera Sans" font-size="9.789696" transform="scale(1.0432819 .95851371)" x="28.972256" y="119.81577"><tspan x="28.972256" y="119.81577">0</tspan></text>
    <g fill="#d6d6d6" transform="scale(1.0093012 .99078447)">
      <path d="m49.539226 114.05104h.990784v1.0093h-.990784z"/>
    </g>
    <path d="m66 113h6v1h-6zm0-3h6v1h-6z" fill="#d6d6d6"/>
    <path d="m93 101v3h3v1h-3v3h-1v-3h-3v-1h3v-3z" fill="#d6d6d6"/>
    <g fill="#d6d6d6" transform="scale(1.3056424 .76590648)">
      <path d="m68.931585 108.36832h3.829532v1.30564h-3.829532z"/>
    </g>
    <text fill="#d6d6d6" font-family="Bitstream Vera Sans Mono" font-size="9.393404" transform="scale(.94283094 1.0606355)" x="94.737907" y="68.141525"><tspan x="94.737907" y="68.141525">x</tspan></text>
    <path d="m29.18472 48.225492h1.183471l1.13087 2.839587 1.139639-2.839587h1.187855v5.578293h-.819664v-4.928177l-1.165936 2.940466h-.670633l-1.170322-2.940466v4.928177h-.81528z" fill="#d6d6d6"/>
    <path d="m36.987871 49.42858v1.658917h1.683965v.63517h-1.683965v1.658917h-.635744v-1.658917h-1.680181v-.63517h1.680181v-1.658917z" fill="#d6d6d6"/>
    <text fill="#d6d6d6" font-family="Bitstream Vera Sans Mono" font-size="8.501432" transform="scale(1.0056978 .99433449)" x="46.647022" y="54.295559"><tspan x="46.647022" y="54.295559">M-</tspan></text>
    <path d="m64.198085 48h1.177198l1.124878 3.054253 1.133601-3.054253h1.181558v6h-.81532v-5.300736l-1.159759 3.162759h-.667078l-1.164119-3.162759v5.300736h-.810959z" fill="#d6d6d6"/>
    <path d="m72.673066 53.671761c-.167996.09674-.341664.168742-.521004.21599-.177076.0495-.35869.07425-.544841.07425-.590247 0-1.052227-.175492-1.385941-.526475-.331446-.350984-.497168-.836961-.497167-1.457934-.000001-.620969.165721-1.106946.497167-1.457933.333714-.35098.795694-.526472 1.385941-.526476.183881.000004.363224.02362.53803.07087.1748.04725.350739.120373.527815.219365v.651344c-.165726-.146239-.332583-.251985-.500572-.317234-.165726-.06525-.35415-.09787-.565273-.09787-.392743.000003-.694675.125997-.905799.377982-.211128.251992-.316691.611975-.31669 1.079951-.000001.46573.105562.825713.31669 1.079951.213394.251988.515326.377983.905799.377983.217933 0 .413168-.03262.585704-.09787.172529-.0675.332577-.170991.480141-.310486v.644596" fill="#d6d6d6"/>
    <path d="m95 51v1h-5v-1z" fill="#d6d6d6"/>
    <path d="m90.861398 54.280586a.6661393.62173003 0 1 1 -1.332278 0 .6661393.62173003 0 1 1 1.332278 0z" fill="#d6d6d6" opacity=".841584" transform="matrix(1.1686732 0 0 1.1626838 -12.910633 -13.619365)"/>
    <path d="m90.861398 54.280586a.6661393.62173003 0 1 1 -1.332278 0 .6661393.62173003 0 1 1 1.332278 0z" fill="#d6d6d6" opacity=".79703" transform="matrix(1.1686732 0 0 1.1626838 -12.910641 -9.564087)"/>
    <rect height="68" rx="2.845482" style="fill:none;stroke:#1b1b1b;stroke-width:.147;stroke-linecap:square;clip-path:url(#clipPath4875);filter:url(#filter4913)" transform="matrix(1.634615 0 0 1.6911764 -383.63957 -79.941176)" width="52" x="246.93251" y="52"/>
    <rect height="68" rx="2.845482" style="fill:none;stroke-width:.247;stroke-linecap:square;clip-path:url(#clipPath4875);stroke:url(#linearGradient3764);filter:url(#filter4328)" transform="matrix(1.634615 0 0 1.6911764 -383.63957 -79.941176)" width="52" x="246.93251" y="52"/>
    <path d="m25.09904 8.5145714c-2.515477 0-4.587678 2.0923146-4.587678 4.6948366v1.650931c0-2.602522 2.072201-5.794835 4.587678-5.794835l74.851754-.065504c2.515466 0 4.537816 3.257817 4.537816 5.860339v-1.650931c0-2.602522-2.02235-4.6948366-4.537816-4.6948366z" fill="#fff"/>
    <rect clip-path="url(#clipPath4875)" fill="none" height="68" rx="2.845482" stroke="url(#linearGradient3764)" stroke-linecap="square" stroke-width=".247" transform="matrix(1.634615 0 0 1.6911764 -383.63957 -79.941176)" width="52" x="246.93251" y="52"/>
  </g>
</svg>