<?xml version="1.0" encoding="UTF-8" standalone="no"?>
<!-- Created with Inkscape (http://www.inkscape.org/) -->

<svg
   xmlns:dc="http://purl.org/dc/elements/1.1/"
   xmlns:cc="http://creativecommons.org/ns#"
   xmlns:rdf="http://www.w3.org/1999/02/22-rdf-syntax-ns#"
   xmlns:svg="http://www.w3.org/2000/svg"
   xmlns="http://www.w3.org/2000/svg"
   xmlns:xlink="http://www.w3.org/1999/xlink"
   xmlns:sodipodi="http://sodipodi.sourceforge.net/DTD/sodipodi-0.dtd"
   xmlns:inkscape="http://www.inkscape.org/namespaces/inkscape"
   height="128"
   width="128"
   version="1.1"
   id="svg104"
   sodipodi:docname="categoryadd.svg"
   inkscape:version="0.92.4 (5da689c313, 2019-01-14)">
  <metadata
     id="metadata108">
    <rdf:RDF>
      <cc:Work
         rdf:about="">
        <dc:format>image/svg+xml</dc:format>
        <dc:type
           rdf:resource="http://purl.org/dc/dcmitype/StillImage" />
      </cc:Work>
    </rdf:RDF>
  </metadata>
  <sodipodi:namedview
     pagecolor="#ffffff"
     bordercolor="#666666"
     borderopacity="1"
     objecttolerance="10"
     gridtolerance="10"
     guidetolerance="10"
     inkscape:pageopacity="0"
     inkscape:pageshadow="2"
     inkscape:window-width="1366"
     inkscape:window-height="744"
     id="namedview106"
     showgrid="false"
     inkscape:zoom="1.84375"
     inkscape:cx="8.6779661"
     inkscape:cy="64"
     inkscape:window-x="0"
     inkscape:window-y="0"
     inkscape:window-maximized="1"
     inkscape:current-layer="svg104" />
  <defs
     id="defs56">
    <linearGradient
       id="linearGradient12560">
      <stop
         offset="0"
         id="stop2" />
      <stop
         offset="1"
         stop-opacity="0"
         id="stop4" />
    </linearGradient>
    <linearGradient
       id="linearGradient11584">
      <stop
         offset="0"
         stop-color="#fff"
         id="stop7" />
      <stop
         offset="1"
         stop-color="#fff"
         stop-opacity="0"
         id="stop9" />
    </linearGradient>
    <linearGradient
       id="linearGradient2959"
       gradientUnits="userSpaceOnUse"
       x1="17.0464"
       x2="17.0464"
       y1="7.6074"
       y2="3.1118">
      <stop
         offset="0"
         stop-color="#eee"
         id="stop12" />
      <stop
         offset=".2909"
         stop-color="#cecece"
         id="stop14" />
      <stop
         offset=".85"
         stop-color="#888"
         id="stop16" />
      <stop
         offset="1"
         stop-color="#555"
         id="stop18" />
    </linearGradient>
    <linearGradient
       id="linearGradient2316">
      <stop
         offset="0"
         stop-color="#dd6a0e"
         id="stop21" />
      <stop
         offset="1"
         stop-color="#ffb66d"
         id="stop23" />
    </linearGradient>
    <radialGradient
       id="radialGradient10686"
       cx="63.912209"
       cy="115.70919"
       fx="42.094791"
       fy="115.7093"
       gradientTransform="matrix(1 0 0 .197802 0 92.82166)"
       gradientUnits="userSpaceOnUse"
       r="63.912209"
       xlink:href="#linearGradient12560" />
    <radialGradient
       id="radialGradient11644"
       cx="-52.250774"
       cy="128.00081"
       gradientTransform="matrix(1.844258 0 0 1.606667 44.38044 -98.18508)"
       gradientUnits="userSpaceOnUse"
       r="36.937431"
       spreadMethod="reflect">
      <stop
         offset="0"
         stop-color="#fff"
         id="stop27" />
      <stop
         offset=".42597079"
         stop-color="#fff"
         id="stop29" />
      <stop
         offset=".5892781"
         stop-color="#f1f1f1"
         id="stop31" />
      <stop
         offset=".80219781"
         stop-color="#eaeaea"
         id="stop33" />
      <stop
         offset="1"
         stop-color="#dfdfdf"
         id="stop35" />
    </radialGradient>
    <linearGradient
       id="linearGradient11646"
       gradientUnits="userSpaceOnUse"
       x1="33.8671956141"
       x2="76.30327958232"
       xlink:href="#linearGradient2316"
       y1="78.30833068458"
       y2="78.30833068458" />
    <linearGradient
       id="linearGradient11648"
       gradientUnits="userSpaceOnUse"
       x1="25.118709"
       x2="-35.713639"
       y1="60.783764"
       y2="112.020319">
      <stop
         offset="0"
         id="stop39" />
      <stop
         offset=".5"
         stop-color="#7f7f7f"
         stop-opacity=".33935"
         id="stop41" />
      <stop
         offset="1"
         stop-color="#fff"
         id="stop43" />
    </linearGradient>
    <linearGradient
       id="linearGradient11654"
       gradientUnits="userSpaceOnUse"
       x1="34.6641156141"
       x2="77.10019958232"
       xlink:href="#linearGradient2316"
       y1="79.10525068458"
       y2="79.10525068458" />
    <linearGradient
       id="linearGradient11656"
       gradientUnits="userSpaceOnUse"
       x1="96.582608"
       x2="96.542454"
       xlink:href="#linearGradient11584"
       y1="14.480095"
       y2="23.034377" />
    <linearGradient
       id="linearGradient11658"
       gradientTransform="matrix(.965789 0 0 .944211 3.248297 -.448682)"
       gradientUnits="userSpaceOnUse"
       x1="111.30237"
       x2="108.5625"
       xlink:href="#linearGradient2959"
       y1="-18.911451"
       y2="26.541067" />
    <linearGradient
       id="linearGradient11660"
       gradientUnits="userSpaceOnUse"
       x1="65.073738"
       x2="62.605522"
       xlink:href="#linearGradient11584"
       y1="53.097416"
       y2="102.24165" />
    <linearGradient
       id="linearGradient11662"
       gradientTransform="matrix(1 0 0 .989491 .144757 .128566)"
       gradientUnits="userSpaceOnUse"
       x1="112.14121"
       x2="108.5625"
       xlink:href="#linearGradient2959"
       y1=".229723"
       y2="41.496986" />
    <linearGradient
       id="linearGradient11664"
       gradientUnits="userSpaceOnUse"
       x1="236.57014"
       x2="2.61567"
       xlink:href="#linearGradient11584"
       y1="-50.274925"
       y2="111.73157" />
    <linearGradient
       id="linearGradient11666"
       gradientUnits="userSpaceOnUse"
       x1="95.915977"
       x2="32.102207"
       xlink:href="#linearGradient11584"
       y1="-33.667568"
       y2="129.69464" />
    <radialGradient
       id="radialGradient11668"
       cx="99.498825"
       cy="33.076019"
       fx="92.406448"
       fy="33.504173"
       gradientTransform="matrix(.381766 .111574 -.139672 .47791 70.02209 5.232857)"
       gradientUnits="userSpaceOnUse"
       r="17.845808"
       xlink:href="#linearGradient12560" />
    <linearGradient
       id="linearGradient12566"
       gradientUnits="userSpaceOnUse"
       x1="96.686058"
       x2="109.04183"
       xlink:href="#linearGradient12560"
       y1="28.999111"
       y2="41.42416" />
    <linearGradient
       id="linearGradient15192"
       gradientUnits="userSpaceOnUse"
       x1="32.6883566141"
       x2="75.12444058232"
       xlink:href="#linearGradient2316"
       y1="77.12949068458"
       y2="77.12949068458" />
    <linearGradient
       id="linearGradient6357"
       gradientTransform="translate(292,239.1304)"
       gradientUnits="userSpaceOnUse"
       x1="-13.757333"
       x2="-62.424866"
       xlink:href="#XMLID_4_"
       y1="76.708466"
       y2="104.80668" />
    <radialGradient
       id="XMLID_4_"
       cx="48"
       cy="-0.2148"
       gradientTransform="matrix(0.9792,0,0,0.9725,133.0002,20.8762)"
       gradientUnits="userSpaceOnUse"
       r="55.147999">
      <stop
         offset="0"
         stop-color="#72d13d"
         id="stop952" />
      <stop
         offset=".3553"
         stop-color="#35ac1c"
         id="stop954" />
      <stop
         offset=".6194"
         stop-color="#0f9508"
         id="stop956" />
      <stop
         offset=".7574"
         stop-color="#008c00"
         id="stop958" />
      <stop
         offset="1"
         stop-color="#007a00"
         id="stop960" />
    </radialGradient>
    <linearGradient
       id="linearGradient6359"
       gradientUnits="userSpaceOnUse"
       spreadMethod="reflect"
       x1="73.742638"
       x2="80"
       xlink:href="#linearGradient11584"
       y1="15.336544"
       y2="19.281664" />
    <filter
       id="filter3387"
       height="1.249912"
       width="1.2041399"
       x="-0.10207"
       y="-0.124956">
      <feGaussianBlur
         stdDeviation=".44655691"
         id="feGaussianBlur949" />
    </filter>
    <filter
       id="filter1737"
       height="1.249912"
       width="1.2041399"
       x="-0.10207"
       y="-0.124956">
      <feGaussianBlur
         stdDeviation=".44655691"
         id="feGaussianBlur1735" />
    </filter>
    <linearGradient
       id="linearGradient6363"
       gradientUnits="userSpaceOnUse"
       spreadMethod="reflect"
       x1="73.742638"
       x2="80"
       y1="15.336544"
       y2="19.281664">
      <stop
         offset="0"
         stop-color="#fff14d"
         id="stop1046" />
      <stop
         offset="1"
         stop-color="#f8ffa0"
         stop-opacity="0"
         id="stop1048" />
    </linearGradient>
    <filter
       id="filter1744"
       height="1.249912"
       width="1.2041399"
       x="-0.10207"
       y="-0.124956">
      <feGaussianBlur
         stdDeviation=".44655691"
         id="feGaussianBlur1742" />
    </filter>
    <linearGradient
       id="linearGradient6365"
       gradientTransform="scale(1.039383,0.9621093)"
       gradientUnits="userSpaceOnUse"
       x1="64.341988"
       x2="76.284439"
       y1="18.50366"
       y2="18.50366">
      <stop
         offset="0"
         stop-color="#fff"
         id="stop1051" />
      <stop
         offset="1"
         stop-color="#252525"
         stop-opacity="0"
         id="stop1053" />
    </linearGradient>
    <filter
       id="filter1751"
       height="1.249912"
       width="1.2041399"
       x="-0.10207"
       y="-0.124956">
      <feGaussianBlur
         stdDeviation=".44655691"
         id="feGaussianBlur1749" />
    </filter>
    <filter
       id="filter1763"
       height="1.249912"
       width="1.2041399"
       x="-0.10207"
       y="-0.124956">
      <feGaussianBlur
         stdDeviation=".44655691"
         id="feGaussianBlur1761" />
    </filter>
    <radialGradient
       id="radialGradient6369"
       cx="248"
       cy="323.1304"
       fx="232"
       fy="339.1304"
       gradientUnits="userSpaceOnUse"
       r="24">
      <stop
         offset="0"
         stop-opacity=".779026"
         id="stop1056" />
      <stop
         offset="1"
         stop-opacity="0"
         id="stop1058" />
    </radialGradient>
    <filter
       id="filter1778"
       height="1.249912"
       width="1.2041399"
       x="-0.10207"
       y="-0.124956">
      <feGaussianBlur
         stdDeviation=".44655691"
         id="feGaussianBlur1776" />
    </filter>
    <radialGradient
       id="radialGradient6373"
       cx="-44"
       cy="84"
       fx="-40"
       fy="96"
       gradientTransform="translate(292,239.1304)"
       gradientUnits="userSpaceOnUse"
       r="20"
       xlink:href="#XMLID_4_" />
    <radialGradient
       id="radialGradient1791"
       cx="48"
       cy="-0.2148"
       gradientTransform="matrix(0.9792,0,0,0.9725,133.0002,20.8762)"
       gradientUnits="userSpaceOnUse"
       r="55.147999">
      <stop
         offset="0"
         stop-color="#72d13d"
         id="stop1781" />
      <stop
         offset=".3553"
         stop-color="#35ac1c"
         id="stop1783" />
      <stop
         offset=".6194"
         stop-color="#0f9508"
         id="stop1785" />
      <stop
         offset=".7574"
         stop-color="#008c00"
         id="stop1787" />
      <stop
         offset="1"
         stop-color="#007a00"
         id="stop1789" />
    </radialGradient>
    <linearGradient
       id="linearGradient6375"
       gradientUnits="userSpaceOnUse"
       x1="240.99356"
       x2="240.99356"
       xlink:href="#linearGradient11584"
       y1="299.66971"
       y2="347.14081" />
    <linearGradient
       id="linearGradient6377"
       gradientUnits="userSpaceOnUse"
       x1="236"
       x2="240.98341"
       xlink:href="#linearGradient11584"
       y1="291.1304"
       y2="335.13184" />
    <linearGradient
       id="linearGradient6379"
       gradientUnits="userSpaceOnUse"
       x1="256"
       x2="244"
       xlink:href="#linearGradient11584"
       y1="335.1304"
       y2="311.1304" />
    <linearGradient
       id="linearGradient6381"
       gradientUnits="userSpaceOnUse"
       x1="227.74998"
       x2="268.25"
       xlink:href="#linearGradient11584"
       y1="323.1304"
       y2="323.1304" />
    <filter
       id="filter3191">
      <feGaussianBlur
         stdDeviation=".2025"
         id="feGaussianBlur963" />
    </filter>
    <linearGradient
       inkscape:collect="always"
       xlink:href="#linearGradient11584"
       id="linearGradient1992"
       gradientUnits="userSpaceOnUse"
       x1="73.742638"
       y1="15.336544"
       x2="80"
       y2="19.281664"
       spreadMethod="reflect" />
    <linearGradient
       inkscape:collect="always"
       xlink:href="#linearGradient11584"
       id="linearGradient1994"
       gradientUnits="userSpaceOnUse"
       x1="73.742638"
       y1="15.336544"
       x2="80"
       y2="19.281664"
       spreadMethod="reflect" />
    <linearGradient
       inkscape:collect="always"
       xlink:href="#linearGradient11584"
       id="linearGradient1996"
       gradientUnits="userSpaceOnUse"
       x1="73.742638"
       y1="15.336544"
       x2="80"
       y2="19.281664"
       spreadMethod="reflect" />
  </defs>
  <g
     id="g102">
    <path
       d="m50.892799 3.2812959v-2.79470843z"
       fill="#fff"
       fill-opacity=".756881"
       id="path58" />
    <path
       d="m127.82442 115.70919a63.912209 12.641975 0 1 1 -127.82442 0 63.912209 12.641975 0 1 1 127.82442 0z"
       fill="url(#radialGradient10686)"
       opacity=".381395"
       transform="matrix(1 0 0 .416667 .144757 74.63816)"
       id="path60" />
    <g
       transform="matrix(.99373 0 0 .99373 .00097 .76812)"
       id="g96">
      <path
         d="m65.957252 16.860398c-3.049556-.275801-6.186939.749438-8.53125 3.09375l-54.125 54.09375c-4.19508499 4.195085-4.19508509 10.961163 0 15.15625l30.15625 30.156252c4.195085 4.19509 10.961166 4.19508 15.15625 0l54.093758-54.125002c2.49083-2.490832 3.13273-5.870037 3.125-9.09375l-.0625-28.6875c0-5.932749-4.786-10.71875-10.718753-10.71875 0 0-28.607642.091921-29.093755.125zm28.843755 5.125c3.66262-.16143 6.156253 2.485447 6.156253 5.5625s-2.485453 5.5625-5.562503 5.5625c-3.07706.000001-5.59375-2.485447-5.59375-5.5625 0-2.884737 2.18203-5.438298 5-5.5625z"
         id="path62" />
      <rect
         fill="url(#radialGradient11644)"
         height="44.167801"
         rx="7.898235"
         transform="matrix(.707107 -.707107 .707107 .707107 0 0)"
         width="73.874908"
         x="-51.673248"
         y="64.655273"
         id="rect64" />
      <g
         fill="none"
         id="g76">
        <path
           d="m75.885718 57.507812-41.600979 41.600982"
           opacity=".356557"
           stroke="url(#linearGradient11646)"
           stroke-width="6.681"
           id="path66" />
        <rect
           height="44.167801"
           rx="7.898235"
           style="opacity:.229508;stroke-width:3.000001;stroke-linecap:round;stroke-linejoin:round;stroke-dashoffset:4;stroke:url(#linearGradient11648)"
           transform="matrix(.707107 -.707107 .707107 .707107 0 0)"
           width="73.874908"
           x="-51.673248"
           y="64.655273"
           id="rect68" />
        <rect
           height="44.167801"
           rx="7.898235"
           style="opacity:.229508;stroke-width:4.700001;stroke-linecap:round;stroke-linejoin:round;stroke-dashoffset:4;stroke:url(#linearGradient11648)"
           transform="matrix(.707107 -.707107 .707107 .707107 0 0)"
           width="73.874908"
           x="-51.673248"
           y="64.655273"
           id="rect70" />
        <rect
           height="44.167801"
           rx="7.898235"
           style="opacity:.229508;stroke-width:1.5;stroke-linecap:round;stroke-linejoin:round;stroke-dashoffset:4;stroke:url(#linearGradient11648)"
           transform="matrix(.707107 -.707107 .707107 .707107 0 0)"
           width="73.874908"
           x="-51.673248"
           y="64.655273"
           id="rect72" />
        <path
           d="m76.682637 58.304731-41.600979 41.600987"
           opacity=".356557"
           stroke="url(#linearGradient11654)"
           stroke-width="4.281"
           id="path74" />
      </g>
      <path
         d="m95.974287 17.823297c-10.492771 0-20.733943-.083866-31.226713-.083866-1.762073 0-4.255833.942555-5.871767 2.558489-1.660248 1.726659-3.404362 3.117855-5.064611 4.844513 2.414223-2.414222 7.212846-5.724904 11.093084-5.724904 7.421011 0 27.351047-.098302 31.070007-.031892 3.71177 0 7.055473 2.121104 8.954723 5.410703-.68877-1.943344-4.67334-6.973043-8.954723-6.973043z"
         fill="url(#linearGradient11656)"
         fill-rule="evenodd"
         id="path78" />
      <path
         d="m100.82818 26.326961c-1.890153-1.727837-3.415423-4.670514-3.415423-7.920927 0-3.533359 1.96775-6.823917 4.142823-9.4743797 2.17506-2.6504632 5.28768-4.1241296 7.58345-4.64867 2.29577-.5245403 5.79507-.1221965 7.97013 1.534343 2.17508 1.6565394 3.47363 4.2591447 3.47363 7.7925027 0 3.533359-2.02809 6.984823-4.20316 9.635286-2.17507 2.650461-5.98704 4.450271-8.28282 4.974812-.90522.206827-1.39525.258815-2.34919.16418v3.641114c.90698-.077361 1.37675-.178048 2.34919-.400232 5.41187-1.236508 9.82659-4.36931 12.70617-7.878262 2.87957-3.508952 4.52714-7.616269 4.52714-11.71412 0-4.0978497-1.64757-7.4555617-4.52714-9.6486567-2.22718-1.69622208-5.36254-2.77457075-9.175-2.59658065-1.11678.0521386-2.30504.2214659-3.53117.50161219-5.41185 1.23650756-9.856773 4.39881646-12.736353 7.90776816-2.87957 3.508952-4.49695 7.586762-4.49695 11.684613-.00001 4.09785 1.61738 7.485066 4.49695 9.678163.53992.411206 2.4878 1.271962 1.78068 1.091745-.00676-.001721 1.96319 1.251665 1.85535.684439 1.810883-.738325 2.208813-3.477697 1.831693-5.00875z"
         fill="url(#linearGradient11658)"
         id="path80" />
      <path
         d="m90.5625 16.75c-8.068686.027403-24.229165.100191-24.59375.125-3.049557-.2758-6.186939.749438-8.53125 3.09375l-49.59375 49.5625c11.529551 1.982326 27.892323 4.585247 51.125 7.96875 8.273982 1.204986 18.293655 2.036346 28.90625 2.59375l14.84375-14.84375c2.49083-2.490831 3.13273-5.870037 3.125-9.09375l-.0625-28.6875c0-5.932748-4.786-10.71875-10.71875-10.71875-.000001 0-1.810438-.009134-4.5 0zm4.3125 5.21875c3.6158-.116775 6.09375 2.540736 6.09375 5.59375 0 3.077054-2.48545 5.5625-5.5625 5.5625-3.077063.000002-5.59375-2.485447-5.59375-5.5625-.000003-2.884736 2.18203-5.438298 5-5.5625.028614-.001261.034029-.030331.0625-.03125z"
         fill="url(#linearGradient11660)"
         opacity=".110656"
         id="path82" />
      <path
         d="m97.375359 32.751517c2.10015-.773731 3.390351-2.538598 3.560031-4.734753-1.957113-1.810695-3.290633-4.723021-3.290633-8.129308-.00001-3.702801 2.03744-7.151156 4.289563-9.9287217 2.25211-2.7775654 5.47498-4.3219011 7.85207-4.8715958 2.3771-.5496945 6.00035-.1280564 8.25246 1.6079222 2.25212 1.7359783 3.59667 4.4633913 3.59667 8.1661903 0 3.702801-2.09993 7.319779-4.35205 10.097344-2.25211 2.777565-6.19911 4.663684-8.57621 5.213379-.93729.216746-1.96089.315625-2.94862.216451v3.815723c.93911-.081072 1.94173-.230984 2.94862-.463824 5.60357-1.295804 10.17467-4.578839 13.15625-8.256062 2.98157-3.677222 4.6875-7.981505 4.6875-12.275868 0-4.2943614-1.70593-7.8130918-4.6875-10.1113563-2.30607-1.7775641-5.5525-2.90762479-9.5-2.72109918-1.15634.05463882-2.38669.23208625-3.65625.52566685-5.60356 1.29580413-10.205933 4.60976093-13.187503 8.28698383-2.98158 3.6772228-4.65625 7.9505838-4.65625 12.2449458-.00001 4.294362 1.67467 7.844014 4.65625 10.142279.55904.430925 1.186172.832604 1.855602 1.175703z"
         fill="url(#linearGradient11662)"
         id="path84" />
      <path
         d="m87.21875 16.75c-8.50359.032629-20.930988.103292-21.25.125-3.049557-.2758-6.186939.749438-8.53125 3.09375l-49.59375 49.5625c6.512962 1.119802 14.566555 2.45529 24.53125 4 11.012521-17.30544 27.351155-37.289448 38.8125-46.875 4.644801-3.884621 11.982929-7.180912 20.34375-9.90625-.306904.000624-.632555-.001142-.96875 0-1.008586.003425-2.128951-.004661-3.34375 0zm18.375 8.6875c-1.5547.686392-3.10706 1.369523-4.625 2.0625.0003.023802 0 .038648 0 .0625 0 3.077054-2.48545 5.5625-5.5625 5.5625-1.334195.000001-2.567233-.469835-3.53125-1.25-6.682325 3.356446-12.081361 6.518861-14.59375 9.03125-8.240797 8.240798-15.526075 23.751079-20.6875 36.25.784476.114764 1.574287.227138 2.375.34375 8.273982 1.204986 18.293655 2.036346 28.90625 2.59375l14.84375-14.84375c2.49083-2.490831 3.13273-5.870037 3.125-9.09375l-.0625-28.6875c0-.695244-.06191-1.373359-.1875-2.03125z"
         fill="url(#linearGradient11664)"
         opacity=".20082"
         id="path86" />
      <path
         d="m100.93539 27.951048c-1.957113-1.829927-3.290633-4.773185-3.290633-8.21565-.00001-3.742128 1.49788-7.442934 3.750003-10.2499997 2.25211-2.8070662 4.93541-4.475717 7.3125-5.03125 2.3771-.5555328 5.02914-.1294165 7.28125 1.625 2.25212 1.7544162 3.8125 4.7266227 3.8125 8.4687497 0 3.742128-1.56038 7.505434-3.8125 10.3125-2.25211 2.807065-4.90415 4.413217-7.28125 4.96875-.93729.219048-1.91852.318977-2.90625.21875v4.15625c.93911-.081933 1.89936-.233437 2.90625-.46875 5.60357-1.309567 10.17467-4.627471 13.15625-8.34375 2.98157-3.716278 4.6875-8.066277 4.6875-12.40625 0-4.3399723-1.70593-7.8960753-4.6875-10.2187497-2.30607-1.79644362-5.5525-2.93850675-9.5-2.75000004-1.15634.05521916-2.38669.23455125-3.65625.53125001-5.60356 1.30956683-10.205933 4.65872133-13.187503 8.37500003-2.98158 3.7162787-4.65625 8.0350267-4.65625 12.3749997-.00001 4.339973 1.67467 7.927325 4.65625 10.25.55904.435502 1.17432.809507 1.84375 1.15625.00643.003334.0248-.003325.03125 0 2.0689-.781949 3.370953-2.53362 3.540633-4.7531z"
         fill="none"
         id="path88" />
      <path
         d="m87.21875 16.75c-8.50359.032629-20.930988.103292-21.25.125-3.049557-.2758-6.186939.749438-8.53125 3.09375l-49.59375 49.5625c6.512962 1.119802 51.882405-33.289448 63.34375-42.875 4.644801-3.884621 11.982929-7.180912 20.34375-9.90625-.306904.000624-.632555-.001142-.96875 0-1.008586.003425-2.128951-.004661-3.34375 0zm18.375 8.6875c-1.5547.686392-3.10706 1.369523-4.625 2.0625.0003.023802 0 .038648 0 .0625 0 3.077054-2.48545 5.5625-5.5625 5.5625-1.334195.000001-2.567233-.469835-3.53125-1.25-6.682325 3.356446-12.081361 6.518861-14.59375 9.03125-8.240797 8.240798-.018845 38.630096 10.59375 39.1875l14.84375-14.84375c2.49083-2.490831 3.13273-5.870037 3.125-9.09375l-.0625-28.6875c0-.695244-.06191-1.373359-.1875-2.03125z"
         fill="url(#linearGradient11666)"
         opacity=".143443"
         id="path90" />
      <path
         d="m90.96875 26.46875c.743967 2.297267 2.100743 4.216351 3.96875 5.65625.555536.428222 1.147267.846552 1.8125 1.1875 2.656083-.950513 4.01114-3.505137 3.46875-6.40625-.15257-.139467-.321073-.282994-.46875-.4375zm21.71875 0c-1.83753 1.211058-3.85538 2.017967-5.28125 2.34375-.89954.205529-1.36454.250292-2.3125.15625v1.96875 1.65625 2.1875c.93322-.080564 1.93692-.23737 2.9375-.46875 5.36542-1.24073 9.78487-4.350662 12.75-7.84375z"
         fill="url(#radialGradient11668)"
         opacity=".606557"
         transform="matrix(1.00631 0 0 1.00631 -.000976 -.772966)"
         id="path92" />
      <path
         d="m74.706878 56.328972-41.600979 41.600987"
         fill="none"
         opacity=".356557"
         stroke="url(#linearGradient15192)"
         stroke-width="10.016806"
         id="path94" />
    </g>
    <path
       d="m89.656712 30.354292c.49124 2.325735 2.588013 4.056766 5.131181 4.056767 2.543162 0 4.679407-1.731031 5.170643-4.056767-.854771 1.932015-2.866287 3.291339-5.170643 3.291339-2.30436 0-4.276402-1.359324-5.131181-3.291339z"
       fill="#c5c5c5"
       opacity=".536885"
       id="path98" />
    <path
       d="m100.18163 26.901091c1.15086 4.050666 3.65645 3.092196 4.93347 6.825449v2.355173c-4.56581-1.437505-6.222135-1.137689-8.429042-2.759676 2.139037-.83309 4.052592-2.587176 3.495572-6.420946z"
       fill="url(#linearGradient12566)"
       fill-rule="evenodd"
       opacity=".303279"
       id="path100" />
  </g>
  <g
     transform="matrix(1.2499997,0,0,1.2499997,-217.50948,-312.27822)"
     id="g1153">
    <path
       style="fill:url(#linearGradient6357)"
       inkscape:connector-curvature="0"
       d="m 246.0625,299.1304 c -3.31753,0 -6.0625,2.74498 -6.0625,6.0625 v 9.9375 h -9.9375 c -3.31753,0 -6.0625,2.74498 -6.0625,6.0625 v 3.875 c 0,3.31753 2.74497,6.0625 6.0625,6.0625 H 240 v 9.93751 c 0,3.31752 2.74497,6.0625 6.0625,6.0625 h 3.875 c 3.31752,0 6.0625,-2.74498 6.0625,-6.0625 v -9.93751 h 9.9375 c 3.31752,0 6.0625,-2.74497 6.0625,-6.0625 v -3.875 c 0,-3.31752 -2.74498,-6.0625 -6.0625,-6.0625 H 256 v -9.9375 c 0,-3.31752 -2.74498,-6.0625 -6.0625,-6.0625 z"
       id="path1125" />
    <g
       style="fill-rule:evenodd"
       id="g1137">
      <path
         style="fill:url(#linearGradient1992);filter:url(#filter3387)"
         inkscape:connector-curvature="0"
         d="m 69.875971,12.057888 c -1.077088,0.06528 -2.528221,0.219164 -3,0.9375 L 68.465655,24.133449 79,23.37409 V 22.90534 C 80.740958,20.33518 74.219552,11.998548 69.875971,12.057888 Z"
         transform="matrix(-0.4501623,0,0,0.4501623,276.66706,294.69233)"
         id="path1127" />
      <path
         style="fill:url(#linearGradient1994);filter:url(#filter3387)"
         inkscape:connector-curvature="0"
         d="m 69.875971,12.057888 c -1.077088,0.06528 -2.528221,0.219164 -3,0.9375 L 68.172686,21.789699 79,23.37409 V 22.90534 C 80.740958,20.33518 74.219552,11.998548 69.875971,12.057888 Z"
         transform="matrix(0.4500124,0,0,0.4500124,219.69859,294.65798)"
         id="path1129" />
      <path
         style="opacity:0.68164804;fill:url(#linearGradient6363);filter:url(#filter3387)"
         inkscape:connector-curvature="0"
         d="m 69.875971,12.057888 c -1.077088,0.06528 -2.528221,0.219164 -3,0.9375 L 69.051593,23.742824 79,23.37409 V 22.90534 C 80.740958,20.33518 74.219552,11.998548 69.875971,12.057888 Z"
         transform="matrix(-0.4455385,0,0,-0.4455385,276.35783,351.86612)"
         id="path1131" />
      <path
         style="opacity:0.70786498;fill:url(#linearGradient6365);filter:url(#filter3387)"
         inkscape:connector-curvature="0"
         d="m 69.875971,12.057888 c -1.077088,0.06528 -2.528221,0.219164 -3,0.9375 L 67.782061,23.547512 79,23.37409 V 22.90534 C 80.740958,20.33518 74.219552,11.998548 69.875971,12.057888 Z"
         transform="matrix(0.4261503,0,0,-0.4261503,221.2944,351.42021)"
         id="path1133" />
      <path
         style="opacity:0.550562;fill:url(#linearGradient1996);filter:url(#filter3387)"
         inkscape:connector-curvature="0"
         d="m 69.875971,12.057888 c -1.077088,0.06528 -2.528221,0.219164 -3,0.9375 L 68.465655,24.133449 79,23.37409 V 22.90534 C 80.740958,20.33518 74.219552,11.998548 69.875971,12.057888 Z"
         transform="matrix(0.4473002,0,0,0.4473002,235.87997,310.37344)"
         id="path1135" />
    </g>
    <path
       style="opacity:0.58052404;fill:url(#radialGradient6369)"
       inkscape:connector-curvature="0"
       d="m 246.0625,299.1304 c -3.31753,0 -6.0625,2.74498 -6.0625,6.0625 v 9.9375 h -9.9375 c -3.31753,0 -6.0625,2.74498 -6.0625,6.0625 v 3.875 c 0,3.31753 2.74497,6.0625 6.0625,6.0625 H 240 v 9.93751 c 0,3.31752 2.74497,6.0625 6.0625,6.0625 h 3.875 c 3.31752,0 6.0625,-2.74498 6.0625,-6.0625 v -9.93751 h 9.9375 c 3.31752,0 6.0625,-2.74497 6.0625,-6.0625 v -3.875 c 0,-3.31752 -2.74498,-6.0625 -6.0625,-6.0625 H 256 v -9.9375 c 0,-3.31752 -2.74498,-6.0625 -6.0625,-6.0625 z"
       id="path1139" />
    <path
       style="opacity:0.550562;fill:url(#linearGradient6359);fill-rule:evenodd;filter:url(#filter3387)"
       inkscape:connector-curvature="0"
       d="m 69.875971,12.057888 c -1.077088,0.06528 -2.528221,0.219164 -3,0.9375 L 68.465655,24.133449 79,23.37409 V 22.90534 C 80.740958,20.33518 74.219552,11.998548 69.875971,12.057888 Z"
       transform="matrix(-0.4531557,0,0,0.4531557,260.51161,310.23212)"
       id="path1141" />
    <path
       style="fill:url(#radialGradient6373)"
       inkscape:connector-curvature="0"
       d="m 246.0625,303.1304 c -1.13397,0 -2.0625,0.92853 -2.0625,2.0625 v 13.9375 h -13.9375 c -1.13397,0 -2.0625,0.92853 -2.0625,2.0625 v 3.875 c 0,1.13397 0.92853,2.0625 2.0625,2.0625 H 244 v 13.93751 c 0,1.13397 0.92853,2.0625 2.0625,2.0625 h 3.875 c 1.13397,0 2.0625,-0.92853 2.0625,-2.0625 V 327.1304 h 13.9375 c 1.13397,0 2.0625,-0.92853 2.0625,-2.0625 v -3.875 c 0,-1.13397 -0.92853,-2.0625 -2.0625,-2.0625 H 252 v -13.9375 c 0,-1.13397 -0.92853,-2.0625 -2.0625,-2.0625 z"
       id="path1143" />
    <path
       style="fill:url(#linearGradient6375)"
       inkscape:connector-curvature="0"
       d="m 246.0625,303.1304 c -1.13397,0 -2.0625,0.92853 -2.0625,2.0625 v 13.9375 h -13.9375 c -1.13397,0 -2.0625,0.92853 -2.0625,2.0625 v 3.875 c 0,0.1098 0.0457,0.20722 0.0625,0.3125 3.25768,0.46957 6.69134,0.75 10.25,0.75 11.50157,0 21.80584,-2.62983 28.59375,-6.75 -0.28924,-0.15515 -0.61935,-0.25 -0.96875,-0.25 H 252 v -13.9375 c 0,-1.13397 -0.92853,-2.0625 -2.0625,-2.0625 z"
       id="path1145" />
    <path
       style="fill:url(#linearGradient6377)"
       inkscape:connector-curvature="0"
       d="m 246.0625,303.1304 c -1.13397,0 -2.0625,0.92853 -2.0625,2.0625 v 1 c 0,-1.13397 1.32853,-2.6625 2.4625,-2.6625 h 3.875 c 0.28349,0 0.56599,0.0515 0.8125,0.15625 0.11026,0.24952 0.4875,1.12458 0.4875,1.4125 L 252,319.1304 l 0.0312,-13.9375 c 0,-0.57563 -0.24106,-1.09358 -0.625,-1.46875 -0.0878,-0.0878 -0.17903,-0.17902 -0.28125,-0.25 -0.008,-0.005 -0.0235,0.005 -0.0312,0 -0.10208,-0.0691 -0.19867,-0.13727 -0.3125,-0.1875 -0.009,-0.004 -0.0225,0.004 -0.0312,0 -0.1146,-0.0487 -0.25111,-0.0976 -0.375,-0.125 -0.0102,-0.002 -0.021,0.002 -0.0312,0 -0.12367,-0.0255 -0.24455,-0.0292 -0.375,-0.0312 h -0.0312 -0.46875 z m -16,16 c -1.13397,0 -2.0625,0.92853 -2.0625,2.0625 v 1 c 0,-1.13397 0.92853,-2.6625 2.0625,-2.6625 l 13.9375,-0.4 z m 21.9375,0 13.75977,0.51172 c -6.7592,3.6271 -17.82247,6.39454 -28.50977,6.39453 -1.77933,0 -3.53955,-0.0899 -5.25,-0.21875 2.06039,0.18692 4.17941,0.3125 6.34375,0.3125 10.77006,0 20.48375,-2.32371 27.25,-6 0.008,-0.004 0.0233,0.004 0.0312,0 0.44256,-0.24123 0.86462,-0.49711 1.28125,-0.75 -0.13631,-0.0731 -0.2853,-0.14478 -0.4375,-0.1875 -0.01,-0.003 -0.0212,0.003 -0.0312,0 -0.15237,-0.0405 -0.30537,-0.0598 -0.46875,-0.0625 h -0.0312 -0.46875 z"
       id="path1147" />
    <path
       style="fill:url(#linearGradient6379)"
       inkscape:connector-curvature="0"
       d="m 246.0625,303.1304 c -1.13397,0 -2.0625,0.92853 -2.0625,2.0625 v 1 c 0,-1.13397 1.32853,-2.6625 2.4625,-2.6625 h 3.875 c 0.28349,0 0.56599,0.0515 0.8125,0.15625 0.11026,0.24952 0.4875,1.12458 0.4875,1.4125 L 252,319.1304 l 0.0312,-13.9375 c 0,-0.57563 -0.24106,-1.09358 -0.625,-1.46875 -0.0878,-0.0878 -0.17903,-0.17902 -0.28125,-0.25 -0.008,-0.005 -0.0235,0.005 -0.0312,0 -0.10208,-0.0691 -0.19867,-0.13727 -0.3125,-0.1875 -0.009,-0.004 -0.0225,0.004 -0.0312,0 -0.1146,-0.0487 -0.25111,-0.0976 -0.375,-0.125 -0.0102,-0.002 -0.021,0.002 -0.0312,0 -0.12367,-0.0255 -0.24455,-0.0292 -0.375,-0.0312 h -0.0312 -0.46875 z m -16,16 c -1.13397,0 -2.0625,0.92853 -2.0625,2.0625 v 1 c 0,-1.13397 0.92853,-2.6625 2.0625,-2.6625 l 13.9375,-0.4 z m 21.9375,0 13.85742,0.51172 c -6.75919,3.6271 -17.92012,6.39454 -28.60742,6.39453 -1.77933,0 -3.53955,-0.0899 -5.25,-0.21875 2.06039,0.18692 4.17941,0.3125 6.34375,0.3125 10.77006,0 20.48375,-2.32371 27.25,-6 0.008,-0.004 0.0233,0.004 0.0312,0 0.44256,-0.24123 0.86462,-0.49711 1.28125,-0.75 -0.13631,-0.0731 -0.2853,-0.14478 -0.4375,-0.1875 -0.01,-0.003 -0.0212,0.003 -0.0312,0 -0.15237,-0.0405 -0.30537,-0.0598 -0.46875,-0.0625 h -0.0312 -0.46875 z"
       id="path1149" />
    <path
       inkscape:connector-curvature="0"
       d="m 246.0625,303.1304 c -1.13397,0 -2.0625,0.92853 -2.0625,2.0625 v 13.9375 h -13.9375 c -1.13397,0 -2.0625,0.92853 -2.0625,2.0625 v 3.875 c 0,1.13397 0.92853,2.0625 2.0625,2.0625 H 244 v 13.93751 c 0,1.13397 0.92853,2.0625 2.0625,2.0625 h 3.875 c 1.13397,0 2.0625,-0.92853 2.0625,-2.0625 V 327.1304 h 13.9375 c 1.13397,0 2.0625,-0.92853 2.0625,-2.0625 v -3.875 c 0,-1.13397 -0.92853,-2.0625 -2.0625,-2.0625 H 252 v -13.9375 c 0,-1.13397 -0.92853,-2.0625 -2.0625,-2.0625 z"
       style="fill:none;stroke:url(#linearGradient6381);stroke-width:0.5;stroke-linecap:round;stroke-linejoin:round;stroke-dashoffset:1.08780003;filter:url(#filter3191)"
       id="path1151" />
  </g>
</svg>
