<?xml version="1.0" encoding="UTF-8" standalone="no"?>
<!-- Created with Inkscape (http://www.inkscape.org/) -->

<svg
   xmlns:dc="http://purl.org/dc/elements/1.1/"
   xmlns:cc="http://creativecommons.org/ns#"
   xmlns:rdf="http://www.w3.org/1999/02/22-rdf-syntax-ns#"
   xmlns:svg="http://www.w3.org/2000/svg"
   xmlns="http://www.w3.org/2000/svg"
   xmlns:xlink="http://www.w3.org/1999/xlink"
   xmlns:sodipodi="http://sodipodi.sourceforge.net/DTD/sodipodi-0.dtd"
   xmlns:inkscape="http://www.inkscape.org/namespaces/inkscape"
   height="128"
   width="128"
   version="1.1"
   id="svg104"
   sodipodi:docname="categoryremove.svg"
   inkscape:version="0.92.4 (5da689c313, 2019-01-14)">
  <metadata
     id="metadata108">
    <rdf:RDF>
      <cc:Work
         rdf:about="">
        <dc:format>image/svg+xml</dc:format>
        <dc:type
           rdf:resource="http://purl.org/dc/dcmitype/StillImage" />
        <dc:title></dc:title>
      </cc:Work>
    </rdf:RDF>
  </metadata>
  <sodipodi:namedview
     pagecolor="#ffffff"
     bordercolor="#666666"
     borderopacity="1"
     objecttolerance="10"
     gridtolerance="10"
     guidetolerance="10"
     inkscape:pageopacity="0"
     inkscape:pageshadow="2"
     inkscape:window-width="1366"
     inkscape:window-height="744"
     id="namedview106"
     showgrid="false"
     inkscape:zoom="2.6074563"
     inkscape:cx="96.120087"
     inkscape:cy="88.154985"
     inkscape:window-x="0"
     inkscape:window-y="0"
     inkscape:window-maximized="1"
     inkscape:current-layer="g96" />
  <defs
     id="defs56">
    <linearGradient
       id="linearGradient12560">
      <stop
         offset="0"
         id="stop2" />
      <stop
         offset="1"
         stop-opacity="0"
         id="stop4" />
    </linearGradient>
    <linearGradient
       id="linearGradient11584">
      <stop
         offset="0"
         stop-color="#fff"
         id="stop7" />
      <stop
         offset="1"
         stop-color="#fff"
         stop-opacity="0"
         id="stop9" />
    </linearGradient>
    <linearGradient
       id="linearGradient2959"
       gradientUnits="userSpaceOnUse"
       x1="17.0464"
       x2="17.0464"
       y1="7.6074"
       y2="3.1118">
      <stop
         offset="0"
         stop-color="#eee"
         id="stop12" />
      <stop
         offset=".2909"
         stop-color="#cecece"
         id="stop14" />
      <stop
         offset=".85"
         stop-color="#888"
         id="stop16" />
      <stop
         offset="1"
         stop-color="#555"
         id="stop18" />
    </linearGradient>
    <linearGradient
       id="linearGradient2316">
      <stop
         offset="0"
         stop-color="#dd6a0e"
         id="stop21" />
      <stop
         offset="1"
         stop-color="#ffb66d"
         id="stop23" />
    </linearGradient>
    <radialGradient
       id="radialGradient10686"
       cx="63.912209"
       cy="115.70919"
       fx="42.094791"
       fy="115.7093"
       gradientTransform="matrix(1 0 0 .197802 0 92.82166)"
       gradientUnits="userSpaceOnUse"
       r="63.912209"
       xlink:href="#linearGradient12560" />
    <radialGradient
       id="radialGradient11644"
       cx="-52.250774"
       cy="128.00081"
       gradientTransform="matrix(1.844258 0 0 1.606667 44.38044 -98.18508)"
       gradientUnits="userSpaceOnUse"
       r="36.937431"
       spreadMethod="reflect">
      <stop
         offset="0"
         stop-color="#fff"
         id="stop27" />
      <stop
         offset=".42597079"
         stop-color="#fff"
         id="stop29" />
      <stop
         offset=".5892781"
         stop-color="#f1f1f1"
         id="stop31" />
      <stop
         offset=".80219781"
         stop-color="#eaeaea"
         id="stop33" />
      <stop
         offset="1"
         stop-color="#dfdfdf"
         id="stop35" />
    </radialGradient>
    <linearGradient
       id="linearGradient11646"
       gradientUnits="userSpaceOnUse"
       x1="33.8671956141"
       x2="76.30327958232"
       xlink:href="#linearGradient2316"
       y1="78.30833068458"
       y2="78.30833068458" />
    <linearGradient
       id="linearGradient11648"
       gradientUnits="userSpaceOnUse"
       x1="25.118709"
       x2="-35.713639"
       y1="60.783764"
       y2="112.020319">
      <stop
         offset="0"
         id="stop39" />
      <stop
         offset=".5"
         stop-color="#7f7f7f"
         stop-opacity=".33935"
         id="stop41" />
      <stop
         offset="1"
         stop-color="#fff"
         id="stop43" />
    </linearGradient>
    <linearGradient
       id="linearGradient11654"
       gradientUnits="userSpaceOnUse"
       x1="34.6641156141"
       x2="77.10019958232"
       xlink:href="#linearGradient2316"
       y1="79.10525068458"
       y2="79.10525068458" />
    <linearGradient
       id="linearGradient11656"
       gradientUnits="userSpaceOnUse"
       x1="96.582608"
       x2="96.542454"
       xlink:href="#linearGradient11584"
       y1="14.480095"
       y2="23.034377" />
    <linearGradient
       id="linearGradient11658"
       gradientTransform="matrix(.965789 0 0 .944211 3.248297 -.448682)"
       gradientUnits="userSpaceOnUse"
       x1="111.30237"
       x2="108.5625"
       xlink:href="#linearGradient2959"
       y1="-18.911451"
       y2="26.541067" />
    <linearGradient
       id="linearGradient11660"
       gradientUnits="userSpaceOnUse"
       x1="65.073738"
       x2="62.605522"
       xlink:href="#linearGradient11584"
       y1="53.097416"
       y2="102.24165" />
    <linearGradient
       id="linearGradient11662"
       gradientTransform="matrix(1 0 0 .989491 .144757 .128566)"
       gradientUnits="userSpaceOnUse"
       x1="112.14121"
       x2="108.5625"
       xlink:href="#linearGradient2959"
       y1=".229723"
       y2="41.496986" />
    <linearGradient
       id="linearGradient11664"
       gradientUnits="userSpaceOnUse"
       x1="236.57014"
       x2="2.61567"
       xlink:href="#linearGradient11584"
       y1="-50.274925"
       y2="111.73157" />
    <linearGradient
       id="linearGradient11666"
       gradientUnits="userSpaceOnUse"
       x1="95.915977"
       x2="32.102207"
       xlink:href="#linearGradient11584"
       y1="-33.667568"
       y2="129.69464" />
    <radialGradient
       id="radialGradient11668"
       cx="99.498825"
       cy="33.076019"
       fx="92.406448"
       fy="33.504173"
       gradientTransform="matrix(.381766 .111574 -.139672 .47791 70.02209 5.232857)"
       gradientUnits="userSpaceOnUse"
       r="17.845808"
       xlink:href="#linearGradient12560" />
    <linearGradient
       id="linearGradient12566"
       gradientUnits="userSpaceOnUse"
       x1="96.686058"
       x2="109.04183"
       xlink:href="#linearGradient12560"
       y1="28.999111"
       y2="41.42416" />
    <linearGradient
       id="linearGradient15192"
       gradientUnits="userSpaceOnUse"
       x1="32.6883566141"
       x2="75.12444058232"
       xlink:href="#linearGradient2316"
       y1="77.12949068458"
       y2="77.12949068458" />
    <linearGradient
       id="linearGradient6357"
       gradientTransform="translate(292,239.1304)"
       gradientUnits="userSpaceOnUse"
       x1="-13.757333"
       x2="-62.424866"
       xlink:href="#XMLID_4_"
       y1="76.708466"
       y2="104.80668" />
    <radialGradient
       id="XMLID_4_"
       cx="48"
       cy="-0.2148"
       gradientTransform="matrix(0.9792,0,0,0.9725,133.0002,20.8762)"
       gradientUnits="userSpaceOnUse"
       r="55.147999">
      <stop
         offset="0"
         stop-color="#72d13d"
         id="stop952" />
      <stop
         offset=".3553"
         stop-color="#35ac1c"
         id="stop954" />
      <stop
         offset=".6194"
         stop-color="#0f9508"
         id="stop956" />
      <stop
         offset=".7574"
         stop-color="#008c00"
         id="stop958" />
      <stop
         offset="1"
         stop-color="#007a00"
         id="stop960" />
    </radialGradient>
    <linearGradient
       id="linearGradient6359"
       gradientUnits="userSpaceOnUse"
       spreadMethod="reflect"
       x1="73.742638"
       x2="80"
       xlink:href="#linearGradient11584"
       y1="15.336544"
       y2="19.281664" />
    <filter
       id="filter3387"
       height="1.249912"
       width="1.2041399"
       x="-0.10207"
       y="-0.124956">
      <feGaussianBlur
         stdDeviation=".44655691"
         id="feGaussianBlur949" />
    </filter>
    <filter
       id="filter1737"
       height="1.249912"
       width="1.2041399"
       x="-0.10207"
       y="-0.124956">
      <feGaussianBlur
         stdDeviation=".44655691"
         id="feGaussianBlur1735" />
    </filter>
    <linearGradient
       id="linearGradient6363"
       gradientUnits="userSpaceOnUse"
       spreadMethod="reflect"
       x1="73.742638"
       x2="80"
       y1="15.336544"
       y2="19.281664">
      <stop
         offset="0"
         stop-color="#fff14d"
         id="stop1046" />
      <stop
         offset="1"
         stop-color="#f8ffa0"
         stop-opacity="0"
         id="stop1048" />
    </linearGradient>
    <filter
       id="filter1744"
       height="1.249912"
       width="1.2041399"
       x="-0.10207"
       y="-0.124956">
      <feGaussianBlur
         stdDeviation=".44655691"
         id="feGaussianBlur1742" />
    </filter>
    <linearGradient
       id="linearGradient6365"
       gradientTransform="scale(1.039383,0.9621093)"
       gradientUnits="userSpaceOnUse"
       x1="64.341988"
       x2="76.284439"
       y1="18.50366"
       y2="18.50366">
      <stop
         offset="0"
         stop-color="#fff"
         id="stop1051" />
      <stop
         offset="1"
         stop-color="#252525"
         stop-opacity="0"
         id="stop1053" />
    </linearGradient>
    <filter
       id="filter1751"
       height="1.249912"
       width="1.2041399"
       x="-0.10207"
       y="-0.124956">
      <feGaussianBlur
         stdDeviation=".44655691"
         id="feGaussianBlur1749" />
    </filter>
    <filter
       id="filter1763"
       height="1.249912"
       width="1.2041399"
       x="-0.10207"
       y="-0.124956">
      <feGaussianBlur
         stdDeviation=".44655691"
         id="feGaussianBlur1761" />
    </filter>
    <radialGradient
       id="radialGradient6369"
       cx="248"
       cy="323.1304"
       fx="232"
       fy="339.1304"
       gradientUnits="userSpaceOnUse"
       r="24">
      <stop
         offset="0"
         stop-opacity=".779026"
         id="stop1056" />
      <stop
         offset="1"
         stop-opacity="0"
         id="stop1058" />
    </radialGradient>
    <filter
       id="filter1778"
       height="1.249912"
       width="1.2041399"
       x="-0.10207"
       y="-0.124956">
      <feGaussianBlur
         stdDeviation=".44655691"
         id="feGaussianBlur1776" />
    </filter>
    <radialGradient
       id="radialGradient6373"
       cx="-44"
       cy="84"
       fx="-40"
       fy="96"
       gradientTransform="translate(292,239.1304)"
       gradientUnits="userSpaceOnUse"
       r="20"
       xlink:href="#XMLID_4_" />
    <radialGradient
       id="radialGradient1791"
       cx="48"
       cy="-0.2148"
       gradientTransform="matrix(0.9792,0,0,0.9725,133.0002,20.8762)"
       gradientUnits="userSpaceOnUse"
       r="55.147999">
      <stop
         offset="0"
         stop-color="#72d13d"
         id="stop1781" />
      <stop
         offset=".3553"
         stop-color="#35ac1c"
         id="stop1783" />
      <stop
         offset=".6194"
         stop-color="#0f9508"
         id="stop1785" />
      <stop
         offset=".7574"
         stop-color="#008c00"
         id="stop1787" />
      <stop
         offset="1"
         stop-color="#007a00"
         id="stop1789" />
    </radialGradient>
    <linearGradient
       id="linearGradient6375"
       gradientUnits="userSpaceOnUse"
       x1="240.99356"
       x2="240.99356"
       xlink:href="#linearGradient11584"
       y1="299.66971"
       y2="347.14081" />
    <linearGradient
       id="linearGradient6377"
       gradientUnits="userSpaceOnUse"
       x1="236"
       x2="240.98341"
       xlink:href="#linearGradient11584"
       y1="291.1304"
       y2="335.13184" />
    <linearGradient
       id="linearGradient6379"
       gradientUnits="userSpaceOnUse"
       x1="256"
       x2="244"
       xlink:href="#linearGradient11584"
       y1="335.1304"
       y2="311.1304" />
    <linearGradient
       id="linearGradient6381"
       gradientUnits="userSpaceOnUse"
       x1="227.74998"
       x2="268.25"
       xlink:href="#linearGradient11584"
       y1="323.1304"
       y2="323.1304" />
    <filter
       id="filter3191">
      <feGaussianBlur
         stdDeviation=".2025"
         id="feGaussianBlur963" />
    </filter>
    <linearGradient
       id="linearGradient5251"
       gradientTransform="matrix(0.5519938,-0.5519938,0.5519938,0.5519938,105.93193,76.396136)"
       gradientUnits="userSpaceOnUse"
       x1="58.743717"
       x2="58.743717"
       xlink:href="#linearGradient5826"
       y1="78.411346"
       y2="-15.688621" />
    <linearGradient
       id="linearGradient5826">
      <stop
         offset="0"
         stop-color="#810000"
         id="stop2065" />
      <stop
         offset="1"
         stop-color="#c50000"
         id="stop2067" />
    </linearGradient>
    <clipPath
       id="clipPath3559">
      <path
         inkscape:connector-curvature="0"
         d="m -64.510272,10.75 c -1.042316,0.0084 -2.040208,0.423209 -2.78125,1.15625 L -84.260272,28.875 c -1.561474,1.562119 -1.561474,4.094131 0,5.65625 L -58.822772,60 l -25.4375,25.46875 c -1.561474,1.562119 -1.561474,4.094131 0,5.65625 l 16.96875,16.96875 c 1.562119,1.56147 4.094131,1.56147 5.65625,0 l 25.46875,-25.4375 25.46875,25.4375 c 1.5621191,1.56147 4.0941311,1.56147 5.6562501,0 L 11.927228,91.125 c 1.56147,-1.562119 1.56147,-4.094131 0,-5.65625 L -13.510272,60 11.927228,34.53125 c 1.56147,-1.562119 1.56147,-4.094131 0,-5.65625 L -5.0415219,11.90625 c -1.562119,-1.561474 -4.094131,-1.561474 -5.6562501,0 l -25.46875,25.4375 -25.46875,-25.4375 c -0.764077,-0.756011 -1.800247,-1.172731 -2.875,-1.15625 z m 31.1875,63.40625 c -0.751409,-0.759464 -1.775386,-1.18681 -2.84375,-1.18681 -1.068364,0 -2.092341,0.427346 -2.84375,1.18681 z"
         id="path2053" />
    </clipPath>
    <filter
       id="filter3549"
       height="1.2960711"
       width="1.232837"
       x="-0.116419"
       y="-0.148036">
      <feGaussianBlur
         stdDeviation="2.5695681"
         id="feGaussianBlur2056" />
    </filter>
    <linearGradient
       id="linearGradient5253"
       gradientTransform="scale(1.0975951,0.9110828)"
       gradientUnits="userSpaceOnUse"
       x1="26.091133"
       x2="31.500689"
       xlink:href="#linearGradient11584"
       y1="14.856744"
       y2="14.856744" />
    <filter
       id="filter3477"
       height="1.277481"
       width="1.279832"
       x="-0.139916"
       y="-0.138741">
      <feGaussianBlur
         stdDeviation=".28784801"
         id="feGaussianBlur2059" />
    </filter>
    <linearGradient
       id="linearGradient3489">
      <stop
         offset="0"
         stop-color="#765c44"
         id="stop2036" />
      <stop
         offset="1"
         stop-color="#765c44"
         stop-opacity="0"
         id="stop2038" />
    </linearGradient>
    <filter
       id="filter2854"
       height="1.277481"
       width="1.279832"
       x="-0.139916"
       y="-0.138741">
      <feGaussianBlur
         stdDeviation=".28784801"
         id="feGaussianBlur2852" />
    </filter>
    <linearGradient
       id="linearGradient5257"
       gradientUnits="userSpaceOnUse"
       x1="304.88663"
       x2="345.62039"
       xlink:href="#linearGradient3489"
       y1="385.86127"
       y2="384.62384" />
    <filter
       id="filter2865"
       height="1.277481"
       width="1.279832"
       x="-0.139916"
       y="-0.138741">
      <feGaussianBlur
         stdDeviation=".28784801"
         id="feGaussianBlur2863" />
    </filter>
    <linearGradient
       id="linearGradient5259"
       gradientTransform="matrix(0.5519938,-0.5519938,0.5519938,0.5519938,105.93193,76.396136)"
       gradientUnits="userSpaceOnUse"
       x1="65.072342"
       x2="63.730301"
       xlink:href="#linearGradient5826"
       y1="18.368395"
       y2="80.272057" />
    <linearGradient
       id="linearGradient5261"
       gradientUnits="userSpaceOnUse"
       spreadMethod="reflect"
       x1="88.606247"
       x2="91.575104"
       xlink:href="#linearGradient3366"
       y1="13.510336"
       y2="13.510336" />
    <linearGradient
       id="linearGradient3366">
      <stop
         offset="0"
         stop-color="#ff8787"
         id="stop2070" />
      <stop
         offset="1"
         stop-color="#ff8787"
         stop-opacity="0"
         id="stop2072" />
    </linearGradient>
    <filter
       id="filter2880"
       height="1.277481"
       width="1.279832"
       x="-0.139916"
       y="-0.138741">
      <feGaussianBlur
         stdDeviation=".28784801"
         id="feGaussianBlur2878" />
    </filter>
    <linearGradient
       id="linearGradient5263"
       gradientUnits="userSpaceOnUse"
       x1="59.999996"
       x2="57.434441"
       y1="92.973083"
       y2="55.07938">
      <stop
         offset="0"
         stop-color="#fff5e4"
         id="stop2081" />
      <stop
         offset=".25"
         stop-color="#ffecd0"
         id="stop2083" />
      <stop
         offset=".5"
         stop-color="#ffd390"
         id="stop2085" />
      <stop
         offset="1"
         stop-color="#ffc46a"
         id="stop2087" />
    </linearGradient>
    <filter
       id="filter3354">
      <feGaussianBlur
         stdDeviation=".45754832"
         id="feGaussianBlur2062" />
    </filter>
    <radialGradient
       id="radialGradient5265"
       cx="-36.592777"
       cy="90.072952"
       gradientTransform="matrix(0.4576062,0,0,0.782313,-19.847694,18.82067)"
       gradientUnits="userSpaceOnUse"
       r="25.986174">
      <stop
         offset="0"
         id="stop2090" />
      <stop
         offset="1"
         stop-opacity="0"
         id="stop2092" />
    </radialGradient>
    <clipPath
       id="clipPath2894">
      <path
         inkscape:connector-curvature="0"
         d="m -64.510272,10.75 c -1.042316,0.0084 -2.040208,0.423209 -2.78125,1.15625 L -84.260272,28.875 c -1.561474,1.562119 -1.561474,4.094131 0,5.65625 L -58.822772,60 l -25.4375,25.46875 c -1.561474,1.562119 -1.561474,4.094131 0,5.65625 l 16.96875,16.96875 c 1.562119,1.56147 4.094131,1.56147 5.65625,0 l 25.46875,-25.4375 25.46875,25.4375 c 1.5621191,1.56147 4.0941311,1.56147 5.6562501,0 L 11.927228,91.125 c 1.56147,-1.562119 1.56147,-4.094131 0,-5.65625 L -13.510272,60 11.927228,34.53125 c 1.56147,-1.562119 1.56147,-4.094131 0,-5.65625 L -5.0415219,11.90625 c -1.562119,-1.561474 -4.094131,-1.561474 -5.6562501,0 l -25.46875,25.4375 -25.46875,-25.4375 c -0.764077,-0.756011 -1.800247,-1.172731 -2.875,-1.15625 z m 31.1875,63.40625 c -0.751409,-0.759464 -1.775386,-1.18681 -2.84375,-1.18681 -1.068364,0 -2.092341,0.427346 -2.84375,1.18681 z"
         id="path2892" />
    </clipPath>
    <filter
       id="filter2898"
       height="1.2960711"
       width="1.232837"
       x="-0.116419"
       y="-0.148036">
      <feGaussianBlur
         stdDeviation="2.5695681"
         id="feGaussianBlur2896" />
    </filter>
    <linearGradient
       id="linearGradient5267"
       gradientTransform="matrix(0.7825428,-0.7825428,0.389368,0.389368,105.93193,76.396136)"
       gradientUnits="userSpaceOnUse"
       x1="68.313011"
       x2="51.544849"
       y1="109.97649"
       y2="32.750854">
      <stop
         offset="0"
         stop-color="#f4f5f8"
         id="stop2095" />
      <stop
         offset="1"
         stop-color="#fdfdfe"
         id="stop2097" />
    </linearGradient>
    <linearGradient
       id="linearGradient5269"
       gradientTransform="matrix(0.5519938,-0.5519938,0.5519938,0.5519938,105.93193,76.396136)"
       gradientUnits="userSpaceOnUse"
       x1="47.264141"
       x2="47.264141"
       xlink:href="#linearGradient3366"
       y1="21.738457"
       y2="70.357269" />
    <linearGradient
       id="linearGradient5271"
       gradientTransform="matrix(0.5519938,-0.5519938,0.5519938,0.5519938,106.62882,77.079228)"
       gradientUnits="userSpaceOnUse"
       x1="63.174049"
       x2="63.174042"
       xlink:href="#linearGradient3207"
       y1="10.40386"
       y2="61.87199" />
    <linearGradient
       id="linearGradient3207">
      <stop
         offset="0"
         stop-color="#fff"
         id="stop2046" />
      <stop
         offset="1"
         stop-color="#252525"
         stop-opacity="0"
         id="stop2048" />
    </linearGradient>
    <linearGradient
       id="linearGradient5273"
       gradientUnits="userSpaceOnUse"
       spreadMethod="reflect"
       x1="31.606251"
       x2="34.575108"
       xlink:href="#linearGradient3207"
       y1="13.510336"
       y2="13.510336" />
    <filter
       id="filter2923"
       height="1.277481"
       width="1.279832"
       x="-0.139916"
       y="-0.138741">
      <feGaussianBlur
         stdDeviation=".28784801"
         id="feGaussianBlur2921" />
    </filter>
    <linearGradient
       id="linearGradient5275"
       gradientUnits="userSpaceOnUse"
       spreadMethod="reflect"
       x1="88.606247"
       x2="91.575104"
       xlink:href="#linearGradient3207"
       y1="13.510336"
       y2="13.510336" />
    <filter
       id="filter2934"
       height="1.277481"
       width="1.279832"
       x="-0.139916"
       y="-0.138741">
      <feGaussianBlur
         stdDeviation=".28784801"
         id="feGaussianBlur2932" />
    </filter>
    <linearGradient
       inkscape:collect="always"
       xlink:href="#linearGradient11584"
       id="linearGradient3115"
       gradientUnits="userSpaceOnUse"
       gradientTransform="scale(1.0975951,0.9110828)"
       x1="26.091133"
       y1="14.856744"
       x2="31.500689"
       y2="14.856744" />
    <linearGradient
       inkscape:collect="always"
       xlink:href="#linearGradient11648"
       id="linearGradient3117"
       gradientUnits="userSpaceOnUse"
       x1="25.118709"
       y1="60.783764"
       x2="-35.713639"
       y2="112.020319"
       gradientTransform="matrix(0.70267344,-0.70267344,0.70267344,0.70267344,9.7e-4,0.76812)" />
    <linearGradient
       inkscape:collect="always"
       xlink:href="#linearGradient11648"
       id="linearGradient3120"
       gradientUnits="userSpaceOnUse"
       gradientTransform="matrix(0.70267322,-0.70267322,0.70267322,0.70267322,9.6881793e-4,0.76812065)"
       x1="25.118709"
       y1="60.783764"
       x2="-35.713639"
       y2="112.020319" />
    <linearGradient
       inkscape:collect="always"
       xlink:href="#linearGradient11648"
       id="linearGradient3126"
       gradientUnits="userSpaceOnUse"
       gradientTransform="matrix(0.70267328,-0.70267328,0.70267328,0.70267328,9.6881801e-4,0.76812071)"
       x1="25.118709"
       y1="60.783764"
       x2="-35.713639"
       y2="112.020319" />
  </defs>
  <g
     id="g102"
     style="fill:#999999">
    <path
       d="m50.892799 3.2812959v-2.79470843z"
       fill="#fff"
       fill-opacity=".756881"
       id="path58"
       style="fill:#999999" />
    <path
       d="m127.82442 115.70919a63.912209 12.641975 0 1 1 -127.82442 0 63.912209 12.641975 0 1 1 127.82442 0z"
       fill="url(#radialGradient10686)"
       opacity=".381395"
       transform="matrix(1 0 0 .416667 .144757 74.63816)"
       id="path60"
       style="fill:#999999" />
    <g
       transform="matrix(.99373 0 0 .99373 .00097 .76812)"
       id="g96"
       style="fill:#999999">
      <path
         d="m65.957252 16.860398c-3.049556-.275801-6.186939.749438-8.53125 3.09375l-54.125 54.09375c-4.19508499 4.195085-4.19508509 10.961163 0 15.15625l30.15625 30.156252c4.195085 4.19509 10.961166 4.19508 15.15625 0l54.093758-54.125002c2.49083-2.490832 3.13273-5.870037 3.125-9.09375l-.0625-28.6875c0-5.932749-4.786-10.71875-10.718753-10.71875 0 0-28.607642.091921-29.093755.125zm28.843755 5.125c3.66262-.16143 6.156253 2.485447 6.156253 5.5625s-2.485453 5.5625-5.562503 5.5625c-3.07706.000001-5.59375-2.485447-5.59375-5.5625 0-2.884737 2.18203-5.438298 5-5.5625z"
         id="path62"
         style="fill:#999999" />
      <rect
         fill="url(#radialGradient11644)"
         height="44.167801"
         rx="7.898235"
         transform="matrix(.707107 -.707107 .707107 .707107 0 0)"
         width="73.874908"
         x="-51.673248"
         y="64.655273"
         id="rect64"
         style="fill:#999999" />
      <g
         fill="none"
         id="g76"
         style="fill:#999999">
        <path
           d="m75.885718 57.507812-41.600979 41.600982"
           opacity=".356557"
           stroke="url(#linearGradient11646)"
           stroke-width="6.681"
           id="path66"
           style="fill:#999999" />
        <rect
           height="44.167801"
           rx="7.898235"
           style="opacity:0.229508;stroke-width:3.000001;stroke-linecap:round;stroke-linejoin:round;stroke-dashoffset:4;stroke:url(#linearGradient11648);fill:#999999"
           transform="matrix(.707107 -.707107 .707107 .707107 0 0)"
           width="73.874908"
           x="-51.673248"
           y="64.655273"
           id="rect68" />
        <rect
           height="44.167801"
           rx="7.898235"
           style="opacity:0.229508;stroke-width:4.700001;stroke-linecap:round;stroke-linejoin:round;stroke-dashoffset:4;stroke:url(#linearGradient11648);fill:#999999"
           transform="matrix(.707107 -.707107 .707107 .707107 0 0)"
           width="73.874908"
           x="-51.673248"
           y="64.655273"
           id="rect70" />
        <path
           style="opacity:0.22950798;fill:#999999;stroke:url(#linearGradient3126);stroke-width:1.49059546;stroke-linecap:round;stroke-linejoin:round;stroke-dashoffset:4"
           d="M 61.033203 33.84375 C 59.026922 33.84375 57.019739 34.611115 55.482422 36.148438 L 14.673828 76.958984 C 11.599195 80.033618 11.599195 84.983959 14.673828 88.058594 L 34.609375 107.99414 C 37.684008 111.06877 42.634352 111.06877 45.708984 107.99414 L 86.519531 67.183594 C 89.594165 64.108959 89.594165 59.158619 86.519531 56.083984 L 66.582031 36.148438 C 65.044715 34.611115 63.039485 33.84375 61.033203 33.84375 z "
           transform="matrix(1.0063096,0,0,1.0063096,-9.7612027e-4,-0.7729665)"
           id="rect72" />
      </g>
      <path
         d="m95.974287 17.823297c-10.492771 0-20.733943-.083866-31.226713-.083866-1.762073 0-4.255833.942555-5.871767 2.558489-1.660248 1.726659-3.404362 3.117855-5.064611 4.844513 2.414223-2.414222 7.212846-5.724904 11.093084-5.724904 7.421011 0 27.351047-.098302 31.070007-.031892 3.71177 0 7.055473 2.121104 8.954723 5.410703-.68877-1.943344-4.67334-6.973043-8.954723-6.973043z"
         fill="url(#linearGradient11656)"
         fill-rule="evenodd"
         id="path78"
         style="fill:#999999" />
      <path
         d="m100.82818 26.326961c-1.890153-1.727837-3.415423-4.670514-3.415423-7.920927 0-3.533359 1.96775-6.823917 4.142823-9.4743797 2.17506-2.6504632 5.28768-4.1241296 7.58345-4.64867 2.29577-.5245403 5.79507-.1221965 7.97013 1.534343 2.17508 1.6565394 3.47363 4.2591447 3.47363 7.7925027 0 3.533359-2.02809 6.984823-4.20316 9.635286-2.17507 2.650461-5.98704 4.450271-8.28282 4.974812-.90522.206827-1.39525.258815-2.34919.16418v3.641114c.90698-.077361 1.37675-.178048 2.34919-.400232 5.41187-1.236508 9.82659-4.36931 12.70617-7.878262 2.87957-3.508952 4.52714-7.616269 4.52714-11.71412 0-4.0978497-1.64757-7.4555617-4.52714-9.6486567-2.22718-1.69622208-5.36254-2.77457075-9.175-2.59658065-1.11678.0521386-2.30504.2214659-3.53117.50161219-5.41185 1.23650756-9.856773 4.39881646-12.736353 7.90776816-2.87957 3.508952-4.49695 7.586762-4.49695 11.684613-.00001 4.09785 1.61738 7.485066 4.49695 9.678163.53992.411206 2.4878 1.271962 1.78068 1.091745-.00676-.001721 1.96319 1.251665 1.85535.684439 1.810883-.738325 2.208813-3.477697 1.831693-5.00875z"
         fill="url(#linearGradient11658)"
         id="path80"
         style="fill:#999999" />
      <path
         d="m90.5625 16.75c-8.068686.027403-24.229165.100191-24.59375.125-3.049557-.2758-6.186939.749438-8.53125 3.09375l-49.59375 49.5625c11.529551 1.982326 27.892323 4.585247 51.125 7.96875 8.273982 1.204986 18.293655 2.036346 28.90625 2.59375l14.84375-14.84375c2.49083-2.490831 3.13273-5.870037 3.125-9.09375l-.0625-28.6875c0-5.932748-4.786-10.71875-10.71875-10.71875-.000001 0-1.810438-.009134-4.5 0zm4.3125 5.21875c3.6158-.116775 6.09375 2.540736 6.09375 5.59375 0 3.077054-2.48545 5.5625-5.5625 5.5625-3.077063.000002-5.59375-2.485447-5.59375-5.5625-.000003-2.884736 2.18203-5.438298 5-5.5625.028614-.001261.034029-.030331.0625-.03125z"
         fill="url(#linearGradient11660)"
         opacity=".110656"
         id="path82"
         style="fill:#999999" />
      <path
         d="m97.375359 32.751517c2.10015-.773731 3.390351-2.538598 3.560031-4.734753-1.957113-1.810695-3.290633-4.723021-3.290633-8.129308-.00001-3.702801 2.03744-7.151156 4.289563-9.9287217 2.25211-2.7775654 5.47498-4.3219011 7.85207-4.8715958 2.3771-.5496945 6.00035-.1280564 8.25246 1.6079222 2.25212 1.7359783 3.59667 4.4633913 3.59667 8.1661903 0 3.702801-2.09993 7.319779-4.35205 10.097344-2.25211 2.777565-6.19911 4.663684-8.57621 5.213379-.93729.216746-1.96089.315625-2.94862.216451v3.815723c.93911-.081072 1.94173-.230984 2.94862-.463824 5.60357-1.295804 10.17467-4.578839 13.15625-8.256062 2.98157-3.677222 4.6875-7.981505 4.6875-12.275868 0-4.2943614-1.70593-7.8130918-4.6875-10.1113563-2.30607-1.7775641-5.5525-2.90762479-9.5-2.72109918-1.15634.05463882-2.38669.23208625-3.65625.52566685-5.60356 1.29580413-10.205933 4.60976093-13.187503 8.28698383-2.98158 3.6772228-4.65625 7.9505838-4.65625 12.2449458-.00001 4.294362 1.67467 7.844014 4.65625 10.142279.55904.430925 1.186172.832604 1.855602 1.175703z"
         fill="url(#linearGradient11662)"
         id="path84"
         style="fill:#999999" />
      <path
         d="m87.21875 16.75c-8.50359.032629-20.930988.103292-21.25.125-3.049557-.2758-6.186939.749438-8.53125 3.09375l-49.59375 49.5625c6.512962 1.119802 14.566555 2.45529 24.53125 4 11.012521-17.30544 27.351155-37.289448 38.8125-46.875 4.644801-3.884621 11.982929-7.180912 20.34375-9.90625-.306904.000624-.632555-.001142-.96875 0-1.008586.003425-2.128951-.004661-3.34375 0zm18.375 8.6875c-1.5547.686392-3.10706 1.369523-4.625 2.0625.0003.023802 0 .038648 0 .0625 0 3.077054-2.48545 5.5625-5.5625 5.5625-1.334195.000001-2.567233-.469835-3.53125-1.25-6.682325 3.356446-12.081361 6.518861-14.59375 9.03125-8.240797 8.240798-15.526075 23.751079-20.6875 36.25.784476.114764 1.574287.227138 2.375.34375 8.273982 1.204986 18.293655 2.036346 28.90625 2.59375l14.84375-14.84375c2.49083-2.490831 3.13273-5.870037 3.125-9.09375l-.0625-28.6875c0-.695244-.06191-1.373359-.1875-2.03125z"
         fill="url(#linearGradient11664)"
         opacity=".20082"
         id="path86"
         style="fill:#999999" />
      <path
         d="m100.93539 27.951048c-1.957113-1.829927-3.290633-4.773185-3.290633-8.21565-.00001-3.742128 1.49788-7.442934 3.750003-10.2499997 2.25211-2.8070662 4.93541-4.475717 7.3125-5.03125 2.3771-.5555328 5.02914-.1294165 7.28125 1.625 2.25212 1.7544162 3.8125 4.7266227 3.8125 8.4687497 0 3.742128-1.56038 7.505434-3.8125 10.3125-2.25211 2.807065-4.90415 4.413217-7.28125 4.96875-.93729.219048-1.91852.318977-2.90625.21875v4.15625c.93911-.081933 1.89936-.233437 2.90625-.46875 5.60357-1.309567 10.17467-4.627471 13.15625-8.34375 2.98157-3.716278 4.6875-8.066277 4.6875-12.40625 0-4.3399723-1.70593-7.8960753-4.6875-10.2187497-2.30607-1.79644362-5.5525-2.93850675-9.5-2.75000004-1.15634.05521916-2.38669.23455125-3.65625.53125001-5.60356 1.30956683-10.205933 4.65872133-13.187503 8.37500003-2.98158 3.7162787-4.65625 8.0350267-4.65625 12.3749997-.00001 4.339973 1.67467 7.927325 4.65625 10.25.55904.435502 1.17432.809507 1.84375 1.15625.00643.003334.0248-.003325.03125 0 2.0689-.781949 3.370953-2.53362 3.540633-4.7531z"
         fill="none"
         id="path88"
         style="fill:#999999" />
      <path
         d="m87.21875 16.75c-8.50359.032629-20.930988.103292-21.25.125-3.049557-.2758-6.186939.749438-8.53125 3.09375l-49.59375 49.5625c6.512962 1.119802 51.882405-33.289448 63.34375-42.875 4.644801-3.884621 11.982929-7.180912 20.34375-9.90625-.306904.000624-.632555-.001142-.96875 0-1.008586.003425-2.128951-.004661-3.34375 0zm18.375 8.6875c-1.5547.686392-3.10706 1.369523-4.625 2.0625.0003.023802 0 .038648 0 .0625 0 3.077054-2.48545 5.5625-5.5625 5.5625-1.334195.000001-2.567233-.469835-3.53125-1.25-6.682325 3.356446-12.081361 6.518861-14.59375 9.03125-8.240797 8.240798-.018845 38.630096 10.59375 39.1875l14.84375-14.84375c2.49083-2.490831 3.13273-5.870037 3.125-9.09375l-.0625-28.6875c0-.695244-.06191-1.373359-.1875-2.03125z"
         fill="url(#linearGradient11666)"
         opacity=".143443"
         id="path90"
         style="fill:#999999" />
      <path
         d="m90.96875 26.46875c.743967 2.297267 2.100743 4.216351 3.96875 5.65625.555536.428222 1.147267.846552 1.8125 1.1875 2.656083-.950513 4.01114-3.505137 3.46875-6.40625-.15257-.139467-.321073-.282994-.46875-.4375zm21.71875 0c-1.83753 1.211058-3.85538 2.017967-5.28125 2.34375-.89954.205529-1.36454.250292-2.3125.15625v1.96875 1.65625 2.1875c.93322-.080564 1.93692-.23737 2.9375-.46875 5.36542-1.24073 9.78487-4.350662 12.75-7.84375z"
         id="path92"
         style="fill:#999999"
         transform="matrix(1.00631 0 0 1.00631 -.000976 -.772966)"
         fill="url(#radialGradient11668)"
         opacity=".606557" />
    </g>
    <path
       d="m89.656712 30.354292c.49124 2.325735 2.588013 4.056766 5.131181 4.056767 2.543162 0 4.679407-1.731031 5.170643-4.056767-.854771 1.932015-2.866287 3.291339-5.170643 3.291339-2.30436 0-4.276402-1.359324-5.131181-3.291339z"
       fill="#c5c5c5"
       opacity=".536885"
       id="path98"
       style="fill:#999999" />
    <path
       d="m100.18163 26.901091c1.15086 4.050666 3.65645 3.092196 4.93347 6.825449v2.355173c-4.56581-1.437505-6.222135-1.137689-8.429042-2.759676 2.139037-.83309 4.052592-2.587176 3.495572-6.420946z"
       fill="url(#linearGradient12566)"
       fill-rule="evenodd"
       opacity=".303279"
       id="path100"
       style="fill:#999999" />
  </g>
  <g
     transform="matrix(0.5369491,0.5369491,-0.5369491,0.5369491,42.031297,-38.722242)"
     id="g2257">
    <path
       style="fill:url(#linearGradient5251)"
       inkscape:connector-curvature="0"
       d="m 129.33992,64.856016 c -0.57074,0.579963 -0.89258,1.359791 -0.89699,2.173475 v 18.73329 c 3.5e-4,1.724204 1.39801,3.121859 3.12221,3.122215 l 28.09994,0.01725 0.0173,28.099934 c 3.5e-4,1.7242 1.39801,3.12186 3.12221,3.12221 h 18.73329 c 1.7242,-3.5e-4 3.12186,-1.39801 3.12222,-3.12221 l 0.0172,-28.099934 28.09993,-0.01725 c 1.7242,-3.59e-4 3.12186,-1.398013 3.12221,-3.122215 v -18.73329 c -3.5e-4,-1.724202 -1.39801,-3.121856 -3.12221,-3.122215 l -28.09993,-0.01725 -0.0172,-28.099934 c -3.6e-4,-1.724202 -1.39802,-3.121857 -3.12222,-3.122215 h -18.73329 c -1.7242,3.56e-4 -3.12186,1.398011 -3.12221,3.122215 l -0.0173,28.099934 -28.09994,0.01725 c -0.83908,0.0045 -1.64106,0.346385 -2.22522,0.94874 z m 52.21516,17.78455 c -0.83399,-0.0044 -1.63511,0.32489 -2.22484,0.91462 -0.58973,0.589731 -0.91907,1.390852 -0.91462,2.224845 z"
       id="path2227" />
    <g
       style="fill-rule:evenodd"
       id="g2237">
      <path
         style="stroke:#000000;filter:url(#filter3549)"
         inkscape:connector-curvature="0"
         clip-path="url(#clipPath3559)"
         d="M -62.57895,106.7868 -36.415999,79.916739 -10.606602,106.43324 -36.415999,66.128157 Z"
         transform="matrix(0.5519938,-0.5519938,0.5519938,0.5519938,159.04481,23.283251)"
         id="path2229" />
      <path
         style="opacity:0.498127;fill:url(#linearGradient3115);filter:url(#filter3477)"
         inkscape:connector-curvature="0"
         d="m 31.7,16 2.875,-3.375 c -1.051205,-1.695758 -3.935136,-2.288018 -5.9375,-0.3125 l 2.8125,3.375 z"
         transform="matrix(1.0290495,1.0290495,-1.0290495,1.0290495,192.98125,21.797594)"
         id="path2231" />
      <path
         style="opacity:0.79026196;fill:url(#linearGradient5253);filter:url(#filter3477)"
         inkscape:connector-curvature="0"
         d="m 31.7,16 2.875,-3.375 c -1.051205,-1.695758 -3.935136,-2.288018 -5.9375,-0.3125 l 2.8125,3.375 z"
         transform="matrix(1.0162687,-1.0162687,-1.0162687,-1.0162687,162.35151,162.06868)"
         id="path2233" />
      <path
         style="opacity:0.498127;fill:url(#linearGradient5257);filter:url(#filter3477)"
         inkscape:connector-curvature="0"
         d="m 31.7,16 2.875,-3.375 c -1.051205,-1.695758 -3.935136,-2.288018 -5.9375,-0.3125 l 2.8125,3.375 z"
         transform="matrix(0.9318551,0.9318551,0.9318551,-0.9318551,121.67005,99.232803)"
         id="path2235" />
    </g>
    <path
       style="opacity:0.921348;fill:url(#linearGradient5259)"
       inkscape:connector-curvature="0"
       d="M 164.80354,37.803006 V 69.02849 h -31.22548 v 14.735292 h 31.22548 v 31.225488 l 14.73529,-1e-5 V 83.763782 l 31.22548,-3e-6 V 69.028493 l -31.22548,-3e-6 V 37.803009 Z"
       id="path2239" />
    <path
       style="opacity:0.79026196;fill:url(#linearGradient5261);fill-rule:evenodd;filter:url(#filter3477)"
       inkscape:connector-curvature="0"
       d="m 88.7,16 2.875,-3.375 c -1.051205,-1.695758 -3.935136,-2.288018 -5.9375,-0.3125 l 2.8125,3.375 z"
       transform="matrix(0.9318551,-0.9318551,-0.9318551,-0.9318551,142.5614,180.26404)"
       id="path2241" />
    <path
       inkscape:connector-curvature="0"
       d="M 88.284271,18.368396 60,46.652666 31.715729,18.368396 18.368396,31.715729 46.652666,60 18.368396,88.284271 31.715729,101.63161 60,73.347334 88.284271,101.63161 101.63161,88.284271 73.347334,60 101.63161,31.715729 Z"
       style="opacity:0.921348;fill:none;stroke:url(#linearGradient5263);stroke-linecap:round;stroke-linejoin:round;stroke-dashoffset:1.08780003;filter:url(#filter3354)"
       transform="matrix(0.5519938,-0.5519938,0.5519938,0.5519938,105.93193,76.396136)"
       id="path2243" />
    <path
       style="fill:url(#radialGradient5265);fill-rule:evenodd;filter:url(#filter3549)"
       inkscape:connector-curvature="0"
       clip-path="url(#clipPath3559)"
       d="M -62.57895,106.7868 -36.415999,79.916739 -10.606602,106.43324 -36.415999,66.128157 Z"
       transform="matrix(0.5519938,-0.5519938,-0.5519938,-0.5519938,225.02375,89.262187)"
       id="path2245" />
    <path
       style="fill:url(#linearGradient5267)"
       inkscape:connector-curvature="0"
       d="m 133.53418,69.001347 v 0.82799 13.905298 l 0.55199,-13.905298 30.71975,-0.79996 0.5024,-30.422189 12.38732,-2e-6 c 0.22599,0.334337 0.42458,0.679196 0.62099,1.034989 l 1.10399,14.525315 c -3.03496,9.069512 -8.49777,20.484758 -17.56128,29.567145 h 0.31049 c 0.26338,-0.257245 0.53177,-0.497263 0.7935,-0.758991 9.10018,-9.100181 13.48365,-17.231714 16.52629,-26.324182 V 38.814181 c -0.0905,-0.163947 -0.1821,-0.323654 -0.276,-0.482994 -0.10987,-0.186463 -0.22313,-0.371713 -0.34499,-0.551994 l -14.1123,4e-6 v 0.827991 l 0.0496,30.422189 z"
       id="path2247" />
    <path
       style="fill:url(#linearGradient5269)"
       inkscape:connector-curvature="0"
       d="M 133.58239,69.029492 V 83.76278 h 28.63566 c 0.26337,-0.257244 0.53176,-0.497264 0.79349,-0.758991 9.10018,-9.100184 13.48365,-17.231714 16.52629,-26.324182 l 10e-6,-17.837282 c -0.19641,-0.355797 -0.39501,-0.700651 -0.621,-1.034988 l -14.1123,5e-6 v 31.222149 z"
       id="path2249" />
    <path
       style="fill:url(#linearGradient5271)"
       inkscape:connector-curvature="0"
       d="m 133.53418,69.001347 v 0.82799 13.905298 l 0.55199,-13.905298 31.76477,0.237807 -1.04502,-1.037767 1.03886,1.027889 -0.53646,-31.450078 12.38732,-2e-6 c 0.22599,0.334337 0.42458,0.679196 0.62099,1.034989 l 1.10399,14.525315 c -3.03496,9.069512 -8.49777,20.484758 -17.56128,29.567145 h 0.31049 c 0.26338,-0.257245 0.53177,-0.497263 0.7935,-0.758991 9.10018,-9.100181 13.48365,-17.231714 16.52629,-26.324182 V 38.814181 c -0.0905,-0.163947 -0.1821,-0.323654 -0.276,-0.482994 -0.10987,-0.186463 -0.22313,-0.371713 -0.34499,-0.551994 l -14.1123,4e-6 v 0.827991 l 0.0496,30.422189 z"
       id="path2251" />
    <path
       style="opacity:0.79026196;fill:url(#linearGradient5273);fill-rule:evenodd;filter:url(#filter3477)"
       inkscape:connector-curvature="0"
       d="m 31.7,16 2.875,-3.375 c -1.051205,-1.695758 -3.935136,-2.288018 -5.9375,-0.3125 l 2.8125,3.375 z"
       transform="matrix(0.8474415,-0.8474415,0.8474415,0.8474415,93.833347,82.913071)"
       id="path2253" />
    <path
       style="opacity:0.79026196;fill:url(#linearGradient5275);fill-rule:evenodd;filter:url(#filter3477)"
       inkscape:connector-curvature="0"
       d="m 88.7,16 2.875,-3.375 c -1.051205,-1.695758 -3.935136,-2.288018 -5.9375,-0.3125 l 2.8125,3.375 z"
       transform="matrix(0.8700309,-0.8700309,0.8700309,0.8700309,74.780195,101.53946)"
       id="path2255" />
  </g>
</svg>
