<?xml version="1.0" encoding="UTF-8" standalone="no"?>
<!-- Created with Inkscape (http://www.inkscape.org/) -->

<svg
   version="1.1"
   id="svg73"
   width="315"
   height="315"
   viewBox="0 0 315 315"
   sodipodi:docname="duplicate.svg"
   inkscape:version="1.2.2 (b0a8486541, 2022-12-01)"
   xmlns:inkscape="http://www.inkscape.org/namespaces/inkscape"
   xmlns:sodipodi="http://sodipodi.sourceforge.net/DTD/sodipodi-0.dtd"
   xmlns="http://www.w3.org/2000/svg"
   xmlns:svg="http://www.w3.org/2000/svg">
  <defs
     id="defs77" />
  <sodipodi:namedview
     id="namedview75"
     pagecolor="#ffffff"
     bordercolor="#666666"
     borderopacity="1.0"
     inkscape:showpageshadow="2"
     inkscape:pageopacity="0.0"
     inkscape:pagecheckerboard="0"
     inkscape:deskcolor="#d1d1d1"
     showgrid="false"
     inkscape:zoom="1.8901077"
     inkscape:cx="11.110478"
     inkscape:cy="134.91295"
     inkscape:window-width="1920"
     inkscape:window-height="1051"
     inkscape:window-x="0"
     inkscape:window-y="0"
     inkscape:window-maximized="1"
     inkscape:current-layer="g79" />
  <g
     inkscape:groupmode="layer"
     inkscape:label="Image"
     id="g79">
    <rect
       style="fill:#ffffff;stroke:#ffffff"
       id="rect268"
       width="220.6362"
       height="193.88013"
       x="49.915096"
       y="59.749107" />
    <path
       style="fill:#ff0000"
       d="m 144.5,308.2836 c -7.59021,-0.54027 -26.90533,-4.99473 -37,-8.53295 C 98.337949,296.53932 81.334532,288.23972 75,283.88696 57.217226,271.66758 44.318773,258.80863 31.245629,240.2666 30.005725,238.50801 26.609099,232.4411 23.697571,226.78458 0.81901567,182.3361 0.81901567,131.6639 23.697571,87.215419 26.609099,81.5589 30.005725,75.49199 31.245629,73.733398 44.318773,55.19137 57.217226,42.332423 75,30.113036 87.36623,21.615614 109.9435,12.337194 126.58332,8.9142029 c 22.68828,-4.6672233 40.14508,-4.6672233 62.83336,0 C 206.0565,12.337194 228.63377,21.615614 241,30.113036 c 17.78277,12.219387 30.68123,25.078334 43.75437,43.620362 1.2399,1.758592 4.63653,7.825502 7.54806,13.482021 22.40548,43.529391 23.07584,93.613191 1.82888,136.639681 -27.85955,56.4174 -85.58298,88.98748 -149.63131,84.4285 z m 39.43054,-58.74768 c 1.55718,-0.80525 4.00983,-2.86477 5.45034,-4.57673 C 192,241.84655 192,241.84655 192,194.42327 192,147 192,147 180.75,146.99442 c -13.31057,-0.007 -17.55688,-1.00795 -22.43431,-5.29039 -5.92831,-5.20512 -7.26844,-9.42263 -7.29373,-22.95403 C 151,107 151,107 115.25,107.00155 c -39.878948,0.002 -40.43069,0.0863 -44.980067,6.89633 C 68,117.29577 68,117.29577 68,179 c 0,61.70423 0,61.70423 2.269933,65.10212 4.705953,7.04438 3.402135,6.89459 60.029727,6.89633 42.64771,0.001 51.25399,-0.2334 53.63088,-1.46253 z m 59.74821,-39.12787 c 1.55169,-1.15057 3.83815,-3.58615 5.08103,-5.4124 2.25979,-3.32045 2.25979,-3.32045 2,-49.90805 C 250.5,108.5 250.5,108.5 237,108 222.44255,107.46084 219.80226,106.66608 214.87219,101.33928 210.21492,96.307233 209.62032,94.137414 209.29863,81 208.99255,68.5 208.99255,68.5 173.24627,68.5 c -33.94778,0 -35.91711,0.100625 -39.14174,2 -6.59351,3.883713 -7.56659,6.282533 -7.93828,19.569424 C 125.8325,102 125.8325,102 142.13847,102 c 16.30597,0 16.30597,0 36.08375,19.77778 C 198,141.55556 198,141.55556 198,176.61111 c 0,19.28056 0.3375,35.39326 0.75,35.80601 0.4125,0.41275 10.05544,0.60025 21.42875,0.41667 19.12573,-0.30872 20.89063,-0.4909 23.5,-2.42574 z M 188.83333,140.25 C 188.65,139.8375 181.525,132.75 173,124.5 c -15.5,-15 -15.5,-15 -15.7868,-5.20162 -0.25104,8.57677 -0.0112,10.28872 1.92372,13.73144 3.4098,6.06693 8.22867,7.96843 20.19641,7.96939 5.40834,4.4e-4 9.68334,-0.33671 9.5,-0.74921 z m 44.23685,-53 c -8.45317,-8.1125 -15.98155,-14.896358 -16.72974,-15.07524 -2.08977,-0.499638 -0.68627,19.359671 1.63677,23.160149 3.43887,5.625961 6.36337,6.651251 18.99258,6.658501 C 248.43958,102 248.43958,102 233.07018,87.25 Z"
       id="path241" />
    <path
       style="fill:#800000"
       d="m 143.5,307.99475 c -3.85,-0.39158 -8.125,-1.19017 -9.5,-1.77466 -1.375,-0.58449 -14.75968,-13.36062 -29.74374,-28.3914 -27.243737,-27.32869 -27.243737,-27.32869 25,-27.06535 59.33431,0.29907 57.04552,0.58861 61.46882,-7.77596 2.27068,-4.29392 2.27492,-4.38727 2.27492,-50.02883 0,-45.72689 0,-45.72689 -13.25,-46.14984 -14.71986,-0.46986 -19.11959,-1.89394 -24.08578,-7.79591 -3.64463,-4.3314 -4.65225,-8.93033 -4.65864,-21.2628 C 151,107 151,107 141.45455,107 c -8.91821,0 -9.71436,-0.16891 -12.11587,-2.57041 -2.5704,-2.5704 -2.5704,-2.5704 13.54493,-2.25 16.11532,0.32041 16.11532,0.32041 35.36586,19.57258 19.25053,19.25216 19.25053,19.25216 19.53656,55.25 C 198.07207,213 198.07207,213 218.37875,213 c 19.19735,0 20.54169,-0.12428 24.60863,-2.27492 C 251.21391,206.37478 251,207.86873 251,154.7656 251,108 251,108 238.46788,108 c -16.71377,0 -21.9493,-2.20933 -26.5652,-11.210162 -1.53967,-3.002297 -1.90197,-5.864158 -1.89894,-15 C 210.00748,70.5 210.00748,70.5 212.19244,74 c 1.41692,2.269707 2.44246,6.05646 2.9175,10.772746 1.41784,14.076751 6.71744,18.216904 23.35195,18.243004 10.03811,0.0157 10.03811,0.0157 40.38436,30.21209 30.34626,30.19635 30.34626,30.19635 29.85141,37.73425 -0.66841,10.18188 -3.96371,25.43307 -7.87669,36.45459 -3.29205,9.27259 -12.0083,27.09392 -16.0666,32.84992 -10.2723,14.56951 -23.51982,28.78558 -34.25437,36.75879 -10.0186,7.44141 -12.60731,9.06427 -23,14.41866 -26.15934,13.47747 -56.13881,19.38439 -84,16.5507 z M 174.60628,125.74169 C 165.86473,117.35876 158.32723,110.35 157.85628,110.16667 157.38532,109.98333 157,114.52929 157,120.26878 c 0,9.17861 0.27099,10.83246 2.25,13.73173 3.87128,5.67146 7.71824,7.00062 20.2344,6.99118 11.0156,-0.008 11.0156,-0.008 -4.87812,-15.25 z"
       id="path243" />
  </g>
</svg>
