<?xml version="1.0" encoding="UTF-8" standalone="no"?>
<!-- Generator: Adobe Illustrator 12.0.0, SVG Export Plug-In . SVG Version: 6.00 Build 51448)  -->
<svg enable-background="new 0 0 128 128" height="128" viewBox="0 0 128 128" width="128" xmlns="http://www.w3.org/2000/svg" xmlns:xlink="http://www.w3.org/1999/xlink">
  <defs>
    <linearGradient id="linearGradient2291" gradientUnits="userSpaceOnUse" x1="88.591797" x2="71.262016" y1="96.592697" y2="79.262917">
      <stop offset="0" stop-color="#fff"/>
      <stop offset="1" stop-color="#555753"/>
    </linearGradient>
    <linearGradient id="linearGradient2295" gradientUnits="userSpaceOnUse" x1="85.219681" x2="61.336319" y1="93.219681" y2="69.336319">
      <stop offset="0"/>
      <stop offset="1" stop-color="#393b38"/>
    </linearGradient>
    <linearGradient id="linearGradient2297" gradientUnits="userSpaceOnUse" x1="96" x2="88.0002" y1="104" y2="96.0002">
      <stop offset="0" stop-color="#888a85"/>
      <stop offset=".0072" stop-color="#8c8e89"/>
      <stop offset=".0673" stop-color="#abaca9"/>
      <stop offset=".1347" stop-color="#c5c6c4"/>
      <stop offset=".2115" stop-color="#dbdbda"/>
      <stop offset=".3012" stop-color="#ebebeb"/>
      <stop offset=".4122" stop-color="#f7f7f6"/>
      <stop offset=".5679" stop-color="#fdfdfd"/>
      <stop offset="1" stop-color="#fff"/>
    </linearGradient>
    <radialGradient id="radialGradient2272" cx="102" cy="112.3047" gradientTransform="matrix(.94807 0 0 .9510679 -2.543629 5.160393)" gradientUnits="userSpaceOnUse" r="139.55859">
      <stop offset="0" stop-color="#535557"/>
      <stop offset=".11366145" stop-color="#898a8c"/>
      <stop offset=".20296688" stop-color="#ececec"/>
      <stop offset=".2363" stop-color="#fafafa"/>
      <stop offset=".2722" stop-color="#fff"/>
      <stop offset=".5313" stop-color="#fafafa"/>
      <stop offset=".8449" stop-color="#ebecec"/>
      <stop offset="1" stop-color="#e1e2e3"/>
    </radialGradient>
    <radialGradient id="radialGradient2275" cx="94.9426974" cy="112.82054125694" gradientUnits="userSpaceOnUse" r="135.1875556917">
      <stop offset="0" stop-color="#3e3e3e"/>
      <stop offset=".0151" stop-color="#505050"/>
      <stop offset=".0558" stop-color="#7e7e7e"/>
      <stop offset=".1357" stop-color="#c6c6c6"/>
      <stop offset=".20990001" stop-color="#f1f1f1"/>
      <stop offset=".24349999" stop-color="#fcfcfc"/>
      <stop offset=".2722" stop-color="#fff"/>
    </radialGradient>
    <filter id="filter3241">
      <feGaussianBlur stdDeviation="1.0394514"/>
    </filter>
    <filter id="filter3772">
      <feGaussianBlur stdDeviation=".50063244"/>
    </filter>
    <filter id="filter4107">
      <feGaussianBlur stdDeviation=".40750996"/>
    </filter>
    <filter id="filter4171">
      <feGaussianBlur stdDeviation=".4901192"/>
    </filter>
    <filter id="filter4209">
      <feGaussianBlur stdDeviation=".90565481"/>
    </filter>
    <filter id="filter3827">
      <feGaussianBlur stdDeviation="1.7999096"/>
    </filter>
    <filter id="filter3797">
      <feGaussianBlur stdDeviation=".89030997"/>
    </filter>
    <linearGradient id="linearGradient2686" gradientTransform="matrix(0 .8940438 -.8940438 0 125.34618 -10.056812)" gradientUnits="userSpaceOnUse" x1="63.998402" x2="63.998402" y1="2.012823" y2="74.721313">
      <stop offset="0" stop-color="#fefefe"/>
      <stop offset=".23920465" stop-color="#e9eaea"/>
      <stop offset="1" stop-color="#fdfdfd"/>
    </linearGradient>
    <linearGradient id="linearGradient2704" gradientTransform="matrix(0 -1.0293895 1.0293895 0 11.93834 80.22496)" gradientUnits="userSpaceOnUse" x1="64.129814" x2="5.126446" y1="56.231236" y2="56.231236">
      <stop offset="0"/>
      <stop offset=".56999999" stop-opacity=".588235"/>
      <stop offset=".74199998" stop-color="#3b3b3b" stop-opacity=".72"/>
      <stop offset="1" stop-color="#fff" stop-opacity="0"/>
    </linearGradient>
  </defs>
  <path d="m23 8.9687825.04082 114.0246875h61.131184c.53 0 1.039-.211 1.414-.586l32.828-32.828001c.375-.375.586-.884.586-1.414v-79.1966865h-96z" filter="url(#filter3241)" opacity=".553425" transform="matrix(1.0090419 0 0 1.003276 -13.509126 .815698)"/>
  <path d="m23 9 .04082 113.99347h61.131184c.53 0 1.039-.211 1.414-.586l32.828-32.828001c.375-.375.586-.884.586-1.414l-.000004-79.165469z" filter="url(#filter3241)" opacity=".306849" transform="matrix(1.0090419 0 0 1.003276 -13.509126 .815698)"/>
  <path d="m24.919999 10.931136v109.932054l58.676001-.0001c.53 0 1.039-.211 1.414-.586l31.484-31.765934c.375-.375.586-.884.586-1.414v-76.16602h-92.160001z" filter="url(#filter3772)" opacity=".89589" transform="matrix(1.0090419 0 0 1.003276 -13.509126 .815698)"/>
  <path d="m23 9.9655172.04082 113.0279528h61.131184c.53 0 1.039-.211 1.414-.586l32.828-32.828001c.375-.375.586-.884.586-1.414v-78.1999518h-96z" filter="url(#filter3241)" opacity=".306849" transform="matrix(1.0090419 0 0 1.003276 -13.509126 .815698)"/>
  <path d="m11.6362 11.782643v110.292187h59.256106c.513401 0 1.006458-.20439 1.369714-.56765l31.79983-31.799834c.36326-.363255.56764-.856313.56764-1.369714v-76.554989h-92.99329z" fill="url(#radialGradient2275)"/>
  <path d="m18.199707 17.398079c-.522387 0-.94807.42703-.94807.951069l.321923 96.737252c0 .525.425684.95108.94807.95108h52.099199c.249342 0 .493944-.10082.670284-.27867l27.523241-27.221662c.17729-.17785.27778-.422273.27778-.672405l-.2-69.493672c0-.524039-.42473-.951068-.94806-.951068l-79.744367-.02192z" fill="url(#radialGradient2272)"/>
  <g transform="matrix(1.1080161 0 0 1.1080161 -18.611933 -10.130735)">
    <path d="m111.414 86.586c.25-.25-26.379-1.586-31.414-1.586-1.654 0-3 1.346-3 3 0 5.035 1.336 31.664 1.586 31.414z" fill="url(#linearGradient2291)" filter="url(#filter4107)" opacity=".750685"/>
    <path d="m111.414 86.586c.375-.375-21.97-.586-31.414-.586-1.103 0-2 .897-2 2 0 9.444.211 31.789.586 31.414z" filter="url(#filter4209)" opacity=".2"/>
    <path d="m111.414 86.586c.239-.239-21.607.414-31.414.414-.553 0-1 .447-1 1 0 9.807-.653 31.653-.414 31.414z" fill="url(#linearGradient2295)" filter="url(#filter4171)" opacity=".1"/>
    <path d="m79.721619 119.31106 31.505501-31.505504h-31.505501z" fill="url(#linearGradient2297)"/>
  </g>
  <path d="m62.90625 4.1875c-.0748.016652-.36731.2329119-.75.59375a.98210487.98210487 0 0 1 -.4375.21875h-.03125l-34.59375 32.125h-.03125c-.404497.379746-.624992.530192-.625 1.40625 0 .889949.238972 1.012421.65625 1.40625a.98210487.98210487 0 0 1 0 .03125l8.15625 8.1875c.0031.0032.02809-.0032.03125 0 .775393.750006 1.716072.801364 2.5625.15625a.98210487.98210487 0 0 1 0-.03125l15.84375-12.65625a.98210487.98210487 0 0 1 1.59375.75l1 38.1875a.98210487.98210487 0 0 1 0 .03125c.0034.707102.08474 1.312746.21875 1.59375.134011.281004.133455.372189.71875.375h11.34375c1.25758-.006 1.962732-.711179 1.96875-1.96875a.98210487.98210487 0 0 1 0-.03125l1-38.1875a.98210487.98210487 0 0 1 1.59375-.75l15.84375 12.65625a.98210487.98210487 0 0 1 0 .03125c.0072.0055.02385-.0053.03125 0 .635246.459257 1.94339.382118 2.5-.15625.0032-.0032.02808.0032.03125 0l8.25-8.21875a.98210487.98210487 0 0 1 0-.03125c.47093-.444438.56251-.813037.5625-1.375 0-.504109-.1439-.952202-.625-1.40625l-34.96875-32.4375a.98210487.98210487 0 0 1 -.03125 0c-.263417-.2505838-.605715-.4178493-.96875-.4375a.98210487.98210487 0 0 1 -.15625 0c-.365007-.08515-.375087-.1320471-.6875-.0625z" fill="url(#linearGradient2704)" filter="url(#filter3797)" transform="matrix(0 .8940438 -.8940438 0 126.6914 -10.056812)"/>
  <path d="m62.875 3.15625c-.06032.008-.121049.047707-.1875.0625-.48362.1076597-.864129.5093782-1.21875.84375l-.09375-.09375-34.96875 32.4375c-.462378.436375-.93749.962612-.9375 2.125 0 1.162426.475217 1.688694.9375 2.125l8.15625 8.1875c.01038.01057.02069.02087.03125.03125 1.098694 1.062722 2.645963 1.131656 3.84375.21875.01056-.01038.02087-.02069.03125-.03125l15.84375-12.65625 1 38.1875c.0036.745803.0499 1.480613.3125 2.03125s.730849.902106 1.59375.90625h11.34375c1.723601-.0083 2.929252-1.213907 2.9375-2.9375l1-38.1875 15.84375 12.65625c.01038.01057.02069.02087.03125.03125 1.07779.821452 2.838425.723401 3.8125-.21875.01056-.01038.02087-.02069.03125-.03125l8.25-8.21875c.69025-.651426.84376-1.384911.84375-2.09375 0-.709628-.21613-1.473688-.90625-2.125l-35-32.4375c-.434842-.4136573-.99446-.6550611-1.59375-.6875-.23915-.0557895-.515227-.1809924-.9375-.125z" fill="url(#linearGradient2704)" filter="url(#filter3827)" opacity=".381188" transform="matrix(0 .8940438 -.8940438 0 126.6914 -10.056812)"/>
  <path d="m121.96318 46.883133-29.450212 31.29086c-.07097.07521-.169812.117822-.273219.117822-.103409 0-.202245-.04261-.273221-.117822l-7.362553-7.362557c-.129099-.13347-.141321-.341236-.02876-.488921l14.236189-17.802425h-39.71753c-.206076-.000985-.372892-.167802-.373878-.37388v-11.043832c.000986-.206077.167802-.372892.373878-.373878h39.71753l-14.236189-17.802427c-.112561-.147684-.100339-.355449.02876-.488919l7.362553-7.362554c.07098-.0752.169812-.11783.273221-.11783.103407 0 .202245.04263.273219.11783l29.450212 31.290855c.21147.149805 0 .360754 0 .517678z" fill="url(#linearGradient2686)"/>
  <path d="m122.05188 46.488136c-.01-.0433-.0506-.100484-.10345-.137935l-29.448877-31.276507c-.07098-.07521-.172461-.10345-.275869-.103452-.103408 0-.170407.02825-.241385.103452l-1.278171 2.000041 27.552292 29.276466c.21147.149805 0 .360328 0 .517254l-27.552292 29.310951 1.278171 2.000042c.07098.0752.137977.10344.241385.103447.103408 0 .204895-.02825.275869-.103447l29.448877-31.310993c0-.117695.13319-.249435.10345-.379319z" fill="#fff"/>
</svg>
