<?xml version="1.0" encoding="UTF-8" standalone="no"?>
<!-- Generator: Adobe Illustrator 12.0.0, SVG Export Plug-In . SVG Version: 6.00 Build 51448)  -->

<svg
   enable-background="new 0 0 128 128"
   height="128"
   viewBox="0 0 128 128"
   width="128"
   version="1.1"
   id="svg132"
   sodipodi:docname="new.svg"
   inkscape:version="1.2.2 (b0a8486541, 2022-12-01)"
   xmlns:inkscape="http://www.inkscape.org/namespaces/inkscape"
   xmlns:sodipodi="http://sodipodi.sourceforge.net/DTD/sodipodi-0.dtd"
   xmlns="http://www.w3.org/2000/svg"
   xmlns:svg="http://www.w3.org/2000/svg">
  <sodipodi:namedview
     id="namedview134"
     pagecolor="#ffffff"
     bordercolor="#666666"
     borderopacity="1.0"
     inkscape:showpageshadow="2"
     inkscape:pageopacity="0.0"
     inkscape:pagecheckerboard="0"
     inkscape:deskcolor="#d1d1d1"
     showgrid="false"
     inkscape:zoom="6.8046875"
     inkscape:cx="63.926521"
     inkscape:cy="64.073479"
     inkscape:window-width="1920"
     inkscape:window-height="1051"
     inkscape:window-x="0"
     inkscape:window-y="0"
     inkscape:window-maximized="1"
     inkscape:current-layer="svg132" />
  <defs
     id="defs100">
    <linearGradient
       id="linearGradient2291"
       gradientUnits="userSpaceOnUse"
       x1="88.591797"
       x2="71.262016"
       y1="96.592697"
       y2="79.262917">
      <stop
         offset="0"
         stop-color="#fff"
         id="stop2" />
      <stop
         offset="1"
         stop-color="#555753"
         id="stop4" />
    </linearGradient>
    <linearGradient
       id="linearGradient2295"
       gradientUnits="userSpaceOnUse"
       x1="85.219681"
       x2="61.336319"
       y1="93.219681"
       y2="69.336319">
      <stop
         offset="0"
         id="stop7" />
      <stop
         offset="1"
         stop-color="#393b38"
         id="stop9" />
    </linearGradient>
    <linearGradient
       id="linearGradient2297"
       gradientUnits="userSpaceOnUse"
       x1="96"
       x2="88.0002"
       y1="104"
       y2="96.0002">
      <stop
         offset="0"
         stop-color="#888a85"
         id="stop12" />
      <stop
         offset=".0072"
         stop-color="#8c8e89"
         id="stop14" />
      <stop
         offset=".0673"
         stop-color="#abaca9"
         id="stop16" />
      <stop
         offset=".1347"
         stop-color="#c5c6c4"
         id="stop18" />
      <stop
         offset=".2115"
         stop-color="#dbdbda"
         id="stop20" />
      <stop
         offset=".3012"
         stop-color="#ebebeb"
         id="stop22" />
      <stop
         offset=".4122"
         stop-color="#f7f7f6"
         id="stop24" />
      <stop
         offset=".5679"
         stop-color="#fdfdfd"
         id="stop26" />
      <stop
         offset="1"
         stop-color="#fff"
         id="stop28" />
    </linearGradient>
    <radialGradient
       id="radialGradient2272"
       cx="102"
       cy="112.3047"
       gradientTransform="matrix(.94807 0 0 .9510679 -2.543629 5.160393)"
       gradientUnits="userSpaceOnUse"
       r="139.55859">
      <stop
         offset="0"
         stop-color="#535557"
         id="stop31" />
      <stop
         offset=".11366145"
         stop-color="#898a8c"
         id="stop33" />
      <stop
         offset=".20296688"
         stop-color="#ececec"
         id="stop35" />
      <stop
         offset=".2363"
         stop-color="#fafafa"
         id="stop37" />
      <stop
         offset=".2722"
         stop-color="#fff"
         id="stop39" />
      <stop
         offset=".5313"
         stop-color="#fafafa"
         id="stop41" />
      <stop
         offset=".8449"
         stop-color="#ebecec"
         id="stop43" />
      <stop
         offset="1"
         stop-color="#e1e2e3"
         id="stop45" />
    </radialGradient>
    <radialGradient
       id="radialGradient2275"
       cx="94.9426974"
       cy="112.82054125694"
       gradientUnits="userSpaceOnUse"
       r="135.1875556917">
      <stop
         offset="0"
         stop-color="#3e3e3e"
         id="stop48" />
      <stop
         offset=".0151"
         stop-color="#505050"
         id="stop50" />
      <stop
         offset=".0558"
         stop-color="#7e7e7e"
         id="stop52" />
      <stop
         offset=".1357"
         stop-color="#c6c6c6"
         id="stop54" />
      <stop
         offset=".20990001"
         stop-color="#f1f1f1"
         id="stop56" />
      <stop
         offset=".24349999"
         stop-color="#fcfcfc"
         id="stop58" />
      <stop
         offset=".2722"
         stop-color="#fff"
         id="stop60" />
    </radialGradient>
    <filter
       id="filter3241"
       x="-0.025986283"
       y="-0.022071383"
       width="1.0519726"
       height="1.0441428">
      <feGaussianBlur
         stdDeviation="1.0394514"
         id="feGaussianBlur63" />
    </filter>
    <filter
       id="filter3772"
       x="-0.013037304"
       y="-0.010929641"
       width="1.0260746"
       height="1.0218593">
      <feGaussianBlur
         stdDeviation=".50063244"
         id="feGaussianBlur66" />
    </filter>
    <filter
       id="filter4107"
       x="-0.028417917"
       y="-0.028417917"
       width="1.0568358"
       height="1.0568358">
      <feGaussianBlur
         stdDeviation=".40750996"
         id="feGaussianBlur69" />
    </filter>
    <filter
       id="filter4171"
       x="-0.035772357"
       y="-0.035772357"
       width="1.0715447"
       height="1.0715447">
      <feGaussianBlur
         stdDeviation=".4901192"
         id="feGaussianBlur72" />
    </filter>
    <filter
       id="filter4209"
       x="-0.065040649"
       y="-0.065040649"
       width="1.1300813"
       height="1.1300813">
      <feGaussianBlur
         stdDeviation=".90565481"
         id="feGaussianBlur75" />
    </filter>
    <filter
       id="filter3827"
       x="-0.056956348"
       y="-0.058070113"
       width="1.1139127"
       height="1.1161402">
      <feGaussianBlur
         stdDeviation="1.7999096"
         id="feGaussianBlur78" />
    </filter>
    <filter
       id="filter3797"
       x="-0.028911546"
       y="-0.02950952"
       width="1.0578231"
       height="1.059019">
      <feGaussianBlur
         stdDeviation=".89030997"
         id="feGaussianBlur81" />
    </filter>
    <linearGradient
       id="linearGradient2686"
       gradientTransform="matrix(0 .8940438 -.8940438 0 125.34618 -10.056812)"
       gradientUnits="userSpaceOnUse"
       x1="63.998402"
       x2="63.998402"
       y1="2.012823"
       y2="74.721313">
      <stop
         offset="0"
         stop-color="#fefefe"
         id="stop84" />
      <stop
         offset=".23920465"
         stop-color="#e9eaea"
         id="stop86" />
      <stop
         offset="1"
         stop-color="#fdfdfd"
         id="stop88" />
    </linearGradient>
    <linearGradient
       id="linearGradient2704"
       gradientTransform="matrix(0 -1.0293895 1.0293895 0 11.93834 80.22496)"
       gradientUnits="userSpaceOnUse"
       x1="64.129814"
       x2="5.126446"
       y1="56.231236"
       y2="56.231236">
      <stop
         offset="0"
         id="stop91" />
      <stop
         offset=".56999999"
         stop-opacity=".588235"
         id="stop93" />
      <stop
         offset=".74199998"
         stop-color="#3b3b3b"
         stop-opacity=".72"
         id="stop95" />
      <stop
         offset="1"
         stop-color="#fff"
         stop-opacity="0"
         id="stop97" />
    </linearGradient>
  </defs>
  <path
     d="m23 8.9687825.04082 114.0246875h61.131184c.53 0 1.039-.211 1.414-.586l32.828-32.828001c.375-.375.586-.884.586-1.414v-79.1966865h-96z"
     filter="url(#filter3241)"
     opacity=".553425"
     transform="matrix(1.0090419 0 0 1.003276 -13.509126 .815698)"
     id="path102" />
  <path
     d="m23 9 .04082 113.99347h61.131184c.53 0 1.039-.211 1.414-.586l32.828-32.828001c.375-.375.586-.884.586-1.414l-.000004-79.165469z"
     filter="url(#filter3241)"
     opacity=".306849"
     transform="matrix(1.0090419 0 0 1.003276 -13.509126 .815698)"
     id="path104" />
  <path
     d="m24.919999 10.931136v109.932054l58.676001-.0001c.53 0 1.039-.211 1.414-.586l31.484-31.765934c.375-.375.586-.884.586-1.414v-76.16602h-92.160001z"
     filter="url(#filter3772)"
     opacity=".89589"
     transform="matrix(1.0090419 0 0 1.003276 -13.509126 .815698)"
     id="path106" />
  <path
     d="m23 9.9655172.04082 113.0279528h61.131184c.53 0 1.039-.211 1.414-.586l32.828-32.828001c.375-.375.586-.884.586-1.414v-78.1999518h-96z"
     filter="url(#filter3241)"
     opacity=".306849"
     transform="matrix(1.0090419 0 0 1.003276 -13.509126 .815698)"
     id="path108" />
  <path
     d="m11.6362 11.782643v110.292187h59.256106c.513401 0 1.006458-.20439 1.369714-.56765l31.79983-31.799834c.36326-.363255.56764-.856313.56764-1.369714v-76.554989h-92.99329z"
     fill="url(#radialGradient2275)"
     id="path110" />
  <path
     d="m18.199707 17.398079c-.522387 0-.94807.42703-.94807.951069l.321923 96.737252c0 .525.425684.95108.94807.95108h52.099199c.249342 0 .493944-.10082.670284-.27867l27.523241-27.221662c.17729-.17785.27778-.422273.27778-.672405l-.2-69.493672c0-.524039-.42473-.951068-.94806-.951068l-79.744367-.02192z"
     fill="url(#radialGradient2272)"
     id="path112" />
  <g
     transform="matrix(1.1080161 0 0 1.1080161 -18.611933 -10.130735)"
     id="g122">
    <path
       d="m111.414 86.586c.25-.25-26.379-1.586-31.414-1.586-1.654 0-3 1.346-3 3 0 5.035 1.336 31.664 1.586 31.414z"
       fill="url(#linearGradient2291)"
       filter="url(#filter4107)"
       opacity=".750685"
       id="path114" />
    <path
       d="m111.414 86.586c.375-.375-21.97-.586-31.414-.586-1.103 0-2 .897-2 2 0 9.444.211 31.789.586 31.414z"
       filter="url(#filter4209)"
       opacity=".2"
       id="path116" />
    <path
       d="m111.414 86.586c.239-.239-21.607.414-31.414.414-.553 0-1 .447-1 1 0 9.807-.653 31.653-.414 31.414z"
       fill="url(#linearGradient2295)"
       filter="url(#filter4171)"
       opacity=".1"
       id="path118" />
    <path
       d="m79.721619 119.31106 31.505501-31.505504h-31.505501z"
       fill="url(#linearGradient2297)"
       id="path120" />
  </g>
</svg>
