<?xml version="1.0" encoding="UTF-8" standalone="no"?>
<!-- Created with Inkscape (http://www.inkscape.org/) -->
<svg height="128" width="128" xmlns="http://www.w3.org/2000/svg" xmlns:xlink="http://www.w3.org/1999/xlink">
  <defs>
    <radialGradient id="XMLID_501_" cx="59.9995" cy="-14.9429" gradientTransform="matrix(.9373 0 0 1.03 3.7601 -1.4334)" gradientUnits="userSpaceOnUse" r="89.6366">
      <stop offset="0" stop-color="#fff"/>
      <stop offset=".4556" stop-color="#fff"/>
      <stop offset=".5192" stop-color="#f5f5f6"/>
      <stop offset=".6267" stop-color="#dbdbde"/>
      <stop offset=".7641" stop-color="#b0b0b6"/>
      <stop offset=".8757" stop-color="#888892"/>
    </radialGradient>
    <linearGradient id="XMLID_485_" gradientUnits="userSpaceOnUse" x1="59.9668" x2="59.9668" y1="71.9824" y2="57.9829">
      <stop offset="0" stop-color="#323232"/>
      <stop offset=".4438" stop-color="#555"/>
      <stop offset=".5917" stop-color="#555"/>
      <stop offset=".7811" stop-color="#555"/>
      <stop offset=".8168" stop-color="#585858"/>
      <stop offset=".8429" stop-color="#616161"/>
      <stop offset=".8659" stop-color="#717171"/>
      <stop offset=".8872" stop-color="#878787"/>
      <stop offset=".8876" stop-color="#888"/>
      <stop offset=".9586" stop-color="#eee"/>
    </linearGradient>
    <linearGradient id="linearGradient11230" gradientUnits="userSpaceOnUse" x1="60.0005" x2="60.0005" y1="99.8672" y2="55.8677">
      <stop offset="0" stop-color="#888"/>
      <stop offset=".071" stop-color="#bbb"/>
      <stop offset=".284" stop-color="#ddd"/>
      <stop offset=".5917" stop-color="#fff"/>
      <stop offset=".9467" stop-color="#eee"/>
      <stop offset="1" stop-color="#fff"/>
    </linearGradient>
    <radialGradient id="radialGradient11232" cx="60" cy="81.7363" gradientUnits="userSpaceOnUse" r="69.5688">
      <stop offset="0" stop-color="#eee"/>
      <stop offset=".213" stop-color="#e5e5e5"/>
      <stop offset=".5672" stop-color="#cbcbcb"/>
      <stop offset=".7515" stop-color="#bbb"/>
      <stop offset=".9704" stop-color="#888"/>
    </radialGradient>
    <linearGradient id="linearGradient11236" gradientTransform="matrix(-1 0 0 -1 119.9326 113.0723)" gradientUnits="userSpaceOnUse" x1="59.9658" x2="59.9658" y1="78.8369" y2="59.2646">
      <stop offset="0" stop-color="#323232"/>
      <stop offset=".4438" stop-color="#555"/>
      <stop offset=".5917" stop-color="#555"/>
      <stop offset=".7811" stop-color="#555"/>
      <stop offset=".8168" stop-color="#585858"/>
      <stop offset=".8429" stop-color="#616161"/>
      <stop offset=".8659" stop-color="#717171"/>
      <stop offset=".8872" stop-color="#878787"/>
      <stop offset=".8876" stop-color="#888"/>
      <stop offset="1" stop-color="#bbb"/>
    </linearGradient>
    <linearGradient id="lg1">
      <stop offset=".0059" stop-color="#555"/>
      <stop offset=".1183" stop-color="#888"/>
      <stop offset=".2215" stop-color="#8c8c8c"/>
      <stop offset=".3335" stop-color="#999"/>
      <stop offset=".4491" stop-color="#afafaf"/>
      <stop offset=".5" stop-color="#bbb"/>
      <stop offset=".5612" stop-color="#a7a7a7"/>
      <stop offset=".688" stop-color="#848484"/>
      <stop offset=".8071" stop-color="#6a6a6a"/>
      <stop offset=".9146" stop-color="#5a5a5a"/>
      <stop offset="1" stop-color="#555"/>
    </linearGradient>
    <linearGradient id="linearGradient11238" gradientUnits="userSpaceOnUse" x1="23.5845" x2="23.5845" xlink:href="#lg1" y1="71.9824" y2="40.1196"/>
    <linearGradient id="linearGradient11240" gradientUnits="userSpaceOnUse" x1="96.416" x2="96.416" xlink:href="#lg1" y1="71.9824" y2="40.1196"/>
    <linearGradient id="linearGradient11248" gradientUnits="userSpaceOnUse" x1="64.000125" x2="64.000125" y1="79.5078" y2="84.7598">
      <stop offset="0" stop-color="#888"/>
      <stop offset=".0225" stop-color="#919191"/>
      <stop offset=".1025" stop-color="#adadad"/>
      <stop offset=".1893" stop-color="#c2c2c2"/>
      <stop offset=".285" stop-color="#d1d1d1"/>
      <stop offset=".3966" stop-color="#dadada"/>
      <stop offset=".5621" stop-color="#ddd"/>
    </linearGradient>
    <linearGradient id="lg2">
      <stop offset="0" stop-color="#555"/>
      <stop offset="1" stop-color="#bbb"/>
    </linearGradient>
    <linearGradient id="linearGradient11250" gradientUnits="userSpaceOnUse" x1="23.330725" x2="23.330725" xlink:href="#lg2" y1="97.541" y2="83.0117"/>
    <linearGradient id="linearGradient11252" gradientUnits="userSpaceOnUse" x1="104.670025" x2="104.670025" xlink:href="#lg2" y1="97.541" y2="83.0117"/>
    <linearGradient id="linearGradient11254" gradientUnits="userSpaceOnUse" x1="64.000625" x2="64.000625" y1="97.541" y2="81.6094">
      <stop offset="0" stop-color="#323232"/>
      <stop offset=".245184" stop-color="#292929"/>
      <stop offset=".53201407" stop-color="#0f0f0f"/>
      <stop offset="1"/>
    </linearGradient>
    <linearGradient id="linearGradient11256" gradientUnits="userSpaceOnUse" x1="23.032825" x2="104.967925" y1="83.1846" y2="83.1846">
      <stop offset="0" stop-color="#fff"/>
      <stop offset=".192" stop-color="#f6f6f6"/>
      <stop offset=".5" stop-color="#ddd"/>
      <stop offset="1" stop-color="#fff"/>
    </linearGradient>
    <linearGradient id="linearGradient11266" gradientUnits="userSpaceOnUse" x1="59.9995" x2="59.9995" y1="24.4888" y2="72.6369">
      <stop offset=".0355" stop-color="#888"/>
      <stop offset=".5" stop-color="#323232"/>
    </linearGradient>
    <linearGradient id="lg3">
      <stop offset="0" stop-color="#888"/>
      <stop offset=".105" stop-color="#828282"/>
      <stop offset="1" stop-color="#555"/>
    </linearGradient>
    <radialGradient id="radialGradient11272" cx="111.0771" cy="90.6484" gradientUnits="userSpaceOnUse" r="5.7807" xlink:href="#lg3"/>
    <linearGradient id="lg4">
      <stop offset="0" stop-color="#fff"/>
      <stop offset=".1037" stop-color="#fdfdfd"/>
      <stop offset=".1631" stop-color="#f6f6f4"/>
      <stop offset=".1953" stop-color="#eeeeec"/>
      <stop offset=".3286" stop-color="#ececea"/>
      <stop offset=".405" stop-color="#e3e3e3"/>
      <stop offset=".4379" stop-color="#ddd"/>
      <stop offset=".8639" stop-color="#888"/>
    </linearGradient>
    <radialGradient id="radialGradient11274" cx="109.9424" cy="85.9258" fx="110.4204" fy="86.4674" gradientUnits="userSpaceOnUse" r="4.0421" xlink:href="#lg4"/>
    <radialGradient id="radialGradient11278" cx="111.3389" cy="84.9336" gradientUnits="userSpaceOnUse" r="8.4682" xlink:href="#lg3"/>
    <radialGradient id="radialGradient11283" cx="114.117325" cy="82.9209" fx="114.595525" fy="83.4627" gradientUnits="userSpaceOnUse" r="4.0435" xlink:href="#lg4"/>
    <linearGradient id="lg5">
      <stop offset="0" stop-color="#eeeeec"/>
      <stop offset=".2406" stop-color="#ececea"/>
      <stop offset=".3786" stop-color="#e3e3e3"/>
      <stop offset=".4379" stop-color="#ddd"/>
      <stop offset="1" stop-color="#888"/>
    </linearGradient>
    <linearGradient id="linearGradient11287" gradientUnits="userSpaceOnUse" x1="114.946425" x2="114.946425" xlink:href="#lg5" y1="86.9355" y2="81.3945"/>
    <linearGradient id="linearGradient11292" gradientUnits="userSpaceOnUse" x1="114.771625" x2="114.771625" xlink:href="#lg5" y1="93.9395" y2="88.3965"/>
    <radialGradient id="radialGradient11295" cx="59.9995" cy="-14.9429" gradientTransform="matrix(.9373 0 0 1.03 7.760225 2.5666)" gradientUnits="userSpaceOnUse" r="89.6366" xlink:href="#XMLID_501_"/>
    <linearGradient id="linearGradient11304" gradientUnits="userSpaceOnUse" x1="64.000625" x2="64.000625" y1="51.7319" y2="9.0143">
      <stop offset="0" stop-color="#fff"/>
      <stop offset=".1091" stop-color="#f9f9f9"/>
      <stop offset=".2515" stop-color="#e9e9e9"/>
      <stop offset=".4123" stop-color="#cecece"/>
      <stop offset=".5866" stop-color="#a8a8a8"/>
      <stop offset=".7718" stop-color="#787878"/>
      <stop offset=".9634" stop-color="#3e3e3e"/>
      <stop offset="1" stop-color="#323232"/>
    </linearGradient>
    <linearGradient id="linearGradient11322" gradientTransform="matrix(.967392 0 0 1 5.956464 4)" gradientUnits="userSpaceOnUse" x1="59.9995" x2="59.9995" y1="71.9824" y2="73.9824">
      <stop offset="0" stop-color="#323232"/>
      <stop offset="1" stop-color="#555"/>
    </linearGradient>
    <linearGradient id="linearGradient11325" gradientUnits="userSpaceOnUse" x1="64.000625" x2="64.000625" y1="77.3867" y2="70.9388">
      <stop offset="0" stop-color="#bbb"/>
      <stop offset="1" stop-color="#323232"/>
    </linearGradient>
    <linearGradient id="linearGradient11328" gradientUnits="userSpaceOnUse" x1="63.999625" x2="63.999625" y1="69.9824" y2="75.9824">
      <stop offset="0" stop-color="#ddd"/>
      <stop offset="1"/>
    </linearGradient>
    <linearGradient id="linearGradient11360" gradientUnits="userSpaceOnUse" x1="63.966925" x2="63.966925" xlink:href="#XMLID_485_" y1="75.9824" y2="61.9829"/>
    <linearGradient id="linearGradient11373" gradientUnits="userSpaceOnUse" x1="63.999625" x2="63.999625" y1="59.8672" y2="103.8677">
      <stop offset="0" stop-color="#bfc2bc"/>
      <stop offset=".1635" stop-color="#cfd1cc"/>
      <stop offset=".5601" stop-color="#dbdbde"/>
      <stop offset=".7343" stop-color="#b0b0b6"/>
      <stop offset=".8757" stop-color="#888892"/>
    </linearGradient>
    <linearGradient id="linearGradient11376" gradientUnits="userSpaceOnUse" x1="64.001125" x2="64.001125" y1="83.2705" y2="77.3035">
      <stop offset=".3669"/>
      <stop offset="1" stop-color="#fff"/>
    </linearGradient>
    <linearGradient id="linearGradient11379" gradientUnits="userSpaceOnUse" x1="64.000125" x2="64.000125" y1="28.6226" y2="71.3409">
      <stop offset="0" stop-color="#888"/>
      <stop offset="1" stop-color="#bbb"/>
    </linearGradient>
    <linearGradient id="linearGradient4176" gradientUnits="userSpaceOnUse" x1="63.966925" x2="63.966925" xlink:href="#XMLID_485_" y1="59.9824" y2="45.9829"/>
    <linearGradient id="linearGradient9397" gradientTransform="matrix(.992297 0 0 1.247292 -11.50666 -17.87196)" gradientUnits="userSpaceOnUse" x1="68.415939" x2="68.415939" y1="110.54097" y2="96.105774">
      <stop offset=".27704" stop-color="#646464"/>
      <stop offset=".5" stop-color="#222"/>
    </linearGradient>
    <linearGradient id="linearGradient9399" gradientTransform="matrix(.893067 0 0 1.142857 -5.155991 -6.328)" gradientUnits="userSpaceOnUse" x1="68.415939" x2="68.415939" y1="110.54097" y2="89.290047">
      <stop offset=".0355" stop-color="#fff"/>
      <stop offset=".27704" stop-color="#898989"/>
      <stop offset=".5" stop-color="#222"/>
    </linearGradient>
    <linearGradient id="linearGradient9401" gradientTransform="matrix(1 0 0 .801635 -7.999875 26.57982)" gradientUnits="userSpaceOnUse" x1="60.0005" x2="60.0005" y1="116.5371" y2="91.5879">
      <stop offset="0" stop-color="#7a7a7a"/>
      <stop offset=".2874" stop-color="#909090"/>
      <stop offset=".31" stop-color="#acacac"/>
      <stop offset=".3305" stop-color="#ccc"/>
      <stop offset=".3486" stop-color="#f0f0f0"/>
      <stop offset=".355" stop-color="#fff"/>
      <stop offset=".3723" stop-color="#f1f1f1"/>
      <stop offset=".3977" stop-color="#e6e6e6"/>
      <stop offset=".4334" stop-color="#dfdfdf"/>
      <stop offset=".5325" stop-color="#ddd"/>
      <stop offset="1" stop-color="#fff"/>
    </linearGradient>
    <radialGradient id="radialGradient4191" cx="59.9995" cy="-14.9429" gradientTransform="matrix(.9373 0 0 -.649181 7.760225 127.2556)" gradientUnits="userSpaceOnUse" r="89.6366" xlink:href="#XMLID_501_"/>
    <radialGradient id="radialGradient6562" cx="-673.01239" cy="-56.807011" gradientTransform="matrix(1.5841831 .2374271 -.28448622 1.7867905 377.00167 204.32421)" gradientUnits="userSpaceOnUse" r="56.163615" xlink:href="#linearGradient6306"/>
    <radialGradient id="radialGradient6529" cx="-9.625694" cy="-67.683014" fx="-35.087757" fy="-78.957077" gradientTransform="matrix(.42532218 0 0 .35491455 68.984524 113.24684)" gradientUnits="userSpaceOnUse" r="115.80503">
      <stop offset="0" stop-color="#fff"/>
      <stop offset=".5" stop-color="#ededed"/>
      <stop offset=".75" stop-color="#e3e3e3"/>
      <stop offset="1" stop-color="#8c8c8c"/>
    </radialGradient>
    <radialGradient id="radialGradient6515" cx="52.792747" cy="85.201317" gradientTransform="matrix(1 0 0 3.2171551 0 -190.67008)" gradientUnits="userSpaceOnUse" r="56.78125">
      <stop offset="0" stop-color="#484848"/>
      <stop offset="1" stop-color="#969696"/>
    </radialGradient>
    <radialGradient id="radialGradient6498" cx="-313.77863" cy="-75.845619" fx="-327.88126" fy="-122.29082" gradientTransform="matrix(1 0 0 1.1440679 0 10.926917)" gradientUnits="userSpaceOnUse" r="65.186401">
      <stop offset="0" stop-color="#fff" stop-opacity=".872727"/>
      <stop offset="1" stop-color="#fff" stop-opacity="0"/>
    </radialGradient>
    <radialGradient id="radialGradient6496" cx="-313.77863" cy="-75.845619" gradientTransform="matrix(1 0 0 1.1440679 0 10.926917)" gradientUnits="userSpaceOnUse" r="65.186401">
      <stop offset="0"/>
      <stop offset="1" stop-opacity="0"/>
    </radialGradient>
    <radialGradient id="radialGradient6494" cx="-313.77863" cy="-75.845619" fx="-343.31003" fy="-124.01205" gradientTransform="matrix(1 0 0 1.1440679 0 10.926917)" gradientUnits="userSpaceOnUse" r="65.186401">
      <stop offset="0" stop-color="#fff" stop-opacity="0"/>
      <stop offset=".38366336" stop-opacity="0"/>
      <stop offset=".81882757" stop-opacity=".08"/>
      <stop offset="1"/>
    </radialGradient>
    <linearGradient id="linearGradient6492" gradientUnits="userSpaceOnUse" x1="-267.98022" x2="-329.33154" y1="-226.54375" y2="78.231689">
      <stop offset="0" stop-color="#fff"/>
      <stop offset="1" stop-color="#fff" stop-opacity="0"/>
    </linearGradient>
    <radialGradient id="radialGradient6490" cx="-675.3678" cy="-51.796903" gradientTransform="matrix(1 0 0 1.0237352 0 1.229408)" gradientUnits="userSpaceOnUse" r="55.901997" xlink:href="#linearGradient6306"/>
    <radialGradient id="radialGradient6488" cx="-318.59558" cy="-88.287811" gradientTransform="matrix(.9991719 .04068759 -.1156105 2.8390666 -10.470822 173.53753)" gradientUnits="userSpaceOnUse" r="65.186401">
      <stop offset="0" stop-color="#004ac8"/>
      <stop offset="1" stop-color="#c6ddff"/>
    </radialGradient>
    <filter id="filter6459">
      <feGaussianBlur stdDeviation=".83079885"/>
    </filter>
    <clipPath id="clipPath6451">
      <path d="m10.817467 61.753265c39.998456-53.3312759 82.663475-17.777091 108.440253 22.221364-32.846914-64.013106-71.997216-86.2188946-108.440253-22.221364z"/>
    </clipPath>
    <filter id="filter6445">
      <feGaussianBlur stdDeviation=".56739305"/>
    </filter>
    <clipPath id="clipPath6441">
      <path d="m22.439952 87.515684s17.743324-23.206517 39.132853-19.021923c21.389529 4.184602 47.457915 38.141109 47.457915 38.141109-7.61683 11.67867-26.706068 15.82616-41.655108 16.98935 15.587282-.0492 36.482638 4.10681 53.521638-15.55 0 0-28.44074-46.664692-57.029307-51.472685-28.588558-4.808001-52.161621 31.447106-52.161621 31.447106 8.785892 20.233149 27.807104 28.995419 49.712587 34.525209-18.509454-8.99599-31.999795-17.03048-38.978957-35.058166z"/>
    </clipPath>
    <filter id="filter6401">
      <feGaussianBlur stdDeviation=".89646"/>
    </filter>
    <filter id="filter3068">
      <feGaussianBlur stdDeviation="2.0377368"/>
    </filter>
    <filter id="filter3098">
      <feGaussianBlur stdDeviation="1.8302414"/>
    </filter>
    <filter id="filter3223" height="1.220072" width="1.142245" x="-.071123" y="-.110036">
      <feGaussianBlur stdDeviation="3.4970547"/>
    </filter>
    <filter id="filter3272">
      <feGaussianBlur stdDeviation=".86270686"/>
    </filter>
    <filter id="filter3323">
      <feGaussianBlur stdDeviation=".76083033"/>
    </filter>
    <filter id="filter3357">
      <feGaussianBlur stdDeviation="2.4020058"/>
    </filter>
    <filter id="filter3395">
      <feGaussianBlur stdDeviation="2.3106204"/>
    </filter>
    <linearGradient id="linearGradient6306">
      <stop offset="0" stop-color="#00f5f1"/>
      <stop offset="1" stop-color="#00f5f1" stop-opacity="0"/>
    </linearGradient>
  </defs>
  <g>
    <polygon fill="url(#radialGradient11232)" points="4 39.982 116 39.982 118.932 55.867 1.068 55.867 4 39.982" transform="translate(4.000125 4)"/>
    <path d="m29.160125 28.097c-.869 0-1.576.707-1.576 1.576v21.009c0 .869.707 1.576 1.576 1.576h69.68c.869 0 1.576005-.707 1.576005-1.576v-21.009c0-.869-.707005-1.576-1.576005-1.576z" fill="url(#linearGradient11379)"/>
    <path d="m4.667125 81.139c12.396 5.22 34.328 8.695 59.333 8.695s46.934995-3.475 59.332995-8.695v-3.736h-118.665995z" fill="url(#linearGradient11376)"/>
    <path d="m5.068125 59.867h117.863005c1.42499 18.158 1.42499 25.843 0 44-39.288005 0-78.575005 0-117.863005 0-1.424-18.157-1.424-25.842 0-44z" fill="url(#linearGradient11373)"/>
    <g transform="translate(4.000125 4)">
      <path d="m3.033 55.867h113.934c1.378 18.158 1.378 25.843 0 44-37.979 0-75.956 0-113.934 0-1.377-18.157-1.377-25.842 0-44z" fill="url(#linearGradient11230)"/>
    </g>
    <rect fill="url(#linearGradient11360)" height="14" width="72" x="27.966125" y="61.981998"/>
    <polygon fill="url(#linearGradient11236)" points="24.5 34.236 95.433 34.236 96.433 53.808 23.5 53.808 24.5 34.236" transform="translate(4.000125 4)"/>
    <g transform="translate(4.000125 4)">
      <rect fill="url(#linearGradient11238)" height="31.863001" width="1.035" x="23.066999" y="40.118999"/>
    </g>
    <g transform="translate(4.000125 4)">
      <rect fill="url(#linearGradient11240)" height="31.863001" width="1.034" x="95.898003" y="40.118999"/>
    </g>
    <path d="m77.000125 74.697c0-2.605-1.73-4.715-3.865-4.715h-18.27c-2.135 0-3.865 2.109-3.865 4.715v1.285h26s0 0 0-1.285z" fill="url(#linearGradient11328)"/>
    <path d="m77.000125 74.9c0-2.193-1.73-3.972-3.865-3.972h-18.27c-2.135.001-3.865 1.779-3.865 3.972v1.082h26s0 0 0-1.082z" fill="url(#linearGradient11325)"/>
    <path d="m5.9999975 77.982h116.0000025c-.00386-.665-.00773-1.331-.0116-2h-115.9758264c-.004837.669-.0087065 1.335-.0125761 2z" fill="url(#linearGradient11322)"/>
    <g transform="translate(0 6.459)">
      <path d="m100.67113 79.508h-73.341005c-2.373 0-4.297 1.881-4.297 4.201v1.051c0-2.32 1.924-4.201 4.297-4.201h73.341005c2.37299 0 4.297 1.881 4.297 4.201v-1.051c0-2.32-1.92401-4.201-4.297-4.201z" fill="url(#linearGradient11248)"/>
      <path d="m23.891125 83.012c-.689.871-1.121 2.01-1.121 3.271v11.258h1.05v-13.713c.001-.279.033-.549.071-.816z" fill="url(#linearGradient11250)"/>
      <path d="m104.10912 83.012c.03801.268.07.537.07.816v13.713h1.05101v-11.258c0-1.262-.43201-2.4-1.12101-3.271z" fill="url(#linearGradient11252)"/>
      <path d="m99.978125 81.609h-71.956c-2.32 0-4.202 1.881-4.202 4.201v11.73h80.358995v-11.73c.00101-2.32-1.881-4.201-4.200995-4.201z" fill="url(#linearGradient11254)"/>
      <path d="m100.67113 80.559h-73.341005c-2.373 0-4.297 1.881-4.297 4.201v1.051c0-2.32 1.924-4.201 4.297-4.201h73.341005c2.37299 0 4.297 1.881 4.297 4.201v-1.051c0-2.321-1.92401-4.201-4.297-4.201z" fill="url(#linearGradient11256)"/>
    </g>
    <path d="m29.160125 28.623c-.58 0-1.05.471-1.05 1.05v21.009c0 .581.47 1.05 1.05 1.05h69.68c.581 0 1.051-.47 1.051-1.05v-21.009c0-.58-.47-1.05-1.051-1.05z" fill="url(#linearGradient11304)"/>
    <rect fill="url(#linearGradient4176)" height="14" width="72" x="27.966125" y="45.981998"/>
    <polygon fill="url(#linearGradient11266)" points="25.16 25.673 25.16 48.346 60 49.352 94.84 48.346 94.84 25.673 25.16 25.673" transform="translate(4.000125 4)"/>
    <rect fill="none" height="44" opacity=".1" stroke="#000" stroke-linejoin="round" stroke-width="8" width="64" x="32.000126" y="8"/>
    <rect fill="none" height="43.732002" opacity=".15" stroke="#000" stroke-linejoin="round" stroke-width="6" width="64.000122" x="32" y="8"/>
    <rect fill="none" height="43.732002" opacity=".2" stroke="#000" stroke-linejoin="round" stroke-width="4" width="64.000122" x="32" y="8"/>
    <path d="m32.000125 7.732c-.552 0-1 .448-1 1v43c0 .552.448 1 1 1h64c.553 0 1-.448 1-1v-43c0-.552-.447-1-1-1z" fill="#323232" opacity="0"/>
    <rect fill="none" height="43.732002" opacity=".25" stroke="#000" stroke-linejoin="round" stroke-width="2" width="64.000122" x="32" y="8"/>
    <rect fill="url(#radialGradient11295)" height="43.732002" width="64.000122" x="32" y="8"/>
    <path d="m112.00113 91.168c0 1.529 1.243 2.771 2.77099 2.771 1.528 0 2.77101-1.242 2.77101-2.771 0-1.527-1.24301-2.771-2.77101-2.771-1.52799-.001-2.77099 1.244-2.77099 2.771zm.64 0c0-1.174.956-2.131 2.13099-2.131 1.17601 0 2.13201.957 2.13201 2.131 0 1.176-.956 2.131-2.13201 2.131-1.17499 0-2.13099-.955-2.13099-2.131z" fill="url(#linearGradient11292)"/>
    <circle cx="110.772" cy="87.167999" fill="url(#radialGradient11272)" r="2.32" transform="translate(4.000125 4)"/>
    <circle cx="110.772" cy="87.167999" fill="url(#radialGradient11274)" r="2.11" transform="translate(4.000125 4)"/>
    <path d="m112.17512 84.164c0 1.529 1.24301 2.771 2.77101 2.771 1.52899 0 2.772-1.242 2.772-2.771 0-1.527-1.24301-2.77-2.772-2.77-1.528.001-2.77101 1.243-2.77101 2.77zm.64 0c0-1.174.956-2.131 2.13001-2.131 1.17599 0 2.13199.957 2.13199 2.131 0 1.176-.956 2.133-2.13199 2.133-1.17401 0-2.13001-.957-2.13001-2.133z" fill="url(#linearGradient11287)"/>
    <circle cx="110.946" cy="80.164001" fill="url(#radialGradient11278)" r="2.32" transform="translate(4.000125 4)"/>
    <path d="m112.83713 84.164c0 1.164.94499 2.111 2.108 2.111 1.16399 0 2.10999-.947 2.10999-2.111 0-1.162-.946-2.109-2.10999-2.109-1.16301 0-2.108.947-2.108 2.109z" fill="url(#radialGradient11283)"/>
    <g transform="translate(12 -4)">
      <path d="m12 102v18h80c0-.8018 0-17.1982 0-18-1.02106 0-78.976942 0-80 0z" fill="url(#linearGradient9397)"/>
      <path d="m19.849903 104c0 .73466-3.849903 15.26534-3.849903 16h72c0-.73466-3.849228-15.26534-3.849228-16-.918954 0-63.380115 0-64.300869 0z" fill="url(#linearGradient9399)"/>
      <path d="m88 96v24c-2.021 0-69.98 0-72 0 0-1.45898 0-16.44779 0-24-.623 0-3.936 0-4 0v28h80c0-.80965 0-27.19195 0-28-.064 0-3.37801 0-4 0z" fill="url(#linearGradient9401)"/>
    </g>
    <g fill="none" stroke="#000" stroke-linejoin="round">
      <path d="m32.000126 124h64l-4.000126-27.732h-56z" opacity=".1" stroke-width="8"/>
      <path d="m32.000126 124h64l-4.000126-27.732h-56z" opacity=".15" stroke-width="6"/>
      <path d="m32.000126 124h64l-4.000126-27.732h-56z" opacity=".2" stroke-width="4"/>
      <path d="m32.000126 124h64l-4.000126-27.732h-56z" opacity=".25" stroke-width="2"/>
    </g>
    <path d="m32.000126 124h64l-4.000126-27.732h-56z" fill="url(#radialGradient4191)"/>
    <g transform="matrix(.69971163 0 0 .69971163 43.587945 44.402292)">
      <g transform="translate(-170.7638 -53.331986)">
        <g transform="translate(-26.000031 -3.999996)"/>
      </g>
      <g transform="translate(105.49587 -648.60135)"/>
      <g transform="translate(105.49587 -648.60135)"/>
      <g transform="translate(214.77694 -851.99639)"/>
      <g transform="translate(214.77694 -851.99639)"/>
      <g transform="translate(-.14895 -751.68591)"/>
      <g transform="translate(912.37913 49.621285)"/>
      <g transform="translate(912.37913 49.621285)"/>
      <g transform="translate(1021.6602 -153.77375)"/>
      <g transform="translate(1021.6602 -153.77375)"/>
      <g transform="translate(806.73431 -53.463277)"/>
      <g transform="matrix(.9362441 0 0 .9373724 1598.9433 139.76709)"/>
      <g transform="matrix(.9362441 0 0 .9373724 1598.9433 139.76709)"/>
      <g opacity=".401639" transform="matrix(-.7330744 0 0 .610116 -838.46727 631.17645)"/>
      <g opacity=".401639" transform="matrix(-.7330744 0 0 .610116 -838.46727 631.17645)"/>
      <g opacity=".401639" transform="matrix(.9362441 0 0 .610116 2158.4154 638.04532)"/>
      <g opacity=".401639" transform="matrix(.9362441 0 0 .610116 2158.4154 638.04532)"/>
      <g transform="translate(1564.8033 34.386275)"/>
      <g transform="translate(1564.8033 34.386275)"/>
      <g transform="matrix(0 -.7741915 .7742719 0 619.83954 285.771)"/>
      <g transform="matrix(0 -.9362441 .9373724 0 724.87454 43.267945)"/>
      <g transform="matrix(0 -.9362441 .9373724 0 724.87454 43.267945)"/>
      <g opacity=".401639" transform="matrix(0 .7330744 .610116 0 1216.2839 2480.6786)"/>
      <g opacity=".401639" transform="matrix(0 .7330744 .610116 0 1216.2839 2480.6786)"/>
      <g opacity=".401639" transform="matrix(0 -.9362441 .610116 0 1223.1527 -516.2042)"/>
      <g opacity=".401639" transform="matrix(0 -.9362441 .610116 0 1223.1527 -516.2042)"/>
      <g transform="translate(489.69459 -133.39456)"/>
      <g transform="translate(489.69459 -133.39456)"/>
      <g transform="translate(274.7687 -33.084083)"/>
      <path d="m340.05181 154.59069s19.96201-26.10834 44.02616-21.40049c24.06415 4.70786 53.39222 42.91041 53.39222 42.91041-8.56927 13.13901-30.05846 17.80511-46.87679 19.11375l-6.68857-1.18171c-20.82394-10.12088-36.00116-19.16003-43.85302-39.44196z" fill-rule="evenodd" filter="url(#filter3395)" opacity=".568773" transform="matrix(.91693614 0 0 .91693614 -292.72175 -62.621153)"/>
      <path d="m20.438369 84.983841s19.175821-26.108334 42.292212-21.400483c23.116393 4.70786 51.289399 42.910402 51.289399 42.910402-8.23178 13.13901-28.862168 17.80511-45.018109 19.11375 16.845708-.0554 39.428039 4.62034 57.842669-17.49442 0 0-30.736886-52.499807-61.633524-57.909011-30.896631-5.409204-56.3728469 35.379362-56.3728469 35.379362 9.4952189 22.763169 30.0520849 32.621109 53.7260879 38.842359-20.003794-10.12088-34.583264-19.16003-42.125888-39.441959z" fill-rule="evenodd" filter="url(#filter3223)" opacity=".360595" transform="matrix(.95452979 0 0 .91693614 -.424992 1.20388)"/>
      <path d="m19.084044 79.128638s18.303888-23.93968 40.369177-19.622883c22.065288 4.316807 48.957249 39.346101 48.957249 39.346101-7.85746 12.047634-27.561681 16.326154-42.983016 17.526094l-6.132991-1.08355c-19.094223-9.2802-33.010765-17.568527-40.210419-36.165762z" fill="url(#radialGradient6529)" fill-rule="evenodd"/>
      <path d="m-248.59222-75.845619c0 41.188108-29.18495 74.577667-65.18641 74.577667-36.00145 0-65.1864-33.389559-65.1864-74.577667 0-41.188111 29.18495-74.577671 65.1864-74.577671 36.00146 0 65.18641 33.38956 65.18641 74.577671z" fill="url(#radialGradient6488)" transform="matrix(.35220715 -.0656517 .05268724 .35671156 172.27163 90.479733)"/>
      <g fill-rule="evenodd" transform="matrix(.35191113 .0435957 -.05462966 .36007323 273.85148 130.69175)">
        <path d="m-618.74997-55.593742c9.375-9.375 45.31249-35.937498 45.31249-35.937498l-42.18749 42.187497h47.65624l-49.21874 3.90625 45.31249 39.0624987-48.43749-32.8124987 17.96875 46.0937478-7.8125-57.8124978-45.3125 42.1874987 35.9375-56.2499977-3.90625 17.968749h-53.125l49.21875-13.281249-.78125 17.187499-29.6875-57.812497 37.5 54.687497-10.15625-64.062497 17.96875 60.156247 15.625-51.562497-30.46875 48.437498 54.68749-6.25-51.56249 8.593749 44.53125 17.1875-42.1875-13.28125-14.0625 41.4062487 22.65625-42.1874987-48.4375 8.59375 57.8125 2.34375z" fill="#060606" filter="url(#filter3068)" opacity=".576208"/>
        <path d="m-675.78122-64.187492c9.375-9.375 45.31249-35.937498 45.31249-35.937498l-42.18749 42.187497h47.65624l-49.21874 3.90625 45.31249 39.062499-48.43749-32.812499 17.96875 46.0937481-7.8125-57.8124981-45.3125 42.187499 35.9375-56.249998-3.90625 17.968749-55.4296-18.613271 51.52335 5.332022-.78125 17.187499-29.6875-57.812497 37.5 54.687497-10.15625-64.062497 17.96875 60.156247 15.625-51.562497-30.46875 48.437498 54.68749-6.25-51.56249 8.593749 44.53125 17.1875-42.1875-13.28125-14.0625 41.406249 22.65625-42.187499-67.5863 10.635141 76.9613.302359z" fill="#00f5f1" filter="url(#filter3098)" opacity=".933085" transform="matrix(-.999898 .01428195 -.01428195 -.999898 -1302.3542 -102.2609)"/>
        <path d="m-675.78122-64.187492c9.375-9.375 52.85724-13.590169 52.85724-13.590169l-49.73224 19.840168 51.6994 4.64305-53.2619-.7368 32.78062 49.9611671-35.90562-43.7111671 46.11396 32.554808-35.95771-44.273558-29.89574 58.88871202 20.52074-72.95121102-3.90625 17.968749-50.65989-5.16432 46.75364-8.116929-.78125 17.187499-44.62257-40.607769 52.43507 37.482769 1.78505-52.650327 6.02745 48.744077 29.13389-30.169284-43.97764 27.044285 58.73065-1.60695-55.60565 3.950699 51.49455 33.423812-49.1508-29.517562 1.45559 59.4627574 7.13816-60.2440074-39.86844 49.0534819 49.24344-38.1159819z" fill="url(#radialGradient6490)" filter="url(#filter3098)" opacity=".933085" transform="matrix(-.999898 .01428195 -.01428195 -.999898 -1302.3542 -102.2609)"/>
        <g fill="url(#radialGradient6562)">
          <path d="m-676.09577-56.549223c9.375-9.375 53.68975-34.927045 53.68975-34.927045l-50.2502 33.538775 57.69232-6.804075-59.25482 10.710325 50.09461 43.738004-47.74822-37.687194 20.0201 55.0933915-15.33524-66.6129515-66.7243 27.636738 55.78712-23.480132-2.34407-.250356-38.98683-53.772697 47.64518 50.830678-13.34585 6.848269 72.21757-.776839-64.40507-2.348161-10.15625-64.062497 16.50054 60.888914 5.91442-61.539954-10.63049 60.600101 39.54521-50.278761-45.07968 49.704697 67.83395 23.318163-65.4902-19.411913-28.16874 50.7464279 36.76249-51.5276779-71.01097-13.715156 79.83169 18.736597-14.60402-5.195671z" opacity=".933085" transform="matrix(-.999898 .01428195 -.01428195 -.999898 -1302.3542 -102.2609)"/>
          <path d="m-676.09577-56.549223c9.375-9.375 5.25822-67.244397 5.25822-67.244397l-1.81867 65.856127-61.45279-40.274008 59.89029 44.180258 36.04927 54.46965382-33.70288-48.41884382-13.57161 53.2425418 18.25647-64.7621018-66.7243 27.636738 55.78712-23.480132-2.34407-.250356-38.98683-53.772697 47.64518 50.830678-13.34585 6.848269 64.07657 16.386909-56.26407-19.511909-10.15625-64.062497 16.50054 60.888914 56.82326 4.191415-61.53933-5.131268 50.33451-36.762698-55.86898 36.188634 57.05207 37.504274-54.70832-33.598024-28.16874 50.7464279 36.76249-51.5276779-71.01097-13.715156 79.83169 18.736597z" opacity=".933085" transform="matrix(-.999898 .01428195 -.01428195 -.999898 -1302.3542 -102.2609)"/>
        </g>
      </g>
      <path d="m-248.59222-75.845619c0 41.188108-29.18495 74.577667-65.18641 74.577667-36.00145 0-65.1864-33.389559-65.1864-74.577667 0-41.188111 29.18495-74.577671 65.1864-74.577671 36.00146 0 65.18641 33.38956 65.18641 74.577671z" transform="matrix(.14423143 -.02658686 .01265009 .14445688 101.83733 85.521056)"/>
      <path d="m-255.09231-75.845619c0 41.188108-26.27476 74.577667-58.68632 74.577667-32.41155 0-58.68631-33.389559-58.68631-74.577667 0-41.188111 26.27476-74.577671 58.68631-74.577671 32.41156 0 58.68632 33.38956 58.68632 74.577671z" fill="url(#linearGradient6492)" transform="matrix(.22404843 -.11275225 .11345377 .13178786 135.63887 44.530713)"/>
      <path d="m-248.59222-75.845619c0 41.188108-29.18495 74.577667-65.18641 74.577667-36.00145 0-65.1864-33.389559-65.1864-74.577667 0-41.188111 29.18495-74.577671 65.1864-74.577671 36.00146 0 65.18641 33.38956 65.18641 74.577671z" fill="url(#radialGradient6494)" opacity=".676328" transform="matrix(.35220715 -.0656517 .05268724 .35671156 172.27163 90.479733)"/>
      <path d="m-248.59222-75.845619c0 41.188108-29.18495 74.577667-65.18641 74.577667-36.00145 0-65.1864-33.389559-65.1864-74.577667 0-41.188111 29.18495-74.577671 65.1864-74.577671 36.00146 0 65.18641 33.38956 65.18641 74.577671z" fill="url(#radialGradient6496)" transform="matrix(.14423143 -.02658686 .01265009 .14445688 101.83733 85.521056)"/>
      <path d="m55.717237 67.256091c-18.65241.459046-33.21875 19.53125-33.21875 19.53125.08683.22429.19241.43504.28125.65625 1.43813-1.82379 18.4071-22.691787 38.875-18.6875 20.519524 4.014396 45.076933 35.107429 47.062503 37.656249.12203-.17541.2583-.35232.375-.53125 0 0-26.047974-33.940397-47.437503-38.124999-2.005269-.392306-4.007941-.547488-5.9375-.5zm-43.65625 20.65625c-.04972.07477-.28125.40625-.28125.40625 8.78589 20.233139 27.81326 29.001459 49.71875 34.531249-1.498641-.72837-2.974207-1.46592-4.40625-2.1875-19.8169-5.53761-36.73628-14.29957-45.03125-32.749999zm108.531253 19.843749c-14.35911 16.2234-31.349112 15.76992-45.625003 15.28125-2.570576.36397-5.111421.65546-7.53125.84375 15.587282-.0492 36.492253 4.12556 53.531253-15.53125 0 0-.30038-.47338-.375-.59375z" fill-rule="evenodd" filter="url(#filter6459)" transform="matrix(1.031593 0 0 1.031593 -4.064854 -11.151929)"/>
      <path d="m-248.59222-75.845619c0 41.188108-29.18495 74.577667-65.18641 74.577667-36.00145 0-65.1864-33.389559-65.1864-74.577667 0-41.188111 29.18495-74.577671 65.1864-74.577671 36.00146 0 65.18641 33.38956 65.18641 74.577671z" fill="url(#radialGradient6498)" transform="matrix(.14423143 -.02658686 .01265009 .14445688 101.83733 85.521056)"/>
      <g fill-rule="evenodd">
        <path d="m326.97601 126.60685c45-60.000003 93-20 122 25-36.95421-72.017526-81-97.000003-122-25z" fill="#101010" filter="url(#filter3357)" opacity=".502416" transform="matrix(.91693614 0 0 .91693614 -292.72175 -62.621153)"/>
        <path d="m55.46875 13.03125c-16.156308-.363388-32.51487 11.679314-48.375 39.53125 41.262127-55.0161709 85.283856-18.355876 111.875 22.90625-19.589561-38.176757-41.359874-61.939523-63.5-62.4375zm.875 33.75c-26.972092.022111-48.34375 32.90625-48.34375 32.90625 9.063465 20.87237 28.683707 29.88926 51.28125 35.59375-19.094223-9.2802-32.987845-17.559015-40.1875-36.15625 0 0 18.309712-23.941798 40.375-19.625 22.065288 4.316806 48.9375 39.34375 48.9375 39.34375-7.85747 12.04763-27.547425 16.33131-42.96875 17.53125 16.079731-.0507 37.64144 4.24658 55.21875-16.03125 0 0-29.351984-48.133858-58.84375-53.09375-1.843235-.309994-3.670611-.470224-5.46875-.46875z" fill="url(#radialGradient6515)"/>
        <path d="m59.781315 50.846503c-27.838843.023762-49.906727 35.344184-49.906727 35.344184.16578.397424.350811.78044.523389 1.169929 2.673794-4.110378 26.338992-39.071966 55.017471-34.051104 28.468719 4.984138 56.486672 50.000328 60.035852 55.879528.23482-.27172.47464-.52009.70812-.80048 0 0-30.304489-51.720287-60.743972-57.049455-1.902466-.333073-3.778211-.494186-5.634133-.492602zm-40.461132 34.952299c-.204341.26338-.492602.64654-.492602.64654 6.332929 17.029098 17.707469 26.026908 33.127476 34.482128 2.736559.86973 5.532327 1.6854 8.374232 2.43222-19.268098-9.74865-33.4422-18.50222-41.009106-37.560888zm94.977407 21.835578c-8.53315 12.1356-28.152598 16.5111-43.626052 17.76446 3.842127-.0126 7.988191.23699 12.315046.33866 12.871534-2.43061 25.907426-7.42442 32.019126-17.17949 0 0-.43881-.5679-.70812-.92363z" fill="#b3b3b3" filter="url(#filter3272)" transform="matrix(.95452979 0 0 .91693614 -.424992 1.20388)"/>
        <path d="m380.01351 82.723181c-.68571-.01987-1.37608.0071-2.0625.02953-13.81089.451187-27.74012 9.556006-41.375 29.237599 1.31332-1.28804 2.62216-2.52057 3.9375-3.66208 29.93366-38.598786 61.1039-27.309277 89.03125 12.75822 1.49936 1.54223 2.9593 3.13848 4.40625 4.7548-17.00302-26.545018-35.32913-42.578961-53.9375-43.118069z" fill="#c3c3c3" filter="url(#filter3323)" transform="matrix(.91693614 0 0 .91693614 -292.72175 -62.621153)"/>
        <path clip-path="url(#clipPath6441)" d="m55.403054 66.761395c-18.65241.459046-33.21875 19.53125-33.21875 19.53125l2.15625 1.78125s16.87394-22.073956 37.21875-18.09375c20.344803 3.980214 45.124996 36.281245 45.124996 36.281245l2.09375-.875s-26.047967-33.940393-47.437496-38.124995c-2.005269-.392306-4.007941-.547488-5.9375-.5z" fill="#1f1f1f" filter="url(#filter6401)" transform="matrix(1.031593 0 0 1.031593 -4.064854 -11.151929)"/>
        <path clip-path="url(#clipPath6451)" d="m54.306528 32.98125c-12.557446.111728-25.56471 6.190533-38.375 20.9375-1.63308 2.5123-3.25186 5.180866-4.875 8.03125 39.998453-53.3312759 82.660722-17.779705 108.437502 22.21875-1.71674-3.34563-3.46887-6.545361-5.21875-9.65625-16.057329-22.503312-37.281783-41.733105-59.968752-41.53125z" fill="#161616" filter="url(#filter6445)" transform="matrix(1.031593 0 0 1.031593 -4.064854 -11.151929)"/>
      </g>
    </g>
  </g>
</svg>
