<?xml version="1.0" encoding="UTF-8" standalone="no"?>
<!-- Created with Inkscape (http://www.inkscape.org/) -->
<svg height="128" width="128" xmlns="http://www.w3.org/2000/svg" xmlns:xlink="http://www.w3.org/1999/xlink">
  <defs>
    <linearGradient id="linearGradient2990">
      <stop offset="0" stop-color="#ccc"/>
      <stop offset="1" stop-color="#f1f1f1"/>
    </linearGradient>
    <linearGradient id="linearGradient6674">
      <stop offset="0" stop-color="#bf0000"/>
      <stop offset="1" stop-color="#f11" stop-opacity="0"/>
    </linearGradient>
    <linearGradient id="linearGradient6446">
      <stop offset="0" stop-color="#fff"/>
      <stop offset="1" stop-color="#fff" stop-opacity="0"/>
    </linearGradient>
    <radialGradient id="radialGradient9692" cx="-63.99999971388" cy="91.78952376597" gradientUnits="userSpaceOnUse" r="50.60662935693" spreadMethod="pad">
      <stop offset="0" stop-color="#ff5900"/>
      <stop offset="1" stop-color="#8d0000"/>
    </radialGradient>
    <linearGradient id="linearGradient6410" gradientUnits="userSpaceOnUse" x1="39.741936" x2="11.458064" y1="113.54839" y2="13.006452">
      <stop offset="0" stop-color="#700"/>
      <stop offset="1" stop-color="#c10000"/>
    </linearGradient>
    <linearGradient id="linearGradient6452" gradientUnits="userSpaceOnUse" spreadMethod="reflect" x1="13.507897" x2="7.602036" xlink:href="#linearGradient6446" y1="13.721349" y2="19.627209"/>
    <filter id="filter6458">
      <feGaussianBlur stdDeviation=".28444187"/>
    </filter>
    <linearGradient id="linearGradient6464" gradientUnits="userSpaceOnUse" spreadMethod="reflect" x1="21.507897" x2="15.539791" xlink:href="#linearGradient6446" y1="21.721349" y2="27.689454"/>
    <linearGradient id="linearGradient6470" gradientUnits="userSpaceOnUse" spreadMethod="reflect" x1="21.507897" x2="14.373943" xlink:href="#linearGradient6446" y1="21.721349" y2="28.855302"/>
    <linearGradient id="linearGradient6637" gradientUnits="userSpaceOnUse" x1="55.329033" x2="55.329033" y1="112" y2="74.913147">
      <stop offset="0" stop-color="#703700"/>
      <stop offset="1" stop-color="#bf5e00" stop-opacity="0"/>
    </linearGradient>
    <linearGradient id="linearGradient6649" gradientUnits="userSpaceOnUse" x1="62.038712" x2="62.038712" y1="15.91371" y2="50.728985">
      <stop offset="0" stop-color="#ff6565"/>
      <stop offset="1" stop-color="#ffdfbf" stop-opacity="0"/>
    </linearGradient>
    <linearGradient id="linearGradient6680" gradientUnits="userSpaceOnUse" x1="19.096775" x2="80.047699" xlink:href="#linearGradient6674" y1="50.580647" y2="66.897575"/>
    <linearGradient id="linearGradient2816" gradientUnits="userSpaceOnUse" x1="59.225807" x2="59.225807" xlink:href="#linearGradient6446" y1="-31.712746" y2="98.167175"/>
    <linearGradient id="linearGradient3231" gradientUnits="userSpaceOnUse" x1="59.48817" x2="59.48817" xlink:href="#linearGradient6446" y1="8.897322" y2="47.228859"/>
    <linearGradient id="linearGradient3233" gradientUnits="userSpaceOnUse" x1="116.000003" x2="31.609901" xlink:href="#linearGradient6446" y1="73.000002" y2="22.946344"/>
    <linearGradient id="linearGradient3243" gradientUnits="userSpaceOnUse" x1="-60.945251" x2="-59.415245" y1="105.83054" y2="45.631207">
      <stop offset="0" stop-color="#ffeb8b"/>
      <stop offset="1" stop-color="#fff" stop-opacity="0"/>
    </linearGradient>
    <filter id="filter3281">
      <feGaussianBlur stdDeviation=".32872878"/>
    </filter>
    <linearGradient id="linearGradient3289" gradientUnits="userSpaceOnUse" x1="60.402065" x2="60.402065" xlink:href="#linearGradient6674" y1="64.076149" y2="-20.962214"/>
    <filter id="filter3319">
      <feGaussianBlur stdDeviation="1.6179775"/>
    </filter>
    <filter id="filter3033">
      <feGaussianBlur stdDeviation=".33295155"/>
    </filter>
    <filter id="filter3045">
      <feGaussianBlur stdDeviation=".46608189"/>
    </filter>
    <clipPath id="clipPath3049">
      <path d="m-213.6585 29.550642c-1.28472-1.284722-3.35567-1.284722-4.64039 0l-23.13565 23.13565-23.13565-23.13565c-1.28472-1.284722-3.35567-1.284722-4.64039 0l-6.67332 6.67332c-1.28472 1.284721-1.28472 3.355667 0 4.640388l23.13565 23.13565-23.13565 23.13565c-1.28472 1.284721-1.28472 3.355667 0 4.640388l6.67332 6.67332c1.28472 1.284722 3.35567 1.284722 4.64039 0l23.13565-23.13565 23.13565 23.13565c1.28472 1.284722 3.35567 1.284722 4.64039 0l6.67332-6.67332c1.28472-1.284721 1.28472-3.355667 0-4.640388l-23.13565-23.13565 23.13565-23.13565c1.28472-1.284721 1.28472-3.355667 0-4.640388z"/>
    </clipPath>
    <radialGradient cx="-241.43454" cy="63.999997" fx="-230.566588" fy="76.90569" gradientUnits="userSpaceOnUse" r="35.412899" xlink:href="#linearGradient2990"/>
    <clipPath id="clipPath3055">
      <path d="m-121.2809 29.550642c-1.28472-1.284722-3.35567-1.284722-4.64039 0l-23.13565 23.13565-23.13565-23.13565c-1.28472-1.284722-3.35567-1.284722-4.64039 0l-6.67332 6.67332c-1.28472 1.284721-1.28472 3.355667 0 4.640388l23.13565 23.13565-23.13565 23.13565c-1.28472 1.284721-1.28472 3.355667 0 4.640388l6.67332 6.67332c1.28472 1.284722 3.35567 1.284722 4.64039 0l23.13565-23.13565 23.13565 23.13565c1.28472 1.284722 3.35567 1.284722 4.64039 0l6.67332-6.67332c1.28472-1.284721 1.28472-3.355667 0-4.640388l-23.13565-23.13565 23.13565-23.13565c1.28472-1.284721 1.28472-3.355667 0-4.640388z"/>
    </clipPath>
    <radialGradient cx="-149.05694" cy="63.999997" fx="-138.188988" fy="76.90569" gradientUnits="userSpaceOnUse" r="35.412899" xlink:href="#linearGradient2990"/>
    <radialGradient id="radialGradient3066" cx="-60.754823" cy="63.999997" fx="-49.886871" fy="76.90569" gradientUnits="userSpaceOnUse" r="35.412899" xlink:href="#linearGradient2990"/>
    <linearGradient id="linearGradient3068" gradientUnits="userSpaceOnUse" x1="-236" x2="-236" y1="17.767166" y2="89.767166">
      <stop offset="0"/>
      <stop offset=".5" stop-opacity=".156364"/>
      <stop offset=".62264121" stop-opacity=".687273"/>
      <stop offset="1" stop-opacity=".363636"/>
    </linearGradient>
  </defs>
  <g>
    <path d="m18.083601 8h91.832799c5.58631 0 10.0836 4.497286 10.0836 10.083601v91.832799c0 5.58631-4.49729 10.0836-10.0836 10.0836h-91.832799c-5.586315 0-10.083601-4.49729-10.083601-10.0836v-91.832799c0-5.586315 4.497286-10.083601 10.083601-10.083601z" fill="url(#linearGradient3289)" filter="url(#filter3319)"/>
    <path d="m18.083601 8h91.832799c5.58631 0 10.0836 4.497286 10.0836 10.083601v91.832799c0 5.58631-4.49729 10.0836-10.0836 10.0836h-91.832799c-5.586315 0-10.083601-4.49729-10.083601-10.0836v-91.832799c0-5.586315 4.497286-10.083601 10.083601-10.083601z" fill="url(#linearGradient6410)"/>
    <path d="m18.083601 8h91.832799c5.58631 0 10.0836 4.497286 10.0836 10.083601v91.832799c0 5.58631-4.49729 10.0836-10.0836 10.0836h-91.832799c-5.586315 0-10.083601-4.49729-10.083601-10.0836v-91.832799c0-5.586315 4.497286-10.083601 10.083601-10.083601z" fill="url(#linearGradient6680)" opacity=".082902"/>
    <path d="m-109.38386 12.614708h89.767721c3.878793 0 7.001431 3.122638 7.001431 7.001431v88.767721c0 3.87879-3.122638 7.00143-7.001431 7.00143h-89.767721c-3.87879 0-7.00143-3.12264-7.00143-7.00143v-88.767721c0-3.878793 3.12264-7.001431 7.00143-7.001431z" fill="url(#radialGradient9692)" transform="scale(-1 1)"/>
    <path d="m17.906944 8.299378c-4.690175 0-9.397509 3.568001-9.397509 9.39874l4.267305-.058913c.452373-2.129835 2.851964-4.270962 4.526605-4.603385z" fill="url(#linearGradient6452)" filter="url(#filter6458)" opacity=".887641"/>
    <path d="m25.397509 16.46919c-4.690175 0-8.967908 3.654709-8.967908 9.485448l4.347139-.315433c.452373-2.129835 2.851964-4.270962 4.526605-4.603385z" fill="url(#linearGradient6464)" filter="url(#filter6458)" opacity=".868914" transform="matrix(-1 0 0 1 135.86741 -8)"/>
    <path d="m8 105.875v4.03125c0 5.58631 4.507435 10.09375 10.09375 10.09375h91.8125c5.58631 0 10.09375-4.50743 10.09375-10.09375v-4.03125c0 5.58631-4.50744 10.09375-10.09375 10.09375h-91.8125c-5.586315 0-10.09375-4.50744-10.09375-10.09375z" fill="url(#linearGradient6637)" opacity=".082902"/>
    <path d="m26.246568 16.978625c-4.690175 0-9.477343 3.654709-9.477343 9.485448l4.007515-.824868c.452373-2.129835 2.851964-4.270962 4.526605-4.603385z" fill="url(#linearGradient6470)" filter="url(#filter6458)" opacity=".326425" transform="matrix(1 0 0 -1 -8 136.08786)"/>
    <path d="m26.246568 16.978625c-4.690175 0-9.477343 3.654709-9.477343 9.485448l4.007515-.824868c.452373-2.129835 2.851964-4.270962 4.526605-4.603385z" fill="url(#linearGradient6470)" filter="url(#filter6458)" opacity=".176166" transform="matrix(-1 0 0 -1 135.86741 136.08786)"/>
    <path d="m8 22.03871v-4.03125c0-5.58631 4.507435-10.09375 10.09375-10.09375h91.8125c5.58631 0 10.09375 4.50743 10.09375 10.09375v4.03125c0-5.58631-4.50744-10.09375-10.09375-10.09375h-91.8125c-5.586315 0-10.09375 4.50744-10.09375 10.09375z" fill="url(#linearGradient6649)" opacity=".388601"/>
    <g transform="translate(0 -1)">
      <path d="m19.441303 13.28125c-3.990225 0-7.1875 3.197275-7.1875 7.1875v1c0-3.990225 3.197275-7.1875 7.1875-7.1875h89.624997c3.99023 0 7.1875 3.197275 7.1875 7.1875v-1c0-3.990225-3.19727-7.1875-7.1875-7.1875z" fill="url(#linearGradient3231)"/>
      <path d="m112.21077 14.946344c1.59536 1.314795 2.625 3.286748 2.625 5.53125v34.5c-.19337.328038-.43674.667319-.71875 1-27.247777 10.486527-73.312207 13.488327-101.874997 6.625v.5625c28.98107 7.306633 75.58549 4.377686 103.281247-6.28125.28202-.332683.52538-.671962.71875-1v-34.5c0-2.853011-1.64104-5.274084-4.03125-6.4375z" fill="url(#linearGradient3233)"/>
    </g>
    <path d="m-109.38386 13.614708h89.767721c3.878793 0 7.001431 3.122638 7.001431 7.001431v87.767721c0 3.87879-3.122638 7.00143-7.001431 7.00143h-89.767721c-3.87879 0-7.00143-3.12264-7.00143-7.00143v-87.767721c0-3.878793 3.12264-7.001431 7.00143-7.001431z" fill="none" filter="url(#filter3281)" stroke="url(#linearGradient3243)" stroke-linecap="round" stroke-linejoin="round" transform="scale(-1 1)"/>
    <path d="m19.1875 12.28125c-3.990225 0-7.1875 3.197275-7.1875 7.1875v41.78125c28.981077 7.306633 75.585499 4.377686 103.28125-6.28125.28202-.332683.52538-.671962.71875-1v-34.5c0-3.990225-3.19727-7.1875-7.1875-7.1875z" fill="url(#linearGradient2816)"/>
    <g transform="matrix(1.129772 0 0 1.129772 132.6354 -8.305409)">
      <path d="m-32.978785 29.550642c-1.284721-1.284722-3.355667-1.284722-4.640388 0l-23.13565 23.13565-23.13565-23.13565c-1.284721-1.284722-3.355667-1.284722-4.640388 0l-6.67332 6.67332c-1.284722 1.284721-1.284722 3.355667 0 4.640388l23.13565 23.13565-23.13565 23.13565c-1.284722 1.284721-1.284722 3.355667 0 4.640388l6.67332 6.67332c1.284721 1.284722 3.355667 1.284722 4.640388 0l23.13565-23.13565 23.13565 23.13565c1.284721 1.284722 3.355667 1.284722 4.640388 0l6.67332-6.67332c1.284722-1.284721 1.284722-3.355667 0-4.640388l-23.135649-23.13565 23.135649-23.13565c1.284722-1.284721 1.284722-3.355667 0-4.640388z" fill="url(#radialGradient3066)"/>
      <path clip-path="url(#clipPath3055)" d="m-183.09375 39.246364c-.64099 1.23556-.445 2.77375.59375 3.8125l21.625 21.65625 1.5-1.5-23.125-23.15625c-.24981-.24981-.44109-.5148-.59375-.8125zm68.0625 0c-.15219.29489-.3148.5648-.5625.8125l-23.15625 23.15625 1.5 1.5 21.65625-21.65625c1.04053-1.04053 1.20747-2.57591.5625-3.8125zm-34.03125 34.28125-23.125 23.125c-1.28472 1.28472-3.37153 1.28472-4.65625 0l-6.65625-6.6875c-.24981-.24981-.44109-.5148-.59375-.8125-.64099 1.23556-.445 2.77375.59375 3.8125l6.65625 6.6875c1.28472 1.284716 3.37153 1.284716 4.65625 0l23.125-23.125 23.15625 23.125c1.28472 1.284716 3.34028 1.284716 4.625 0l6.6875-6.6875c1.04053-1.04052 1.20747-2.57591.5625-3.8125-.15219.29489-.3148.5648-.5625.8125l-6.6875 6.6875c-1.28472 1.28472-3.34028 1.28472-4.625 0z" fill="#fff" filter="url(#filter3033)" transform="translate(88.315386)"/>
      <path clip-path="url(#clipPath3049)" d="m-266.875 27.360916c-.83892 0-1.70139.32639-2.34375.96875l-6.65625 6.6875c-1.0349 1.03491-1.2262 2.57918-.59375 3.8125.15178-.29258.34778-.56653.59375-.8125l6.65625-6.6875c1.28472-1.28473 3.37153-1.28473 4.65625 0l23.125 23.15625 23.125-23.15625c1.28472-1.28473 3.37152-1.28473 4.65625 0l6.65625 6.6875c.24419.24419.44239.52229.59375.8125.63713-1.23456.44327-2.77548-.59375-3.8125l-6.65625-6.6875c-1.28473-1.28473-3.37153-1.28473-4.65625 0l-23.125 23.15625-23.125-23.15625c-.64236-.64236-1.47358-.96875-2.3125-.96875zm13.225 36.5375-21.625 21.625c-1.0349 1.03492-1.2262 2.57918-.59375 3.8125.15178-.29258.34778-.56653.59375-.8125l23.125-23.125zm24.925-.1-1.5 1.5 23.125 23.125c.24419.2442.44239.52229.59375.8125.63713-1.23455.44327-2.77547-.59375-3.8125z" fill="url(#linearGradient3068)" filter="url(#filter3045)" transform="translate(180.67317)"/>
    </g>
  </g>
</svg>