<?xml version="1.0" encoding="UTF-8" standalone="no"?>
<!-- Generator: Adobe Illustrator 12.0.0, SVG Export Plug-In . SVG Version: 6.00 Build 51448)  -->

<svg
   xmlns:dc="http://purl.org/dc/elements/1.1/"
   xmlns:cc="http://creativecommons.org/ns#"
   xmlns:rdf="http://www.w3.org/1999/02/22-rdf-syntax-ns#"
   xmlns:svg="http://www.w3.org/2000/svg"
   xmlns="http://www.w3.org/2000/svg"
   xmlns:xlink="http://www.w3.org/1999/xlink"
   xmlns:sodipodi="http://sodipodi.sourceforge.net/DTD/sodipodi-0.dtd"
   xmlns:inkscape="http://www.inkscape.org/namespaces/inkscape"
   enable-background="new 0 0 128 128"
   height="128"
   viewBox="0 0 128 128"
   width="128"
   version="1.1"
   id="svg275"
   sodipodi:docname="search.svg"
   inkscape:version="0.92.4 (5da689c313, 2019-01-14)">
  <metadata
     id="metadata279">
    <rdf:RDF>
      <cc:Work
         rdf:about="">
        <dc:format>image/svg+xml</dc:format>
        <dc:type
           rdf:resource="http://purl.org/dc/dcmitype/StillImage" />
      </cc:Work>
    </rdf:RDF>
  </metadata>
  <sodipodi:namedview
     pagecolor="#ffffff"
     bordercolor="#666666"
     borderopacity="1"
     objecttolerance="10"
     gridtolerance="10"
     guidetolerance="10"
     inkscape:pageopacity="0"
     inkscape:pageshadow="2"
     inkscape:window-width="1366"
     inkscape:window-height="739"
     id="namedview277"
     showgrid="false"
     inkscape:zoom="1.84375"
     inkscape:cx="64"
     inkscape:cy="64"
     inkscape:window-x="0"
     inkscape:window-y="0"
     inkscape:window-maximized="1"
     inkscape:current-layer="svg275" />
  <defs
     id="defs185">
    <linearGradient
       id="lg1">
      <stop
         offset="0"
         stop-color="#fff"
         id="stop2" />
      <stop
         offset="1"
         stop-color="#555753"
         id="stop4" />
    </linearGradient>
    <linearGradient
       id="linearGradient2291"
       gradientUnits="userSpaceOnUse"
       x1="94.3438"
       x2="86.5356"
       xlink:href="#lg1"
       y1="102.3447"
       y2="94.5366" />
    <linearGradient
       id="linearGradient2293"
       gradientUnits="userSpaceOnUse"
       x1="95"
       x2="86.5865"
       xlink:href="#lg1"
       y1="103"
       y2="94.5865" />
    <linearGradient
       id="linearGradient2295"
       gradientUnits="userSpaceOnUse"
       x1="95"
       x2="87.293"
       y1="103"
       y2="95.293">
      <stop
         offset="0"
         stop-color="#fff"
         id="stop9" />
      <stop
         offset="1"
         stop-color="#393b38"
         id="stop11" />
    </linearGradient>
    <linearGradient
       id="linearGradient2297"
       gradientUnits="userSpaceOnUse"
       x1="96"
       x2="88.0002"
       y1="104"
       y2="96.0002">
      <stop
         offset="0"
         stop-color="#888a85"
         id="stop14" />
      <stop
         offset=".0072"
         stop-color="#8c8e89"
         id="stop16" />
      <stop
         offset=".0673"
         stop-color="#abaca9"
         id="stop18" />
      <stop
         offset=".1347"
         stop-color="#c5c6c4"
         id="stop20" />
      <stop
         offset=".2115"
         stop-color="#dbdbda"
         id="stop22" />
      <stop
         offset=".3012"
         stop-color="#ebebeb"
         id="stop24" />
      <stop
         offset=".4122"
         stop-color="#f7f7f6"
         id="stop26" />
      <stop
         offset=".5679"
         stop-color="#fdfdfd"
         id="stop28" />
      <stop
         offset="1"
         stop-color="#fff"
         id="stop30" />
    </linearGradient>
    <radialGradient
       id="radialGradient2272"
       cx="102"
       cy="112.3047"
       gradientTransform="matrix(.9787234 0 0 .9818182 1.361705 1.163636)"
       gradientUnits="userSpaceOnUse"
       r="139.55859">
      <stop
         offset="0"
         stop-color="#535557"
         id="stop33" />
      <stop
         offset=".11366145"
         stop-color="#898a8c"
         id="stop35" />
      <stop
         offset=".20296688"
         stop-color="#ececec"
         id="stop37" />
      <stop
         offset=".2363"
         stop-color="#fafafa"
         id="stop39" />
      <stop
         offset=".2722"
         stop-color="#fff"
         id="stop41" />
      <stop
         offset=".5313"
         stop-color="#fafafa"
         id="stop43" />
      <stop
         offset=".8449"
         stop-color="#ebecec"
         id="stop45" />
      <stop
         offset="1"
         stop-color="#e1e2e3"
         id="stop47" />
    </radialGradient>
    <radialGradient
       id="radialGradient2275"
       cx="102.000002"
       cy="112.3047"
       gradientUnits="userSpaceOnUse"
       r="139.5585">
      <stop
         offset="0"
         stop-color="#00537d"
         id="stop50" />
      <stop
         offset=".0151"
         stop-color="#186389"
         id="stop52" />
      <stop
         offset=".0558"
         stop-color="#558ca8"
         id="stop54" />
      <stop
         offset=".0964"
         stop-color="#89afc3"
         id="stop56" />
      <stop
         offset=".1357"
         stop-color="#b3ccd8"
         id="stop58" />
      <stop
         offset=".1737"
         stop-color="#d4e2e9"
         id="stop60" />
      <stop
         offset=".2099"
         stop-color="#ecf2f5"
         id="stop62" />
      <stop
         offset=".2435"
         stop-color="#fafcfd"
         id="stop64" />
      <stop
         offset=".2722"
         stop-color="#fff"
         id="stop66" />
    </radialGradient>
    <filter
       id="filter3241">
      <feGaussianBlur
         stdDeviation="1.0394514"
         id="feGaussianBlur69" />
    </filter>
    <linearGradient
       id="linearGradient3542"
       gradientUnits="userSpaceOnUse"
       x1="-6.28163"
       x2="-11.59263"
       xlink:href="#linearGradient3604"
       y1="80.373654"
       y2="102.715608" />
    <linearGradient
       id="linearGradient4502"
       gradientUnits="userSpaceOnUse"
       x1="-5.15041"
       x2="-4.15906"
       y1="98.135279"
       y2="161.463963">
      <stop
         offset="0"
         stop-color="#caecf3"
         stop-opacity=".984314"
         id="stop73" />
      <stop
         offset="1"
         stop-color="#0e5268"
         stop-opacity="0"
         id="stop75" />
    </linearGradient>
    <radialGradient
       id="radialGradient3905"
       cx="419.65628"
       cy="-24.165377"
       gradientTransform="matrix(.7195272 0 0 .6485209 -273.74451 28.176702)"
       gradientUnits="userSpaceOnUse"
       r="27.472945"
       xlink:href="#linearGradient3750" />
    <radialGradient
       id="radialGradient3903"
       cx="455.50381"
       cy="-40.349792"
       fy="-32.883251"
       gradientTransform="matrix(1.4864865 -.00000084 .00000104 1.8378378 -221.5964 32.464567)"
       gradientUnits="userSpaceOnUse"
       r="14.103466"
       xlink:href="#linearGradient3604" />
    <radialGradient
       id="radialGradient3901"
       cx="549.10937"
       cy="-5.5"
       fx="549.10938"
       fy="15.369064"
       gradientTransform="matrix(1 0 0 .9995489 0 -.002481)"
       gradientUnits="userSpaceOnUse"
       r="34.640625">
      <stop
         offset="0"
         stop-color="#16367a"
         stop-opacity="0"
         id="stop80" />
      <stop
         offset=".79500002"
         stop-color="#16367a"
         stop-opacity="0"
         id="stop82" />
      <stop
         offset="1"
         stop-color="#16367a"
         id="stop84" />
    </radialGradient>
    <linearGradient
       id="linearGradient3899"
       gradientUnits="userSpaceOnUse"
       x1="30.16384497973"
       x2="28.41822635085"
       xlink:href="#linearGradient3750"
       y1="-24.38504895448"
       y2="13.0304299572" />
    <linearGradient
       id="linearGradient3897"
       gradientUnits="userSpaceOnUse"
       x1="529.51709"
       x2="529.63055"
       xlink:href="#linearGradient3467"
       y1="-49.408035"
       y2="-22.281881" />
    <linearGradient
       id="linearGradient3895"
       gradientUnits="userSpaceOnUse"
       x1="425.19971"
       x2="424.85605"
       xlink:href="#linearGradient3750"
       y1="35.690521"
       y2="12.002443" />
    <linearGradient
       id="linearGradient3893"
       gradientUnits="userSpaceOnUse"
       x1="425.9068"
       x2="426.27026"
       xlink:href="#linearGradient3750"
       y1="7.40625"
       y2="-21.585129" />
    <linearGradient
       id="linearGradient3889"
       gradientUnits="userSpaceOnUse"
       x1="529.51709"
       x2="529.13055"
       xlink:href="#linearGradient3467"
       y1="-49.408035"
       y2="-2.031881" />
    <radialGradient
       id="radialGradient3885"
       cx="28.32192210931"
       cy="22.57093917075"
       fx="27.83735399374"
       fy="37.59352586491"
       gradientUnits="userSpaceOnUse"
       r="24.33982529745">
      <stop
         offset="0"
         stop-color="#a2f3ff"
         stop-opacity=".309091"
         id="stop92" />
      <stop
         offset=".57963896"
         stop-color="#51d2f4"
         stop-opacity=".465455"
         id="stop94" />
      <stop
         offset=".88229889"
         stop-color="#388bc9"
         stop-opacity=".662745"
         id="stop96" />
      <stop
         offset="1"
         stop-color="#1f449e"
         stop-opacity=".861818"
         id="stop98" />
    </radialGradient>
    <radialGradient
       id="radialGradient3883"
       cx="461.9838"
       cy="-50.078033"
       fx="461.54532"
       fy="-62.783859"
       gradientTransform="matrix(1.9245079 .00000089 -.00000022 .9889928 -427.1077 -.551631)"
       gradientUnits="userSpaceOnUse"
       r="21.345785"
       xlink:href="#linearGradient3750" />
    <linearGradient
       id="linearGradient3750">
      <stop
         offset="0"
         stop-color="#fff"
         id="stop102" />
      <stop
         offset="1"
         stop-color="#fff"
         stop-opacity="0"
         id="stop104" />
    </linearGradient>
    <linearGradient
       id="linearGradient3604">
      <stop
         offset="0"
         stop-color="#56e4fd"
         stop-opacity=".687273"
         id="stop107" />
      <stop
         offset="1"
         stop-color="#fff"
         stop-opacity=".709091"
         id="stop109" />
    </linearGradient>
    <linearGradient
       id="linearGradient3467">
      <stop
         offset="0"
         id="stop112" />
      <stop
         offset="1"
         stop-opacity="0"
         id="stop114" />
    </linearGradient>
    <filter
       id="filter3448">
      <feGaussianBlur
         stdDeviation=".29695312"
         id="feGaussianBlur117" />
    </filter>
    <filter
       id="filter3475">
      <feGaussianBlur
         stdDeviation=".31492188"
         id="feGaussianBlur120" />
    </filter>
    <filter
       id="filter3594">
      <feGaussianBlur
         stdDeviation=".66601563"
         id="feGaussianBlur123" />
    </filter>
    <clipPath
       id="clipPath3598">
      <path
         d="m549.13821-40.478552c-19.31962 0-35.0096 15.689963-35.0096 35.009573s15.68997 34.978781 35.0096 34.978782c19.31959 0 34.97878-15.659172 34.97878-34.978782s-15.6592-35.009573-34.97878-35.009573z"
         id="path126" />
    </clipPath>
    <filter
       id="filter3740">
      <feGaussianBlur
         stdDeviation=".60528572"
         id="feGaussianBlur129" />
    </filter>
    <filter
       id="filter3746">
      <feGaussianBlur
         stdDeviation=".23930338"
         id="feGaussianBlur132" />
    </filter>
    <filter
       id="filter3538">
      <feGaussianBlur
         stdDeviation="1.0977778"
         id="feGaussianBlur135" />
    </filter>
    <linearGradient
       id="linearGradient3522"
       gradientUnits="userSpaceOnUse"
       x1="91.893524"
       x2="102.63839"
       y1="98.322968"
       y2="87.578102">
      <stop
         offset="0"
         stop-color="#363636"
         id="stop138" />
      <stop
         offset="1"
         stop-color="#b3b3b3"
         id="stop140" />
    </linearGradient>
    <filter
       id="filter3512">
      <feGaussianBlur
         stdDeviation=".59409265"
         id="feGaussianBlur143" />
    </filter>
    <filter
       id="filter3492">
      <feGaussianBlur
         stdDeviation="1.9719547"
         id="feGaussianBlur146" />
    </filter>
    <radialGradient
       id="radialGradient3466"
       cx="39.409458"
       cy="9.579121"
       fx="33.483532"
       fy="10.615251"
       gradientTransform="matrix(1 0 0 .7625717 0 7.686499)"
       gradientUnits="userSpaceOnUse"
       r="31.965544"
       xlink:href="#linearGradient3750" />
    <radialGradient
       id="radialGradient23116"
       cx="3.953125"
       cy="74.833298"
       fx=".905584"
       fy="73.295685"
       gradientTransform="matrix(.435966 -.566102 5.67091 5.233696 -328.6401 -296.4972)"
       gradientUnits="userSpaceOnUse"
       r="6.93199"
       xlink:href="#linearGradient2599" />
    <radialGradient
       id="radialGradient23113"
       cx="49.157429"
       cy="62.380642"
       fx="45.900455"
       fy="62.298256"
       gradientTransform="matrix(.626846 -.703832 7.605719 6.891555 -429.3557 -328.15075)"
       gradientUnits="userSpaceOnUse"
       r="8.333237"
       xlink:href="#linearGradient3750" />
    <radialGradient
       id="radialGradient23110"
       cx="39.036491"
       cy="69.152916"
       fx="36.285576"
       gradientTransform="matrix(.626846 -.703832 7.605719 6.891555 -430.19375 -328.4301)"
       gradientUnits="userSpaceOnUse"
       r="8.333237"
       xlink:href="#linearGradient3750" />
    <linearGradient
       id="linearGradient23104"
       gradientTransform="matrix(-.358188 .402179 .396825 .359565 71.20181 46.70902)"
       gradientUnits="userSpaceOnUse"
       spreadMethod="reflect"
       x1="28.071711"
       x2="40.198689"
       y1="20.204628"
       y2="20.20463">
      <stop
         offset="0"
         stop-color="#fff"
         id="stop153" />
      <stop
         offset="1"
         stop-color="#aeaeae"
         id="stop155" />
    </linearGradient>
    <linearGradient
       id="linearGradient23101"
       gradientTransform="matrix(1.005204 .03706644 -.03709647 1.006018 4.01125 1.547579)"
       gradientUnits="userSpaceOnUse"
       x1="67.515175"
       x2="63.401665"
       xlink:href="#linearGradient3467"
       y1="86.706062"
       y2="61.357201" />
    <radialGradient
       id="radialGradient23098"
       cx="-22.1875"
       cy="69.921875"
       fx="-24.225885"
       fy="69.914368"
       gradientTransform="matrix(-.8920684 1.0389973 -21.233231 -18.230581 1564.2742 1389.0215)"
       gradientUnits="userSpaceOnUse"
       r="3.3125"
       xlink:href="#linearGradient3750" />
    <radialGradient
       id="radialGradient23095"
       cx="56.256772"
       cy="56.998896"
       gradientTransform="matrix(1 0 0 .925287 6 10.25858)"
       gradientUnits="userSpaceOnUse"
       r="9.725522"
       xlink:href="#linearGradient2599" />
    <radialGradient
       id="radialGradient4851"
       cx="28.54949"
       cy="-5.477264"
       gradientTransform="matrix(-5.379428 -.0000011 -.00000598 29.32146 193.5799 200.6014)"
       gradientUnits="userSpaceOnUse"
       r="6.692164">
      <stop
         offset="0"
         stop-color="#fff"
         stop-opacity="0"
         id="stop161" />
      <stop
         offset="1"
         stop-color="#818181"
         id="stop163" />
    </radialGradient>
    <linearGradient
       id="linearGradient2161"
       gradientUnits="userSpaceOnUse"
       x1="28.54949"
       x2="28.54949"
       y1="-10.100503"
       y2="-.854025">
      <stop
         offset="0"
         stop-color="#c9cacc"
         id="stop166" />
      <stop
         offset="1"
         stop-color="#acaeb1"
         id="stop168" />
    </linearGradient>
    <linearGradient
       id="linearGradient5810"
       gradientUnits="userSpaceOnUse"
       x1="13.644914"
       x2="71.473473"
       y1="38.36776"
       y2="38.36776">
      <stop
         offset="0"
         stop-color="#a3a5a8"
         id="stop171" />
      <stop
         offset="1"
         stop-color="#fff"
         id="stop173" />
    </linearGradient>
    <radialGradient
       id="radialGradient2414"
       cx="53.82272"
       cy="51.796238"
       fx="53.363365"
       fy="53.704475"
       gradientTransform="matrix(1 0 0 .350763 0 33.62806)"
       gradientUnits="userSpaceOnUse"
       r="5.284413"
       xlink:href="#linearGradient3750" />
    <linearGradient
       id="linearGradient2384"
       gradientUnits="userSpaceOnUse"
       x1="34.841892"
       x2="35.561386"
       xlink:href="#linearGradient3750"
       y1="-7.142458"
       y2="11.415728" />
    <linearGradient
       id="linearGradient2599">
      <stop
         offset="0"
         id="stop178" />
      <stop
         offset=".66371679"
         stop-opacity=".238434"
         id="stop180" />
      <stop
         offset="1"
         stop-opacity="0"
         id="stop182" />
    </linearGradient>
  </defs>
  <g
     transform="translate(-1.417989 -1.999997)"
     id="g273">
    <path
       d="m5.4074474 40.999996c0 19.095111 15.4974836 34.592592 34.5925936 34.592592 19.095109 0 34.592594-15.497481 34.592594-34.592592 0-19.09511-15.497485-34.5925916-34.592594-34.5925916-19.09511 0-34.5925936 15.4974816-34.5925936 34.5925916z"
       style="opacity:.755435;fill:none;stroke:#000;stroke-width:4.964609;stroke-linecap:round;stroke-linejoin:round;filter:url(#filter3538)"
       transform="matrix(.9869871 0 0 .9786287 .520515 .939403)"
       id="path203" />
    <path
       d="m-279.8219-252.56081v-2.79471z"
       fill="#fff"
       fill-opacity=".756881"
       id="path205" />
    <path
       d="m-301.08624-178.55358v-1.05317z"
       fill="#fff"
       fill-opacity=".756881"
       id="path207" />
    <g
       fill="none"
       stroke="url(#linearGradient2384)"
       transform="matrix(-1.031111 -.03792996 .04966593 -1.343636 77.79323 75.37027)"
       id="g215">
      <path
         d="m9.622763 14.273311c6.901098-8.1906349 16.725636-12.5207018 27.493608-12.5207018s21.292506 5.4482232 27.297226 13.2275148"
         stroke-width=".414"
         id="path209" />
      <path
         d="m9.622763 14.573311c6.901098-8.1906349 16.725636-12.5207018 27.493608-12.5207018s21.292506 5.4482232 27.297226 13.2275148"
         stroke-width=".914"
         id="path211" />
      <path
         d="m9.622763 14.473311c6.901098-8.1906349 16.725636-12.5207018 27.493608-12.5207018s21.292506 5.4482232 27.297226 13.2275148"
         stroke-width=".614"
         id="path213" />
    </g>
    <path
       d="m66.807106 75.346081c3.938334-3.297353 7.160469-6.918787 9.77163-10.971747 21.401882 18.549048 33.855044 30.311758 51.421244 45.682716-3.29968 4.59409-7.13218 8.36421-10.86499 11.94294-16.83991-16.18609-23.799654-20.93242-50.327884-46.653909z"
       style="stroke:#171717;stroke-linecap:round;stroke-linejoin:round;stroke-dashoffset:4;stroke-opacity:.442529;fill:url(#linearGradient3522);filter:url(#filter3512)"
       id="path217" />
    <path
       d="m74.263851 67.635537-3.635795 4.117333c3.799865 6.26068 12.264951 15.700339 24.184507 26.91294 9.756377 9.17773 18.663927 16.18711 25.174977 20.3911 2.28269-2.04165 3.62728-3.59576 5.19112-5.395-4.69109-6.36018-12.76906-14.9845-22.6035-24.235648-11.839689-11.137481-21.968333-18.480851-28.311309-21.790725z"
       fill="url(#radialGradient23116)"
       id="path219" />
    <path
       d="m67.432828 75.071664c3.228087-2.972494 6.339603-6.510334 9.026005-10.134548 16.816459 14.369614 34.368197 30.866423 50.347047 44.924834-3.42808 4.52937-4.62745 6.71501-9.51233 11.08331-16.61032-15.96673-33.899633-30.544049-49.860722-45.873596z"
       fill="url(#radialGradient23113)"
       opacity=".732601"
       id="path221" />
    <path
       d="m68.494389 75.515284 7.870218-4.013494c16.816461 14.369613 31.511843 25.921528 48.777823 39.36143-2.55057 5.22103-4.25997 5.49505-8.68693 9.80269-16.34941-15.82391-32.000019-29.82108-47.961111-45.150626z"
       fill="url(#radialGradient23110)"
       opacity=".744186"
       id="path223" />
    <path
       d="m76.425838 64.246719c-3.938333 3.297356-7.167762 6.926977-9.778926 10.979938l.17595.159427c3.938334-3.297354 7.167762-6.926977 9.778925-10.979937z"
       fill="#5c5c5c"
       id="path225" />
    <path
       d="m59.107132 51.796238a5.2844129 1.8535739 0 1 1 -10.568825 0 5.2844129 1.8535739 0 1 1 10.568825 0z"
       fill="url(#radialGradient2414)"
       transform="matrix(.683678 -.792054 .188958 .164061 26.87769 102.80687)"
       id="path227" />
    <path
       d="m59.107132 51.796238a5.2844129 1.8535739 0 1 1 -10.568825 0 5.2844129 1.8535739 0 1 1 10.568825 0z"
       fill="url(#radialGradient2414)"
       opacity=".651163"
       transform="matrix(.67225 -.801782 .192135 .160328 77.98777 148.3708)"
       id="path229" />
    <path
       d="m68.080897 60.182881c-2.154249 2.621609-4.137051 4.866668-6.080911 6.863037l6.533119 6.010339c2.418424-2.249876 4.629306-4.398116 6.266803-6.743686z"
       fill="url(#linearGradient23104)"
       id="path231" />
    <path
       d="m68.324087 61.334465c-2.15425 2.621608-4.006542 4.14436-5.950403 6.140729l6.159421 5.581063c2.418424-2.249876 4.629306-4.398116 6.266803-6.743686z"
       fill="url(#linearGradient23101)"
       id="path233" />
    <path
       d="m127.48838 109.9635c-6.10592-5.74011-15.9514-13.8534-27.37968-24.185547-8.836732-7.98917-17.239042-15.3595-23.674422-20.11897l-4.76959 4.60234c5.38206 5.92452 13.523 14.25723 22.35973 22.246395 11.428272 10.332142 22.061032 18.827142 28.772792 23.243922z"
       fill="url(#radialGradient23098)"
       id="path235" />
    <path
       d="m68.21875 60.28125c-.969438 1.291114-2.029777 2.529777-3.1875 3.6875-.412675.412675-.846931.826152-1.28125 1.21875-.021703.019618-.040744.042934-.0625.0625-.567759.61732-1.129301 1.207972-1.6875 1.78125l2.28125 2.125c2.14427-1.355469 3.996959-3.166646 5.375-5.40625.291724-.474113.546314-.949041.78125-1.4375z"
       fill="url(#radialGradient23095)"
       fill-rule="evenodd"
       opacity=".8"
       id="path237" />
    <rect
       fill="url(#linearGradient3542)"
       height="8.381975"
       opacity=".1875"
       rx="0"
       transform="matrix(.6643393 -.7474311 .7474311 .6643393 .691358 -1.185185)"
       width="1.652031"
       x="-5.522911"
       y="91.800858"
       id="rect239" />
    <path
       d="m34.931141-5.4772639a6.3816509 4.3663926 0 1 1 -12.763302 0 6.3816509 4.3663926 0 1 1 12.763302 0z"
       fill="none"
       stroke="url(#linearGradient2161)"
       stroke-linecap="round"
       stroke-linejoin="round"
       stroke-width=".621025"
       transform="matrix(-5.327775 0 0 7.786748 192.1053 82.65007)"
       id="path241" />
    <path
       d="m6.00004 39.999996c0 18.768 15.232002 33.999999 34.000001 33.999999 18.767998 0 34.000001-15.231999 34.000001-33.999999 0-18.767999-15.232003-33.999999-34.000001-33.999999-18.767999 0-34.000001 15.232-34.000001 33.999999z"
       fill="none"
       stroke="url(#radialGradient4851)"
       stroke-linecap="round"
       stroke-linejoin="round"
       stroke-width="4"
       id="path243" />
    <path
       d="m39.84375 8c-.545821-.0086874-1.104678.0120526-1.65625.03125-17.650304.6143161-31.408411 15.440626-30.71875 33.09375.2241221 5.736814 1.95117 11.060414 4.78125 15.625-.017636-.273621-.020486-.536975-.03125-.8125-.689661-17.653124 13.068449-32.479434 30.71875-33.09375 11.914406-.414679 22.558955 5.737349 28.4375 15.21875-1.077028-16.709684-14.883395-29.79753-31.53125-30.0625z"
       fill="url(#radialGradient3466)"
       filter="url(#filter3492)"
       opacity=".71"
       id="path245" />
    <path
       d="m70.60957 38.36776a28.050377 27.244333 0 1 1 -56.100754 0 28.050377 27.244333 0 1 1 56.100754 0z"
       style="fill:none;stroke-width:1.727804;stroke-linecap:round;stroke-linejoin:round;stroke-dashoffset:4;stroke:url(#linearGradient5810)"
       transform="matrix(.03847249 1.105377 1.138262 -.04446891 -5.309881 -5.337797)"
       id="path247" />
    <g
       transform="matrix(1.2724655 0 0 1.2724655 4.380195 11.394782)"
       id="g269">
      <path
         d="m483.32958-50.078033a21.345785 20.067993 0 1 1 -42.69157 0 21.345785 20.067993 0 1 1 42.69157 0z"
         fill="url(#radialGradient3883)"
         filter="url(#filter3746)"
         opacity=".40625"
         transform="matrix(.9136751 0 0 .6306345 -393.98727 40.721129)"
         id="path249" />
      <path
         d="m28.332723-1.7688984c-13.43755 0-24.350546 10.9129884-24.350546 24.3505414 0 13.437551 10.912996 24.329122 24.350546 24.329122 13.437552 0 24.329122-10.891571 24.329122-24.329122 0-13.437553-10.89159-24.3505414-24.329122-24.3505414z"
         fill="url(#radialGradient3885)"
         id="path251" />
      <path
         d="m514.84375-41.875c-19.60749 0-35.53126 15.923759-35.53125 35.53125 0 3.4031029.47963 6.69688157 1.375 9.8125-.68406-2.72914083-1.0625-5.5909893-1.0625-8.53125-.00001-19.314748 15.68525-35 35-35 19.31474.000001 35 15.685252 35 35 0 6.6394446-1.8468 12.8344745-5.0625 18.125 3.65212-5.5796481 5.78125-12.23913019 5.78125-19.40625 0-19.607491-15.89252-35.53125-35.5-35.53125z"
         fill="url(#linearGradient3889)"
         filter="url(#filter3475)"
         opacity=".390625"
         transform="matrix(.7026384 0 0 .7026384 -333.2755 26.424467)"
         id="path253" />
      <path
         d="m385.9375-16.09375c-1.14062 3.501591-1.75 7.2131372-1.75 11.09375 0 19.819394 16.08685 35.906249 35.90625 35.90625 19.81939 0 35.875-16.086856 35.875-35.90625 0-3.8806127-.60938-7.592159-1.75-11.09375.88419 3.099513 1.375 6.3679653 1.375 9.75.00001 19.607491-15.89251 35.5-35.5 35.5-19.60749-.000001-35.53125-15.892509-35.53125-35.5 0-3.3820347.49081-6.650487 1.375-9.75z"
         fill="url(#linearGradient3893)"
         filter="url(#filter3448)"
         opacity=".570313"
         transform="matrix(.7026384 0 0 .7026384 -266.59097 26.424467)"
         id="path255" />
      <path
         d="m385.9375-16.09375c-1.14062 3.501591-1.75 7.2131372-1.75 11.09375 0 19.819394 16.08685 34.906249 35.90625 34.90625 19.81939 0 35.875-15.086856 35.875-34.90625 0-3.8806127-.60938-7.592159-1.75-11.09375.88419 3.099513 1.375 6.3679653 1.375 9.75.00001 19.607491-15.89251 35.5-35.5 35.5-19.60749-.000001-35.53125-15.892509-35.53125-35.5 0-3.3820347.49081-6.650487 1.375-9.75z"
         fill="url(#linearGradient3895)"
         filter="url(#filter3448)"
         transform="matrix(.7026384 0 0 .7026384 -266.59097 26.424467)"
         id="path257" />
      <path
         d="m514.84375-40.875c-19.60749 0-35.53126 14.923759-35.53125 34.53125 0 3.4031029.47963 6.69688157 1.375 9.8125-.68406-2.72914083-1.0625-5.5909893-1.0625-8.53125-.00001-19.314748 15.68525-35 35-35 19.31474.000001 35 15.685252 35 35 0 6.6394446-1.8468 12.8344745-5.0625 18.125 3.65212-5.5796481 5.78125-12.23913019 5.78125-19.40625 0-19.607491-15.89252-34.53125-35.5-34.53125z"
         fill="url(#linearGradient3897)"
         filter="url(#filter3475)"
         transform="matrix(.7026384 0 0 .7026384 -333.2755 26.424467)"
         id="path259" />
      <path
         d="m28.429343-3.5254954c-13.970941 0-25.3169586 11.2279851-25.31694 25.0534514 0 5.358272 1.7102223 10.310646 4.6110517 14.382129-2.6932745-3.981007-4.2597462-8.776616-4.2597462-13.942981 0-13.7769783 11.1886445-24.9656204 24.9656345-24.9656204 13.776952 0 24.94368 11.1886421 24.943647 24.9656204 0 5.166365-1.57032 9.961974-4.259745 13.942981 2.89674-4.071483 4.611061-9.023857 4.611061-14.382129.000012-13.8254663-11.324062-25.0534514-25.294963-25.0534514z"
         fill="url(#linearGradient3899)"
         id="path261" />
      <path
         clip-path="url(#clipPath3598)"
         d="m549.125-40.125c-19.12444.000001-34.65625 15.531828-34.65625 34.65625-.00001 17.548086 13.10106 32.010578 30.03125 34.28125-14.58963-2.228339-25.78123-14.822437-25.78125-30.03125 0-16.782142 13.62412-30.406251 30.40625-30.40625 16.78212 0 30.40623 13.624108 30.40625 30.40625 0 15.733255-11.95878 28.66288-27.28125 30.21875 17.66635-1.573028 31.5-16.393027 31.5-34.46875 0-19.124422-15.5006-34.65625-34.625-34.65625zm3.125 69.125c-.51075.051862-1.04459.098751-1.5625.125.51874-.02306 1.04995-.079362 1.5625-.125zm-7.75-.1875c.51156.06861 1.01291.141469 1.53125.1875-.51085-.051862-1.02816-.110661-1.53125-.1875zm1.53125.1875c.51014.045303 1.01503.102054 1.53125.125-.51796-.026249-1.0204-.073138-1.53125-.125z"
         fill="url(#radialGradient3901)"
         filter="url(#filter3594)"
         transform="matrix(.7026384 0 0 .7026384 -357.76115 26.424467)"
         id="path263" />
      <path
         d="m469.60728-34.831043a14.103466 17.534039 0 1 1 -28.20693 0 14.103466 17.534039 0 1 1 28.20693 0z"
         fill="url(#radialGradient3903)"
         filter="url(#filter3740)"
         opacity=".40625"
         transform="matrix(.737306 0 0 .6411355 -307.5619 33.860288)"
         id="path265" />
      <path
         d="m29.44629.21256398.202353 4.22667322c1.675856.0300911 3.308374.1875932 4.87931.4354759-.326326-1.3752212-.648846-2.7502813-.989372-4.12420502-1.309694-.2969345-2.677412-.466154-4.092291-.5379441zm-3.102962.0256184c-1.35833.1032491-2.680532.3275002-3.934928.6404047-.361629 1.45706882-.711701 2.92073672-1.056796 4.38036912 1.616469-.3635106 3.305456-.5917878 5.059166-.7172538l.202375-4.30352002c-.092358.0059696-.177863-.0069896-.269817 0zm9.668641 1.22957692c.416346 1.3118346.826993 2.6272945 1.236672 3.944893 2.95595.7252991 5.63874 1.8110111 7.892321 3.2020244-1.751064-3.1446072-5.018277-5.7001659-9.128993-7.1469174zm-16.436713.307394c-4.402046 1.7657153-7.732331 4.8463223-9.061543 8.5301937 2.058495-1.7081947 4.672287-3.1111739 7.64499-4.1242083.469574-1.4677423.938359-2.9358953 1.416553-4.4059854zm10.140852 4.0729749.314784 6.1735038c2.154877.056038 4.259565.249514 6.250894.614788-.45177-2.098072-.926297-4.2006766-1.416571-6.3015833-1.655176-.2784188-3.374855-.4516573-5.149107-.4867085zm-3.37278.0768489c-1.862784.1366568-3.646241.440994-5.351501.8453358-.487677 2.0996038-.943333 4.1982111-1.394077 6.3015851 2.046207-.493072 4.199932-.817608 6.453266-.973417zm11.377526 1.0246479c.665983 2.1592065 1.332411 4.337395 1.978681 6.506515 2.414079.68476 4.624374 1.573902 6.588184 2.664086.163675-.738306.247335-1.481512.247335-2.254226 0-1.129632-.195036-2.203428-.53965-3.253258-2.31005-1.5808838-5.118001-2.8373885-8.27455-3.663117zm-20.079311.7941022c-2.984505 1.0802894-5.589579 2.5677048-7.600019 4.3547538-.1005736.58046-.1573842 1.166847-.1573842 1.767519 0 1.032075.1579672 2.029623.4496952 2.997097 1.571398-.994899 3.335645-1.868194 5.261542-2.587237.66951-2.17399 1.354323-4.3554419 2.046166-6.5321328z"
         fill="url(#radialGradient3905)"
         opacity=".589844"
         id="path267" />
    </g>
    <rect
       fill="url(#linearGradient4502)"
       height="66.29393"
       opacity=".456522"
       rx="0"
       transform="matrix(.6643393 -.7474311 .7474311 .6643393 0 0)"
       width=".755869"
       x="-2.865856"
       y="101.46713"
       id="rect271" />
  </g>
</svg>
