<?xml version="1.0" encoding="UTF-8" standalone="no"?>
<!DOCTYPE svg PUBLIC "-//W3C//DTD SVG 1.1//EN" "http://www.w3.org/Graphics/SVG/1.1/DTD/svg11.dtd">
<svg xmlns="http://www.w3.org/2000/svg" xmlns:xlink="http://www.w3.org/1999/xlink" width="128" height="128">
  <linearGradient id="a">
    <stop offset="0" stop-color="#fff"/>
    <stop offset="1" stop-color="#fff" stop-opacity="0"/>
  </linearGradient>
  <linearGradient id="b" x1="181.016" x2="181.016" y2="142.493" gradientUnits="userSpaceOnUse">
    <stop offset="0" stop-color="#f4f4f5"/>
    <stop offset=".367" stop-color="#cdd0d3"/>
    <stop offset="1" stop-color="#fff"/>
  </linearGradient>
  <linearGradient id="c">
    <stop offset="0"/>
    <stop offset="1" stop-opacity="0"/>
  </linearGradient>
  <clipPath id="i">
    <path d="M107.198 103.708c-.532 9.178-20.892 17.746-42.323 17.746-24.288 0-45.688-8.393-45.604-18.329l.724-85.342 86.984.194z"/>
  </clipPath>
  <filter id="n" width="1.515" height="1.027" x="-.257" y="-.014">
    <feGaussianBlur stdDeviation=".467"/>
  </filter>
  <filter id="v" width="1.071" height="1.302" x="-.036" y="-.151">
    <feGaussianBlur stdDeviation="1.306"/>
  </filter>
  <filter id="w" width="1.321" height="1.321" x="-.16" y="-.16">
    <feGaussianBlur stdDeviation="1.763"/>
  </filter>
  <filter id="D">
    <feGaussianBlur stdDeviation=".141"/>
  </filter>
  <filter id="y">
    <feGaussianBlur stdDeviation=".782"/>
  </filter>
  <filter id="o">
    <feBlend in2="SourceGraphic" mode="multiply"/>
  </filter>
  <linearGradient id="m" x1="48" x2="48.44" y1="170.5" y2="38.906" gradientTransform="matrix(-.54442 .2942 0 1 122.571 -20.157)" gradientUnits="userSpaceOnUse" xlink:href="#a"/>
  <linearGradient id="q" x1="420.18" x2="97.358" y1="38.084" y2="38.084" gradientTransform="matrix(.2518 0 0 .25264 141.604 85.408)" gradientUnits="userSpaceOnUse" xlink:href="#b"/>
  <linearGradient id="r" x1="143.179" x2="154.714" y1="68.99" y2="68.99" gradientUnits="userSpaceOnUse" xlink:href="#c"/>
  <linearGradient id="s" x1="48" x2="48" y1="170.5" y2="40" gradientTransform="matrix(1.04238 0 0 1 46.114 -178.247)" gradientUnits="userSpaceOnUse" xlink:href="#a"/>
  <linearGradient id="t" x1="48" x2="48" y1="170.5" y2="40" gradientTransform="matrix(1 -.2942 0 -1 58.228 153.604)" gradientUnits="userSpaceOnUse" xlink:href="#a"/>
  <radialGradient id="u" cx="88.221" cy="60.003" r="43.906" gradientTransform="matrix(1 0 0 .18327 .8 21.519)" gradientUnits="userSpaceOnUse" xlink:href="#a"/>
  <radialGradient id="x" cx="-7.835" cy="26.976" r="13.187" gradientUnits="userSpaceOnUse" xlink:href="#a"/>
  <radialGradient id="C" cx="86.475" cy="-12.897" r="42.959" gradientTransform="matrix(.76004 .0096 -.0085 .6731 19.825 14.67)" gradientUnits="userSpaceOnUse" spreadMethod="reflect">
    <stop offset="0" stop-color="#fff"/>
    <stop offset=".5" stop-color="#fff" stop-opacity=".844"/>
    <stop offset="1" stop-color="#fff" stop-opacity="0"/>
  </radialGradient>
  <radialGradient id="F" cx="179.917" cy="164.981" r="162.459" gradientTransform="matrix(.41579 0 0 .16726 -13.087 2.768)" gradientUnits="userSpaceOnUse">
    <stop offset="0" stop-color="#fff" stop-opacity="0"/>
    <stop offset=".5" stop-color="#fff" stop-opacity="0"/>
    <stop offset="1" stop-color="#fff"/>
  </radialGradient>
  <radialGradient id="E" cx="178.128" cy="-50.511" r="162.459" fx="180.031" fy="-113.044" gradientTransform="matrix(.34867 0 0 .17731 -1.931 17.77)" gradientUnits="userSpaceOnUse">
    <stop offset="0" stop-opacity="0"/>
    <stop offset=".5" stop-opacity=".025"/>
    <stop offset=".75" stop-opacity=".251"/>
    <stop offset="1" stop-color="#2d2d2d"/>
  </radialGradient>
  <linearGradient id="B" x1="366.885" x2="-145.156" y1="68" y2="70.603" gradientTransform="matrix(.27107 0 0 .23654 12.952 1.705)" gradientUnits="userSpaceOnUse">
    <stop offset="0" stop-color="#1c1c1c"/>
    <stop offset=".164" stop-color="#d9d9d9"/>
    <stop offset=".372" stop-color="#a4a4a4"/>
    <stop offset=".377" stop-color="#bbb"/>
    <stop offset=".5" stop-color="#ccc"/>
    <stop offset=".595" stop-color="#7f7f7f"/>
    <stop offset=".67" stop-color="#484848"/>
    <stop offset=".913" stop-color="#7e7e7e"/>
    <stop offset="1" stop-color="#b5b5b5"/>
  </linearGradient>
  <linearGradient id="A" x1="181.016" x2="181.016" y1="7.807" y2="142.494" gradientTransform="matrix(.26266 0 0 .21329 14.473 3.18)" gradientUnits="userSpaceOnUse">
    <stop offset="0" stop-color="#9fa4a5"/>
    <stop offset=".455" stop-color="#cdd0d3"/>
    <stop offset="1" stop-color="#fff"/>
  </linearGradient>
  <linearGradient id="z" x1="6.275" x2="355.757" y1="142.494" y2="142.494" gradientTransform="matrix(.25136 0 0 .2027 16.519 5.195)" gradientUnits="userSpaceOnUse">
    <stop offset="0" stop-color="#555" stop-opacity=".759"/>
    <stop offset=".5" stop-color="#666" stop-opacity=".241"/>
    <stop offset=".899" stop-color="#333" stop-opacity=".81"/>
  </linearGradient>
  <linearGradient id="l" x1="48" x2="48" y1="170.5" y2="40" gradientTransform="matrix(1.04314 -.30965 0 -1.05253 55.944 158.476)" gradientUnits="userSpaceOnUse" xlink:href="#a"/>
  <linearGradient id="k" x1="48" x2="48" y1="138.532" y2="-3.721" gradientTransform="matrix(-1.04314 -.30965 0 -1.05253 83.46 170.77)" gradientUnits="userSpaceOnUse">
    <stop offset="0" stop-color="#fff" stop-opacity="0"/>
    <stop offset=".541" stop-color="#fff" stop-opacity=".764"/>
    <stop offset="1" stop-color="#fff" stop-opacity="0"/>
  </linearGradient>
  <linearGradient id="h" x1="48" x2="48" y1="170.5" y2="40" gradientTransform="matrix(1.08813 0 0 1.05253 44.079 -182.472)" gradientUnits="userSpaceOnUse" xlink:href="#a"/>
  <linearGradient id="g" x1="19.995" x2="31.53" y1="70.202" y2="70.202" gradientTransform="matrix(1.04314 0 0 1.05253 -4.742 -5.259)" gradientUnits="userSpaceOnUse" xlink:href="#c"/>
  <linearGradient id="f" x1="109.57" x2="50.253" y1="60.843" y2="60.407" gradientTransform="matrix(1.04314 .26313 0 1.05253 -4.742 -16.205)" gradientUnits="userSpaceOnUse" xlink:href="#c"/>
  <linearGradient id="e" x1="420.18" x2="97.358" y1="38.084" y2="38.084" gradientTransform="matrix(.26266 0 0 .26591 14.473 85.911)" gradientUnits="userSpaceOnUse" xlink:href="#b"/>
  <linearGradient id="j" x1="220.224" x2="26.479" y1="507.181" y2="63.051" gradientUnits="userSpaceOnUse" xlink:href="#c"/>
  <filter id="p">
    <feGaussianBlur stdDeviation=".603"/>
  </filter>
  <filter id="d" color-interpolation-filters="sRGB">
    <feGaussianBlur stdDeviation=".603"/>
  </filter>
  <path fill-opacity=".955" d="M101.38 110.888c0 7.515-18.014 13.753-40.56 13.753-22.545 0-40.646-6.238-40.646-13.753 4.937-4.502 18.101-1.464 40.647-1.464 22.545 0 34.635-3.86 40.559 1.464z" filter="url(#d)" transform="matrix(1.11844 0 0 1.35584 -5.733 -45.215)"/>
  <path fill="url(#e)" d="M107.917 104.204c0 11.195-23.543 19.598-45.898 19.598-25.336 0-45.898-9.14-45.898-19.598l-.005-86.43 91.801.05z"/>
  <path fill="url(#f)" d="M24.049 25.082c7.093 4.579 12.29 6.379 32.006 7.963v90.578c-10.027-.311-23.89-3.27-32.006-8.64z"/>
  <path fill="url(#g)" d="M25.848 116.112c-6.094-3.35-9.727-7.512-9.727-11.908l-.005-86.536 12.002.007z" opacity=".285"/>
  <path fill="url(#h)" d="M87.604-140.371h8.268v83.704h-8.268z" transform="skewY(-16.533) scale(.95866 -1)"/>
  <path fill="url(#j)" fill-rule="evenodd" d="M125.412 47.906c-.11.06-15.663 36.069-16.006 40.188.55-2.357 16.005-37.428 16.037-39.906.003-.21-.012-.292-.031-.282zm-16.006 40.188c-7.692 33.037-61.785 14.658-92.47-43.696l-2.905 58.758c19.086 45.372 98.733 67.002 96.157.719-1.736.098-1.353-8.924-.782-15.781z" clip-path="url(#i)" transform="matrix(1.04314 0 0 1.05253 -3.891 -3.983)"/>
  <path fill="url(#k)" d="M45.451 122.313l-8.105-1.578V30.788c2.854.749 5.708 1.139 8.561 1.484z"/>
  <path fill="url(#l)" d="M103.9 112.055c.834-.901 1.495-2.013 2.115-3.175V20.546c-.343 1.42-.83 2.755-2.115 3.623z"/>
  <path fill="url(#m)" d="M101.2 31l-5 3v81c1.867-.768 3.813-2.096 5-3z" filter="url(#n)" transform="matrix(1.04314 0 0 1.05253 -3.891 -3.983)"/>
  <g filter="url(#o)" opacity=".29" transform="matrix(1.04314 0 0 1.05253 -3.891 -3.983)">
    <path fill-opacity=".955" d="M101.38 110.888c0 7.515-21.372 13.607-40.56 13.607-18.662 0-40.646-6.092-40.646-13.607 4.937-4.502 18.101-1.464 40.647-1.464 22.545 0 34.635-3.86 40.559 1.464z" filter="url(#p)" transform="matrix(1.07219 0 0 1.28818 -2.053 -38.843)"/>
    <path fill="url(#q)" d="M143.188 20.656v.25c0-.085.026-.165.03-.25zm0 .25v81.875c0 9.936 19.712 18.625 44 18.625 21.43 0 44-7.989 44-18.625V20.906c0 7.78-19.712 14.5-44 14.5s-44-6.72-44-14.5z" transform="translate(-124)"/>
    <path fill="url(#r)" d="M143.188 20.563v82.218c0 4.177 3.47 8.13 9.312 11.313l2-84.875c-6.328-2.38-10.214-5.404-10.406-8.657h-.906z" opacity=".285" transform="translate(-124)"/>
    <path fill="url(#s)" d="M87.809-138.247h7.965v79.514h-7.965z" transform="skewY(-16.394) scale(.95935 -1)"/>
    <path fill="url(#j)" fill-rule="evenodd" d="M125.412 47.906c-.11.06-15.663 36.069-16.006 40.188.55-2.357 16.005-37.428 16.037-39.906.003-.21-.012-.292-.031-.282zm-16.006 40.188c-7.692 33.037-61.785 14.658-92.47-43.696l-2.905 58.758c19.086 45.372 98.733 67.002 96.157.719-1.736.098-1.353-8.924-.782-15.781z" clip-path="url(#i)" opacity=".898"/>
    <path fill="url(#t)" d="M103.333 109.918c.852-.83 1.465-1.898 2.028-3.017V22.976c-.365 1.424-.875 2.719-2.028 3.442z"/>
    <path fill="url(#u)" d="M107.28 18.93c.12.423.187.847.187 1.28 0 3.774-4.639 7.299-12.187 9.928-2.265.789-5.101.543-7.844 1.153-2.781.62-5.475 2.09-8.65 2.49-4.772.6-9.933.93-15.32.93-22.604 0-41.243-5.83-43.718-12.907 2.03 7.217 20.878 13.22 43.812 13.22 5.306 0 10.397-.287 15.103-.904 1.01-.132 5.475-.732 5.725.36 1.662 7.251 1.43 28.1 1.43 33.218 0 2.939 5.46-26.362 6.12-34.754.121-1.536 2.602-2.203 3.467-2.505 7.53-2.628 12.155-6.148 12.155-9.916 0-.54-.096-1.07-.28-1.594z" filter="url(#v)" transform="translate(.2 .856) scale(.98796)"/>
    <path fill="#fff" d="M2.729 35.053l-9.843-7.141 4.389 11.34-4.953-11.105-1.87 12.015 1.263-12.094-7.627 9.47 7.141-9.842-11.34 4.389 11.105-4.953-12.015-1.87 12.094 1.263-9.47-7.627 9.842 7.142-4.389-11.342 4.953 11.107 1.87-12.016-1.263 12.094 7.627-9.47-7.142 9.842 11.342-4.389-11.107 4.953 12.016 1.87-12.094-1.263z" filter="url(#w)" opacity=".765" transform="translate(90.52 22.247) scale(.36979)"/>
    <path fill="url(#x)" d="M2.729 35.053l-9.501-6.458 4.047 10.658-5-10.344-1.823 11.253.842-11.457-7.206 8.834 6.458-9.501-10.658 4.047 10.344-5-11.253-1.823 11.457.843-8.834-7.207 9.501 6.458-4.047-10.658 5 10.344 1.823-11.253-.843 11.457 7.207-8.834-6.458 9.501 10.658-4.047-10.344 5 11.253 1.823-11.457-.842z" filter="url(#y)" opacity=".765" transform="matrix(.21344 0 0 .16646 59.368 40.323)"/>
  </g>
  <path fill="url(#z)" d="M105.942 19.637c-.02 7.54-19.678 13.488-43.923 13.492-24.255.004-44.164-5.986-43.923-13.492.256-7.967 19.663-15.286 43.908-15.286 24.246 0 43.938 7.314 43.938 15.286z"/>
  <path fill="url(#A)" d="M107.917 18.377c0 8.388-20.562 15.627-45.898 15.627s-45.898-7.24-45.898-15.627c0-8.389 20.546-15.197 45.882-15.197s45.914 6.808 45.914 15.197z"/>
  <path fill="url(#B)" d="M106.056 17.79c0 7.838-19.716 14.614-44.037 14.614-24.32 0-44.037-6.776-44.037-14.614S37.698 3.597 62.019 3.597s44.037 6.355 44.037 14.193z"/>
  <path fill="url(#C)" d="M63.197 2.65c-23.797 0-43.125 7.711-43.125 17.188 0 .116.026.227.032.343.466-9.315 17.401-17.068 43.093-17.068 25.838 0 42.296 7.453 42.763 16.768.006-.116.031-.227.031-.343 0-9.477-18.996-16.888-42.794-16.888z" filter="url(#D)" transform="matrix(1.04672 0 0 .84713 -4.117 1.34)"/>
  <path fill="url(#E)" d="M106.056 17.79c0 7.838-19.716 14.614-44.037 14.614-24.32 0-44.037-6.776-44.037-14.614-.842 9.142 24.244 8.23 46.67 2.57 23.627-5.963 41.404-10.408 41.404-2.57z"/>
  <path fill="url(#u)" d="M107.28 18.93c.12.423.187.847.187 1.28 0 3.774-4.639 7.299-12.187 9.928-2.265.789-5.101.543-7.844 1.153-2.781.62-5.475 2.09-8.65 2.49-4.772.6-9.933.93-15.32.93-22.604 0-41.243-5.83-43.718-12.907 2.03 7.217 20.878 13.22 43.812 13.22 5.306 0 10.397-.287 15.103-.904 1.01-.132 5.475-.732 5.725.36 1.662 7.251 1.43 28.1 1.43 33.218 0 2.939 5.46-26.362 6.12-34.754.121-1.536 2.602-2.203 3.467-2.505 7.53-2.628 12.155-6.148 12.155-9.916 0-.54-.096-1.07-.28-1.594z" filter="url(#v)" transform="matrix(1.03057 0 0 1.03985 -3.683 -3.082)"/>
  <path fill="url(#F)" d="M106.056 17.386C106.056 25.224 86.34 32 62.02 32s-44.037-6.776-44.037-14.614c0-7.454 19.716-13.876 44.037-13.876s44.037 6.69 44.037 13.876z" opacity=".393"/>
  <path fill="#fff" d="M2.729 35.053l-9.843-7.141 4.389 11.34-4.953-11.105-1.87 12.015 1.263-12.094-7.627 9.47 7.141-9.842-11.34 4.389 11.105-4.953-12.015-1.87 12.094 1.263-9.47-7.627 9.842 7.142-4.389-11.342 4.953 11.107 1.87-12.016-1.263 12.094 7.627-9.47-7.142 9.842 11.342-4.389-11.107 4.953 12.016 1.87-12.094-1.263z" filter="url(#w)" opacity=".765" transform="matrix(.37732 0 0 .39004 89.91 19.575)"/>
  <path fill="url(#x)" d="M2.729 35.053l-9.501-6.458 4.047 10.658-5-10.344-1.823 11.253.842-11.457-7.206 8.834 6.458-9.501-10.658 4.047 10.344-5-11.253-1.823 11.457.843-8.834-7.207 9.501 6.458-4.047-10.658 5 10.344 1.823-11.253-.843 11.457 7.207-8.834-6.458 9.501 10.658-4.047-10.344 5 11.253 1.823-11.457-.842z" filter="url(#y)" opacity=".765" transform="matrix(.20972 0 0 .16906 58.26 37.528)"/>
</svg>